<?xml version="1.0" encoding="UTF-8"?>
<svg id="Layer_2" data-name="Layer 2" xmlns="http://www.w3.org/2000/svg" viewBox="0 0 395.5 203.96">
  <defs>
    <style>
      .cls-1 {
        letter-spacing: -.01em;
      }

      .cls-2 {
        font-family: Aleo-Light, Aleo;
        font-size: 19px;
        font-weight: 300;
      }

      .cls-2, .cls-3 {
        fill: #1d1d1b;
      }

      .cls-3 {
        font-family: LemonMilkRegular, 'Lemon Milk';
        font-size: 77px;
      }

      .cls-4 {
        fill: #f9f2c1;
      }

      .cls-4, .cls-5, .cls-6, .cls-7, .cls-8 {
        stroke-width: 0px;
      }

      .cls-5 {
        fill: #49453c;
      }

      .cls-6 {
        fill: #fff;
      }

      .cls-7 {
        fill: #fff5c0;
      }

      .cls-8 {
        fill: #feeb73;
      }
    </style>
  </defs>
  <g id="Layer_1-2" data-name="Layer 1">
    <g>
      <text class="cls-3" transform="translate(0 56.98)"><tspan x="0" y="0">Breezy</tspan></text>
      <text class="cls-2" transform="translate(0 83)"><tspan x="0" y="0">healt</tspan><tspan class="cls-1" x="43.11" y="0">h</tspan><tspan x="54.73" y="0">y and easy</tspan></text>
      <g>
        <path class="cls-8" d="M20.34,164.2s-1.41-1.2-.92-4.46c.5-3.32,9.2-20.51,19.31-27.59,10.12-7.07,26.67-16.48,29-15.56s4.24,2.83,4.24,2.83c0,0-15.56-20.73-31.83-22.64s-20.51,3.04-23.84,3.32-10.82-2.62-11.11-.99,1.91,7.07,2.12,9.41-6.58,28.08-5.66,31.12c.99,3.11,14.43,23.13,18.67,24.55Z"/>
        <path class="cls-8" d="M84.42,115.18s19.81.21,27.8,20.51c7.99,20.3,5.87,26.38,3.75,27.8-2.12,1.41,24.26-19.81,24.55-34.45.21-14.64-2.12-12.24-1.63-15.35.5-3.04,6.15-8.98,3.54-10.82s-5.66,1.41-8.7,1.91-16.27-4.03-18.6-3.75-14.85,2.33-17.68,4.24-11.6,8.49-13.02,9.9Z"/>
        <path class="cls-6" d="M71.97,119.43c1.49,4.39-5.66,24.97-20.02,31.83s-29,20.51-31.62,12.94c-2.62-7.57,10.33-27.8,20.02-33.46,9.69-5.66,28.79-19.59,31.62-11.32Z"/>
        <path class="cls-7" d="M69.43,122.33c1.77,3.18-3.25,19.59-16.2,26.31-13.02,6.72-25.61,18.67-28.72,13.23s7.43-22.28,16.06-27.59c8.63-5.38,25.46-17.97,28.86-11.95Z"/>
        <path class="cls-6" d="M84.42,115.18c-3.47-.28-8.28,12.24,9.2,32.54s20.02,18.18,21.22,17.19c1.2-.92,8.28-14.15-4.74-33.03-13.02-18.89-23.06-16.48-25.68-16.69Z"/>
        <path class="cls-7" d="M84.92,118.23s-4.74,9.41,11.32,27.8,14.85,16.98,17.47,15.07,4.74-14.36-4.24-27.09c-8.98-12.73-15.56-20.73-24.55-15.77Z"/>
        <g>
          <path class="cls-5" d="M89.52,118.58c0,.07.07.07.07.14-.07-.07-.14-.21-.28-.28.99,1.2,2.33,2.69,3.25,3.68.28.35.57.71.64.71,0,0-.14-.28-.5-.64l-.21-.21c-.57-.64-1.06-1.27-1.56-1.84l.35.42c-.21-.21-.35-.42-.57-.64l.07.07c-.57-.71-1.41-1.63-1.84-2.05s-.28-.28.28.42l.28.21h0Z"/>
          <path class="cls-5" d="M90.58,119.92c-.35-.42-.71-.78-1.06-1.2l-.07-.07v.07c.35.35.85.99,1.34,1.49l.21.21.14.14c.07.07-.07-.14-.35-.42l-.21-.21c-.57-.78-1.63-1.98-1.98-2.33-.07-.07,0,0,0,0,0,0,.21.28.5.64.35.35.64.71.64.71l.14.21-.14-.14.64.64.35.35-.14-.21-.14-.21v.07c-.35-.35-.71-.71-.99-1.13l-.42-.5q-.14-.14,0,.07l.21.21c0-.07-.07-.07-.07-.07.5.57.92,1.06,1.41,1.56l.21.21c-.07.07-.14,0-.21-.07h0Z"/>
          <path class="cls-5" d="M88.95,118.08c-.07-.07-.14-.21-.28-.28l-.07-.07c.07.07.07.14.14.14l.21.21Z"/>
          <path class="cls-5" d="M105.64,142.7c1.13,1.77,2.48,3.54,3.68,5.31.07.07.07.14.07.14,0,0,0-.07-.07-.07-1.2-1.84-2.48-3.54-3.68-5.38,0,0,0-.07-.07-.07,0,0,.07,0,.07.07Z"/>
          <path class="cls-5" d="M113,156.85q-.07-.07,0,0t.07.14-.07-.14Z"/>
          <path class="cls-5" d="M112.72,156.42c-.07-.28-.14-.5-.21-.78q0-.07-.07-.14s0-.07-.07-.14c-.14-.5-.28-1.06-.5-1.56-.14-.5-.35-1.06-.57-1.56s-.42-1.06-.71-1.49c-.28-.5-.57-.99-.92-1.41l-.07-.07c-.07-.14-.28-.35-.5-.64l-.14-.21c-.57-.85-1.13-1.63-1.7-2.4-.14-.21-.28-.35-.42-.57l-1.49-2.12c0,.07.07.07.07.07,0,0-.14-.21-.28-.35l-.21-.28.57.85.07.14c.21.28.42.64.64.92.99,1.34,1.91,2.69,2.83,4.03.99,1.27,1.77,2.62,2.33,4.1q0,.07.07.14c-.64-1.84-1.7-3.18-2.97-5.02-.78-1.13-1.56-2.19-2.33-3.25-.35-.57-.78-1.13-1.13-1.7l-.57-.85-.5-.92c-1.41-2.55-2.76-4.74-4.17-7.29-2.12-3.32-3.96-6.58-6.3-9.55-.42-.5-.78-.99-1.2-1.49-.35-.42-.57-.71-.64-.78l.57.57-.21-.28-.35-.42c-.35-.42-.64-.78-.78-.99l-.21-.28c-.35-.5-.71-.92-1.13-1.41l.07.07-.07-.07c-.21-.28-.35-.42-.42-.5.07.07.21.14.35.35l.07.07c-.14-.21-.21-.28-.07-.14q-.07-.07.07,0l.14.14-.14-.14-.14-.14q-.21-.28-.42-.5c-.14-.14-.28-.35-.28-.35q-.21-.21-.14-.21l.07.07q-.14-.21-.21-.21c0-.07-.07-.07-.07-.07v-.07l.07.07.07.07c.07.14.14.14.14.21l.21.28.07.07.07.07v-.07l.14.14-.14-.14q.28.28.35.42l.21.21q.28.35.57.64l.07.07.14.14.14.14.14.14.57.57c.07.07.14.21.21.28l-.07-.07c-.07-.07,0,0,0-.07-.64-.78-1.27-1.49-1.91-2.19-.14-.14-.21-.28-.21-.28l.21.21c.64.71,1.41,1.56,2.12,2.4s1.49,1.7,2.12,2.48l.99,1.27-.07-.07.28.35v.07l-.21-.28-.14-.14c-.78-.99-1.49-1.91-2.26-2.83-.42-.5-.78-.92-1.2-1.41-.07-.14-.14-.21-.14-.21l.21.21c.71.78,1.41,1.63,2.12,2.4.57.71,1.13,1.49,1.77,2.26.21.28.42.64.57.85l-.14-.21c.14.21.28.42.35.57l-.07-.07,1.2,1.77c.35.57.71,1.13,1.06,1.77l.07.14c.35.5.64.99.92,1.49-.14-.21-.21-.35-.35-.57.28.42.5.85.78,1.27.78,1.13,1.49,2.55,1.84,3.18l1.98,3.47c.71,1.13,1.27,2.33,1.98,3.47.07.14.14.21.14.21l-.14-.14c-.99-1.63-1.91-3.32-2.9-5.02.78,1.41,1.63,2.83,2.4,4.31.07.21.21.35.35.57.14.14.21.35.35.5,1.13,1.77,2.4,3.4,3.61,5.16,1.06,1.49,2.05,2.83,2.69,4.67.92,2.48,1.27,4.81,2.33,7.14.14.28.28.57.28.64s-.07-.14-.28-.5l-.21-.42-.14-.5-.35-.92c-.21-.64-.42-1.27-.57-1.91-.35-1.27-.71-2.55-1.2-3.82s-1.2-2.48-2.05-3.54c-.78-1.13-1.56-2.26-2.4-3.4-.35-.5-.71-.99-.99-1.49,0,0-.07-.07-.07-.14.35.57.78,1.13,1.13,1.7,1.13,1.56,2.19,3.04,3.32,4.74.78,1.2,1.13,2.4,1.56,3.61.5,1.56.85,3.11,1.34,4.67q0,.07.07.14v-.07c-.35-1.06-.71-2.19-.99-3.25.07.21.07.28.07.28,0,0-.07-.14-.14-.35l.21.78c.07.14.07.28.07.28,0,0-.07-.14-.07-.28-.28-1.06-.57-2.05-.92-3.11-.21-.64-.5-1.2-.78-1.77-.35-.57-.64-1.13-.99-1.63.07.14.14.28.21.35l.28.5c.99,1.56,1.56,3.32,2.05,5.16.5,1.77.92,3.61,1.84,5.31,0,.07.07.14.07.14,0,0,0-.07-.07-.14-.5-.99-.92-2.05-1.27-3.11,0-.07,0-.14-.07-.14-.57-1.98-1.06-4.1-1.91-5.94.85,1.77,1.27,3.61,1.77,5.45l.21.57q0,.07.07.14v-.07l-.07-.14c.07.14.07.28.14.42,0,.14.07.21.07.14,0,0-.14-.28-.21-.71-.28-.99-.5-1.91-.85-2.9l-.07-.28-.07-.28c.42,1.49.78,3.04,1.27,4.53.07.14.07.21.07.21,0,0-.07-.07-.07-.21-.42-1.27-.78-2.62-1.13-3.96-.21-.64-.42-1.27-.64-1.98-.28-.64-.5-1.27-.92-1.84-.5-.78-.99-1.49-1.56-2.26l.21.28c.85,1.2,1.63,2.4,2.19,3.68.5,1.27.92,2.62,1.27,4.03v.14-.14c-.35-1.34-.71-2.62-1.27-3.96-.28-.5-.42-1.06-.71-1.56s-.57-.92-.92-1.41c1.34,1.77,2.05,3.82,2.62,5.94,0,.07.07.14.07.21v.07l.21.85v.07h0ZM93.27,123.18s.07.07.07.14l.14.21c.07-.07-.07-.21-.21-.35ZM91,120.56c-.07-.07-.07-.14-.07-.14,0,.07.07.14.07.14ZM103.17,138.6c-.57-.99-1.13-1.98-1.7-3.04l.42.71c.42.85.85,1.56,1.27,2.33h0ZM91.85,121.34c.14.21.35.42.5.57s.28.28.42.5c.35.42.71.92,1.06,1.34l.07.07.14.14c-.35-.5-.71-.92-1.13-1.41-.35-.35-.71-.78-1.06-1.2ZM89.45,118.72c0-.07-.07-.07-.07-.07l.07.07ZM89.66,119.29l.21.21-.21-.21Z"/>
        </g>
        <g>
          <path class="cls-5" d="M89.45,134.14q.07,0,0,0h-.14c.64.14,1.56.28,2.12.42.21,0,.35.07.42.07,0,0-.14-.07-.35-.07h-.14c-.28-.07-.64-.14-1.06-.21l.21.07c-.14,0-.28-.07-.35-.07h.07c-.35-.07-.92-.21-1.2-.21s-.21,0,.21.14l.21-.14h0Z"/>
          <path class="cls-5" d="M90.15,134.35c-.21-.07-.42-.07-.71-.14h-.07c.21,0,.57.07.92.14h.21s-.07,0-.21-.07h-.14c-.42-.07-1.06-.21-1.34-.21-.07,0,0,0,0,0,0,0,.14.07.35.07.21.07.42.07.42.07h.14-.07c.07,0,.28.07.42.07l.21.07-.14-.07h-.14c-.21-.07-.5-.07-.64-.07l-.28-.07q-.07,0,0,0h.14-.07c.35.07.57.14.92.21h.07q.07,0,0,0h0Z"/>
          <path class="cls-5" d="M89.16,134.14c-.07,0-.14,0-.14-.07h.07c0,.07.07.07.07.07h0Z"/>
          <path class="cls-5" d="M102.11,135.77c.99.07,1.91.21,2.83.28h.07-.07c-.92-.14-1.84-.21-2.83-.28,0-.07-.07-.07,0,0-.07-.07,0,0,0,0Z"/>
          <path class="cls-5" d="M108.9,136.83c-.07,0-.21,0-.35-.07h-.14c-1.2-.14-1.98-.21-2.9-.35h-.57c-.42-.07-.85-.07-1.27-.14h-.28c-.42,0-.78-.07-1.13-.07h.07-.35c.14,0,.28,0,.42.07h.07c.14,0,.35,0,.5.07,1.49.14,2.83.28,4.24.42h.07c-.85-.07-1.63-.14-2.62-.21-1.27-.07-2.4-.21-3.54-.28-1.2-.07-2.4-.21-3.68-.28-1.7-.14-3.32-.35-5.02-.57-.64-.07-1.2-.21-1.27-.28h.35-.14l-.21-.07c-.21-.07-.42-.07-.57-.14l-.14-.07c-.21-.07-.57-.14-.78-.21h.07-.07c-.14-.07-.21-.07-.28-.07h.28c-.07,0-.14-.07-.07-.07q-.07,0,0,0h.07-.14q-.14,0-.28-.07c-.07,0-.21-.07-.21-.07q-.14-.07-.07-.07h-.21.14l.14.07h.07-.07l.21.07h.14q.21.07.35.07h.28c.07,0,.14,0,.35.07h.14-.07c-.5-.14-.85-.21-1.27-.28-.07,0-.14,0-.14-.07h.14c.85.14,1.91.35,2.76.5.21.07.5.07.71.14h.21-.21c-.57-.07-1.06-.14-1.56-.28-.21-.07-.5-.14-.78-.14h-.14.14c.85.21,1.91.35,2.62.5.14,0,.21.07.42.07h-.07c.07,0,.21.07.28.07h-.07c.57.07,1.27.14,1.84.21h.07c.28,0,.57.07.78.07-.07,0-.21,0-.28-.07.28,0,.42.07.64.07.64.07,1.27.14,1.63.21,1.13.07,2.33.21,3.54.28h.14-.07c-.92-.07-1.77-.14-2.55-.21.71.07,1.49.14,2.19.21h.57c.92.07,1.77.14,2.76.28.85.07,1.56.14,2.33.28,1.13.14,2.19.28,3.25.5.14,0,.28.07.28.07h-.21c-2.33-.35-4.67-.64-7.07-.85-.28,0-.5-.07-.78-.07h-.07c.28,0,.57.07.92.07.85.07,1.63.14,2.55.28.5.07,1.13.14,1.7.21.71.07,1.41.21,2.12.35h.07c-.57-.07-1.06-.14-1.49-.21.07,0,.14,0,.14.07h-.14l.35.07h.14-.14c-.5-.07-.92-.14-1.41-.21l-1.7-.21c.07,0,.14,0,.14.07h.28c.78.07,1.63.14,2.4.28.85.14,1.63.28,2.4.42h.07-.07l-1.49-.21h-.07c-.92-.14-1.84-.28-2.76-.35.85.07,1.7.21,2.48.35.07,0,.21,0,.28.07h.07-.14c.14,0,.28.07.28.07h-.28c-.42-.07-.85-.14-1.34-.21h-.28c.71.07,1.34.21,2.05.35h.14-.07c-.57-.07-1.2-.21-1.77-.28-.64-.07-1.2-.14-1.84-.21-.42-.07-.78-.07-1.2-.07h.14c1.34.14,2.48.21,3.68.42h.07-.07c-.64-.14-1.2-.14-1.84-.21-.5-.07-.92-.07-1.49-.14.99.14,1.91.21,2.83.35h.14c.28-.35.35-.35.57-.35q-.07,0,0,0h0ZM91.99,134.78q.07,0,.14.07c0-.07-.07-.07-.14-.07ZM90.51,134.57c-.07,0-.07-.07,0,0-.07,0,0,0,0,0ZM99.99,135.63c-.5-.07-.92-.07-1.56-.14h.35c.42,0,.78.07,1.2.14ZM91,134.57c.07,0,.21.07.35.07.07,0,.21,0,.28.07.21.07.5.07.71.14h.14c-.28-.07-.5-.07-.78-.14-.21-.07-.5-.14-.71-.14h0ZM89.66,134.57h.14-.14Z"/>
        </g>
        <g>
          <path class="cls-5" d="M102.96,125.94v.07-.21c-.14.78-.28,1.77-.42,2.4-.07.21-.07.42-.07.5,0,0,.07-.14.07-.35v-.14c.07-.35.14-.78.21-1.2l-.07.28c0-.14.07-.28.07-.42v.07c.07-.42.21-1.06.21-1.41s0-.21-.14.21c0,0,.14.21.14.21Z"/>
          <path class="cls-5" d="M102.74,126.79c.07-.28.07-.5.14-.78v-.07c0,.21-.07.64-.14.99v.28s0-.07.07-.28v-.21c.07-.5.21-1.27.21-1.56s-.07.14-.07.42c-.07.21-.07.42-.07.5v.14-.07c0,.07-.07.28-.07.42l-.07.21.07-.14v-.14c.07-.28.07-.5.07-.78l.07-.35v.14-.07l-.21,1.06s0,.28,0,.28Z"/>
          <path class="cls-5" d="M102.96,125.58c0-.07,0-.14.07-.21v.14c-.07,0-.07.07-.07.07Z"/>
          <path class="cls-5" d="M100.69,140.44c-.14,1.06-.21,2.12-.35,3.25v.07-.07c.07-1.13.21-2.19.35-3.25Z"/>
          <path class="cls-5" d="M99.77,148.22v-.57c0-1.06.07-2.26.14-3.4v-.64c.07-.5.14-.99.14-1.49v-.35c.07-.42.07-.85.14-1.27v.07-.42c0,.14-.07.35-.07.5v.07c0,.21-.07.35-.07.57-.07.78-.14,1.63-.21,2.48-.07.78-.07,1.63-.14,2.4v.07c.07-.99,0-1.84.14-2.97.14-1.34.21-2.69.35-4.03.14-1.41.35-2.76.57-4.24.28-1.98.57-3.82.92-5.73.14-.71.28-1.34.28-1.49v.42-.14l.07-.28c.07-.28.07-.5.14-.64l.07-.21c.07-.28.14-.64.21-.85v.07-.07c.07-.14.07-.28.07-.28v.35c0-.14.07-.14.07-.07v.07-.21q0-.21.07-.35c0-.07.07-.21.07-.21l.07-.14v-.21.28l-.07.14v.21-.07q-.07.21-.07.28v.14q-.07.21-.07.42v.35c0,.07,0,.14-.07.42v.21-.07c.14-.57.21-.99.28-1.41,0-.07,0-.14.07-.21v.14c-.14.99-.35,2.19-.57,3.25-.07.28-.07.57-.14.78v-.07l.07.21.07-.14v-.14c.07-.5.21-1.2.35-1.77.07-.28.14-.64.21-.92v-.14.14c-.14,1.06-.35,2.19-.57,3.04,0,.14-.07.28-.07.5v-.14c0,.07-.07.21-.07.35v-.07c-.14.71-.21,1.13-.35,2.05v.07c-.07.35-.07.64-.14.92,0-.14.07-.21.07-.35-.07.28-.07.5-.14.71-.14.71-.21,1.49-.35,1.84-.21,1.34-.35,2.69-.57,4.03v.14-.14c.14-.99.21-1.91.35-2.9-.14.78-.21,1.63-.35,2.48l-.07.35c0,.07,0,.21-.07.28-.14,1.06-.21,2.05-.35,3.18-.07.92-.14,1.77-.14,2.69-.07,1.27-.07,2.48-.07,3.82v.35-.28c0-1.34,0-2.69.07-4.03.07-.71.07-1.34.14-2.05s.14-1.34.21-2.05c0-.28.07-.57.07-.92v-.07c0,.35-.07.64-.14.99-.07.92-.21,1.91-.21,2.9-.07.64-.07,1.27-.14,1.98-.07.85,0,1.63-.07,2.48v.07-1.84.14-.21.57-.14c0-.57.07-1.06.07-1.63.07-.64.07-1.27.14-1.98v.5c-.07.92-.14,1.84-.14,2.76,0,.99-.07,1.91-.07,2.83v.07-.07c0-.57,0-1.13.07-1.7v-.07c0-1.06.07-2.12.14-3.18-.07.99-.14,1.91-.14,2.9v.35-.14.35-.35c0-.5,0-.99.07-1.56v-.28c-.07.78-.07,1.56-.07,2.33v.14-.14c0-.71,0-1.41.07-2.05.07-.71.07-1.41.14-2.12,0-.5,0-.92.07-1.41v.21c-.07,1.56-.21,2.83-.21,4.31v.07-.07c0-.71.07-1.34.07-2.12,0-.57.07-1.06.07-1.7-.07,1.13-.14,2.19-.14,3.32v.14c-.28.42-.28.57-.28.71h0ZM102.32,128.84q0,.07-.07.21s.07-.07.07-.21ZM102.53,127.14v-.07.07ZM100.91,138.03c.07-.57.14-1.13.28-1.77l-.07.42c-.07.42-.14.85-.21,1.34h0ZM102.53,127.7c0,.14-.07.21-.07.35s0,.21-.07.28c-.07.28-.07.57-.14.85v.14c.07-.28.14-.57.14-.92.07-.14.14-.35.14-.71h0ZM102.53,126.22v.14-.14Z"/>
        </g>
        <g>
          <path class="cls-5" d="M84.78,125.79l.07.07c-.07-.07-.14-.07-.28-.14.71.42,1.13.71,1.7,1.06.42.28.99.64,1.56.99.28.21.57.35.64.42,0,0-.21-.14-.5-.35-.07-.07-.14-.07-.21-.14-.57-.42-1.06-.78-1.56-1.13l.35.21c-.14-.14-.35-.21-.5-.35l.07.07c-.57-.42-1.41-.92-1.84-1.13s-.28-.14.28.28c0,0,.21.14.21.14Z"/>
          <path class="cls-5" d="M85.84,126.57c-.35-.21-.71-.42-1.06-.71l-.07-.07c.35.21.85.5,1.34.85l.14.14c.07.07.14.07.14.07.07,0-.07-.07-.35-.21l-.14-.07c-.64-.5-1.63-1.13-1.98-1.34-.07-.07,0,0,0,0,0,0,.21.14.5.35.35.21.64.35.64.35l.14.07c-.07,0-.07-.07-.14-.07.07.07.42.21.64.35l.35.21-.14-.14-.14-.07c-.35-.21-.71-.42-.99-.57l-.42-.28q-.14-.07,0,0l.21.14-.07-.07c.5.28.92.57,1.41.92-.07.07,0,.07,0,.14.07.07.07,0,0,0h0Z"/>
          <path class="cls-5" d="M84.21,125.51c-.07-.07-.14-.14-.28-.14h-.07c.07,0,.07.07.14.07.14.07.21.07.21.07Z"/>
          <path class="cls-5" d="M103.66,137.82c1.34.99,2.62,2.05,3.89,3.18l.07.07-.07-.07c-1.2-1.06-2.55-2.12-3.89-3.18-.07,0,0,0,0,0Z"/>
          <path class="cls-5" d="M113.43,145.6c.07,0,.07.07.14.07q-.07-.07-.14-.07Z"/>
          <path class="cls-5" d="M113.07,145.53c-.21-.07-.35-.21-.57-.35q-.07,0-.07-.07l-.07-.07c-.71-.42-1.41-.99-2.12-1.49-.71-.57-1.41-1.06-2.05-1.63l-.07-.07c-.07-.07-.28-.21-.5-.42l-.14-.14c-.57-.5-1.2-.99-1.77-1.49-.14-.14-.28-.21-.42-.35-.5-.42-1.06-.78-1.63-1.2l.07.07s-.14-.07-.28-.21l-.21-.14c.21.14.42.35.64.5l.07.07c.21.21.5.35.71.57,2.05,1.63,3.89,3.25,5.87,4.74.07,0,.07.07.14.07-1.27-.92-2.33-1.77-3.61-2.83-.78-.64-1.56-1.34-2.4-1.91-.42-.28-.85-.64-1.2-.92l-1.27-.85c-.21-.14-.42-.28-.71-.42-.28-.21-.42-.35-.64-.57-.42-.35-.78-.71-1.2-1.13-.42-.35-.78-.71-1.2-.99-.21-.14-.42-.35-.64-.42-.21-.14-.5-.28-.71-.35-.64-.28-1.34-.57-2.05-.78l-1.06-.42c-.14-.07-.35-.14-.5-.21l-.5-.28c-.64-.35-1.27-.78-1.91-1.13-.64-.42-1.2-.85-1.84-1.27-.92-.64-1.77-1.2-1.84-1.34-.07-.07.14.07.57.28l-.21-.14-.35-.28c-.35-.21-.64-.42-.78-.57l-.21-.21c-.28-.28-.85-.64-1.13-.78h.07l-.07-.07c-.21-.14-.35-.21-.42-.28.07,0,.14.07.35.14h.07c-.14-.07-.21-.14-.07-.07q-.07-.07.07,0c.07,0,.07.07.14.07q-.07-.07-.14-.07c-.07-.07-.14-.07-.14-.07l-.42-.28c-.14-.07-.28-.21-.28-.21q-.21-.14-.14-.14h.07c-.14-.07-.14-.14-.21-.14s-.07-.07-.07-.07l.07.07h.07c.07.07.14.07.14.07l.21.14h.07l.07.07.14.07-.14-.07q.28.14.35.21c.14.07.21.14.21.14q.28.21.57.35l.07.07c.07,0,.07.07.14.07l.14.07c.07,0,.07.07.14.07.07.07.21.14.5.35l.21.14-.07-.07c-.07,0,0,0,0,0-.57-.42-1.27-.85-1.91-1.2-.14-.07-.21-.14-.21-.14,0,0,.07,0,.21.14,1.34.78,2.9,1.91,4.24,2.76.35.21.71.5,1.06.71l-.07-.07.28.21-.21-.14-.14-.07c-.78-.57-1.56-1.06-2.33-1.63-.35-.28-.78-.57-1.13-.85l-.14-.14s.14.07.21.14c1.34.92,2.83,1.91,3.89,2.69l.64.42-.14-.14c.21.14.28.21.42.28l-.07-.07c.5.28.92.57,1.41.85.21.14.42.28.71.42.14.07.21.14.35.21s.21.07.35.14l.07.07c.21.07.42.14.57.21.21.07.42.14.71.21-.14-.07-.35-.14-.5-.14.35.14.71.21,1.06.35.5.21,1.06.35,1.49.64.21.14.42.21.64.35.14.14.28.28.42.35l.64.5.57.5c.42.35.78.71,1.13,1.06l.57.5c.07.07.21.21.28.21l.35.21c.42.28.85.57,1.34.85.07.07.14.14.21.14,0,0-.07,0-.14-.07-.64-.42-1.27-.85-1.84-1.2l-1.7-1.49c.5.42.92.92,1.41,1.27l.35.28c.07.07.28.14.35.28l.85.57.42.28c.14.07.28.21.42.28.64.5,1.34.99,1.91,1.49.64.5,1.27,1.06,1.91,1.56,1.13.92,2.05,1.7,3.18,2.62.85.57,1.56,1.2,2.4,1.63.42.21.85.5,1.2.71.42.21.85.35,1.34.57.21.07.42.21.5.21,0,0-.14-.07-.42-.14l-1.41-.64-1.34-.78-.64-.42-.64-.42c-.42-.28-.85-.57-1.27-.92-1.63-1.27-3.25-2.69-4.88-4.03-.35-.28-.71-.57-1.13-.85,0,0-.07,0-.07-.07.42.35.85.64,1.27.99,1.13.99,2.26,1.91,3.47,2.9.85.71,1.56,1.27,2.4,1.84.5.35.99.71,1.56,1.06l.78.5c.28.14.57.35.85.42,0,0,.07,0,.14.07h-.07c-.42-.14-.78-.42-1.13-.64-.42-.21-.78-.42-1.13-.64.14.07.21.14.14.14l-.28-.14.5.28c.14.07.21.14.21.14,0,0-.07-.07-.21-.14-.35-.21-.71-.42-1.06-.71l-.99-.71c-.78-.57-1.56-1.2-2.33-1.84.07.07.21.14.21.21l.35.28c2.19,1.77,4.53,3.54,7.29,4.53.07,0,.07.07.07.07h-.07c-.42-.21-.78-.35-1.2-.57s-.85-.35-1.2-.57c-.07,0-.07-.07-.14-.07-1.41-.78-2.76-1.7-4.03-2.69.57.5,1.2.92,1.77,1.34.28.21.57.42.92.64l.99.57.42.21s.07,0,.07.07h-.07l-.14-.07.42.28s-.21-.14-.5-.28c-.64-.42-1.34-.78-1.98-1.27l-.21-.14-.21-.14c.99.71,2.05,1.34,3.04,1.91.07.07.14.07.14.07,0,0-.07,0-.14-.07-1.91-.99-3.68-2.19-5.31-3.61-.57-.42-1.13-.92-1.7-1.34l.21.21c1.77,1.49,3.32,2.76,5.31,3.96,0,0,.07,0,.07.07l-.07-.07c-.21-.14-.5-.28-.71-.42l-.64-.42c-.42-.28-.85-.57-1.34-.92-.71-.57-1.41-1.06-2.05-1.63.64.57,1.34,1.06,1.98,1.63.71.5,1.34.99,2.05,1.49.07,0,.07.07.14.07h.07c0,.21.14.35.42.5q.07,0,0,0h0ZM88.46,128.41s.07,0,.07.07l.14.14c.07,0-.07-.07-.21-.21ZM86.26,127l-.07-.07s.07,0,.07.07ZM100.69,135.7c-.64-.64-1.27-1.27-2.05-1.84.21.14.35.28.5.42.57.5,1.06.92,1.56,1.41ZM87.04,127.35c.14.14.28.21.5.35.14.07.28.21.42.28.35.28.71.5,1.06.71-.07,0,.07,0,.07.07l.14.07c-.35-.28-.78-.5-1.13-.78-.35-.21-.71-.42-1.06-.71ZM84.99,126.29l.21.07-.21-.07Z"/>
        </g>
        <g>
          <path class="cls-5" d="M42.83,134.64v-.07c.07.57.21,1.41.28,1.91,0,.21.07.35.07.35v-.42c0-.28-.07-.57-.14-.92v.21c0-.14,0-.21-.07-.28v.07c0-.5-.07-.99-.14-1.2s-.07-.14-.07.21c0,0,.07.14.07.14Z"/>
          <path class="cls-5" d="M42.83,135.27c0-.21-.07-.42-.07-.64v-.07c.07.21.07.5.14.78v.14-.21h-.07c0-.42-.07-.99-.14-1.2v.35c0,.21.07.35.07.35v.07-.07c0,.07.07.21.07.35v.14l.07-.14c-.07-.21-.07-.42-.14-.57l-.07-.28v.14-.07c.07.35.14.57.14.92,0,.07.07.07,0,0Z"/>
          <path class="cls-5" d="M44.46,145.81c.14.85.21,1.7.35,2.48v.07-.07c-.14-.78-.21-1.63-.35-2.48Z"/>
          <path class="cls-5" d="M45.17,151.9c0-.07-.07-.21-.07-.35v-.14c-.21-1.06-.35-1.77-.5-2.55v-.07c0-.07-.07-.21-.07-.28v-.07c-.07-.35-.07-.78-.14-1.13,0-.14,0-.21-.07-.28-.07-.35-.14-.71-.14-.99,0,0,0-.07-.07-.14v-.14c0,.14,0,.28.07.42v.07c0,.14.07.28.07.42.07.57.21,1.2.28,1.91.07.64.21,1.2.35,1.84v.07c-.14-.78-.35-1.41-.5-2.26-.21-1.13-.35-2.12-.5-3.11s-.28-2.12-.5-3.25l-.64-4.46c-.07-.57-.14-1.06-.14-1.13s.07.07.07.28v-.35c0-.21-.07-.35-.07-.5v-1.2s.07.07.07.21v-.07.07-.14q0-.14-.07-.28v-.42.35-.07.35q0,.14.07.35v.28c0,.07,0,.14.07.28v.14-.07c-.07-.5-.14-.78-.14-1.13v-.14.14c.14.78.28,1.7.42,2.48,0,.21.07.42.07.64v.14-.21c-.07-.35-.14-.92-.21-1.41,0-.21-.07-.5-.07-.71v-.07.14c.14.78.28,1.7.35,2.33,0,.07,0,.21.07.42v-.07.28-.07c.07.57.14,1.13.21,1.63v.07c.07.28.07.5.14.71v-.28c.07.21.07.42.07.57.07.57.14,1.13.14,1.41.14,1.06.28,2.05.42,3.11v.14-.07c-.14-.85-.21-1.56-.35-2.26.07.64.14,1.27.28,1.91l.07.21v.21c.14.78.21,1.49.35,2.4.07.71.28,1.34.35,2.05.21,1.06.42,1.98.57,2.9,0,.14.07.28.07.28,0,0,0-.07-.07-.21-.21-1.06-.42-2.05-.64-3.04-.07-.5-.21-.99-.28-1.56s-.14-1.06-.21-1.63c0-.21-.07-.5-.07-.71v-.07c0,.28.07.5.14.78.14.71.21,1.49.35,2.19.07.42.14.99.28,1.49.14.64.28,1.27.35,1.84v.07c-.07-.5-.21-.92-.28-1.34v.14s0-.07-.07-.14l.07.28v.14-.14l-.21-1.2c-.07-.5-.21-.99-.28-1.49v.14l.07.21.85,4.24v.07-.07l-.21-1.27v-.07c-.14-.71-.28-1.49-.5-2.4.14.71.28,1.41.42,2.19,0,.07,0,.14.07.21v.07-.07c0,.14.07.21,0,.21,0,0-.07-.14-.07-.28-.07-.42-.14-.78-.21-1.13v-.28c.14.57.21,1.2.35,1.77v.07-.07c-.21-1.13-.42-2.19-.64-3.18l-.21-1.06v.14c.21,1.13.42,2.12.64,3.25v.07-.07c-.07-.42-.21-1.06-.35-1.56-.07-.42-.14-.85-.28-1.27.14.78.35,1.7.5,2.55v.07c0,.5,0,.64.07.78h0ZM43.04,136.9v.14-.14ZM44.11,143.97c-.07-.42-.07-.78-.14-1.34l.07.35c0,.28.07.64.07.99ZM42.97,136.05v.28c0,.07,0,.14.07.21,0,.21.07.42.07.64v.14c0-.21-.07-.42-.07-.71,0-.14-.07-.35-.07-.57ZM42.55,134.92l.07.14-.07-.14Z"/>
        </g>
        <g>
          <path class="cls-5" d="M30.81,145.39h.07-.21c.92.14,2.19.07,3.04.07.28,0,.57-.07.57-.07h-2.19.35-.5.07c-.57-.07-1.34-.14-1.7-.14-.42,0-.28,0,.28.07,0,0,.21.07.21.07Z"/>
          <path class="cls-5" d="M31.87,145.6c-.35,0-.64-.07-.99-.07h-.07c.28,0,.78.07,1.27.07h.28-.64c-.64-.07-1.56-.14-1.91-.14-.07,0,0,0,0,0,0,0,.21.07.5.07s.57.07.57,0h.14-.14.85-.28c-.35,0-.64-.07-.92-.07h-.42c-.14,0-.07,0,0,0h.21-.07c.42.07.85.07,1.27.14h.35q.07,0,0,0Z"/>
          <path class="cls-5" d="M30.1,145.46q-.07-.07,0,0c-.07,0,0,0,0,0Z"/>
          <path class="cls-5" d="M48.49,142.13c.64-.28,1.27-.5,1.84-.78.64-.21,1.27-.5,1.91-.71h.07-.07c-.64.21-1.27.5-1.91.71-.64.28-1.2.5-1.84.78q-.07,0,0,0t0,0Z"/>
          <path class="cls-5" d="M57.97,139.94c-.21.07-.35.07-.5.14h-.14c-.64.14-1.34.21-2.05.28-.35.07-.71.07-1.06.14s-.71.14-.99.28h-.07c-.07,0-.28.07-.5.14h-.14c-.57.21-1.13.42-1.77.64-.14.07-.28.07-.42.14l-1.49.64h.07l-.28.14-.21.07c.21-.07.42-.14.57-.21h.07c.21-.07.42-.21.64-.28.5-.21.99-.42,1.41-.57.5-.14.92-.35,1.41-.5s.92-.21,1.41-.35.99-.14,1.49-.21h.14c-1.27.14-2.26.42-3.61.85-1.56.57-3.04,1.27-4.67,1.91-1.7.64-3.25,1.13-5.09,1.56-2.4.64-4.74,1.06-7.14,1.27-.42.07-.92.07-1.2.07-.35,0-.57,0-.64-.07-.07,0,.14-.07.5-.07h-1.56c-.35,0-.85-.07-1.13-.14h.07-.07c-.21,0-.35-.07-.42-.07h.35c-.14,0-.21-.07-.07-.07q-.07,0,0,0h.14-.28q-.21,0-.42-.07h-.28q-.21-.07-.14-.07h.21-.28.71-.14.57q.28,0,.5.07h1.2-.07c-.07,0,0,0,0,0-.57,0-1.2-.07-1.77-.14h-.21.14c.64.07,1.27.07,1.98.07s1.41,0,2.05-.07c.35,0,.71-.07.99-.07h-.07.28-.35c-.78.07-1.49.14-2.26.07h-1.27,2.19c.5,0,1.06-.07,1.77-.14.21,0,.35-.07.64-.07h-.14c.14,0,.28,0,.42-.07h-.07c.42-.07.85-.14,1.34-.21.42-.07.78-.14,1.27-.21h.07c.42-.07.78-.14,1.06-.21-.14,0-.28.07-.42.07.28-.07.57-.14.92-.21.57-.14,1.27-.28,2.19-.5.78-.21,1.63-.5,2.4-.71l1.2-.42c.35-.14.78-.28,1.13-.5.07,0,.14-.07.14-.07,0,0-.07,0-.14.07-1.06.5-2.26.85-3.4,1.2.5-.14.99-.28,1.49-.5l.71-.21.71-.28.35-.14c.14-.07.21-.07.35-.14.64-.21,1.2-.5,1.84-.78s1.27-.5,1.91-.71c1.13-.28,2.12-.57,3.32-.71,1.63-.21,3.04-.42,4.53-.99.21-.07.35-.14.42-.14l-.28.14c-1.49.64-3.18.92-4.81,1.06-1.7.14-3.32.71-4.95,1.34l-1.06.42-.07.07c.35-.14.78-.35,1.2-.5l1.7-.64c.57-.21,1.2-.28,1.77-.5.42-.14.85-.14,1.27-.21s.78-.07,1.2-.14c.99-.14,1.98-.35,2.97-.64h.07-.07c-.64.21-1.34.35-2.05.5h.14s-.07,0-.21.07l.5-.07h.14s-.07,0-.14.07c-.64.14-1.34.21-1.98.28-.42.07-.78.07-1.2.14s-.78.21-1.2.28c.14,0,.21,0,.21-.07l.35-.07c.57-.14,1.13-.21,1.7-.28s1.13-.14,1.7-.28c1.13-.21,2.26-.5,3.32-.99h.07-.07c-.64.28-1.27.57-1.98.71h-.14c-1.27.35-2.55.5-3.89.64,1.2-.14,2.4-.28,3.54-.57.14,0,.28-.07.35-.07h.07-.14c.21-.07.42-.07.35-.07,0,0-.21.07-.42.14-.64.14-1.2.28-1.84.35h-.42c.99-.14,1.91-.28,2.9-.57.07,0,.14-.07.14-.07,0,0-.07,0-.14.07-.85.28-1.7.42-2.55.57s-1.7.21-2.55.35c-.57.14-1.13.28-1.63.42.07,0,.14-.07.21-.07,1.77-.57,3.4-.57,5.23-.99h.07-.07c-.85.21-1.7.28-2.55.42-.35.07-.71.07-1.06.14s-.64.14-.99.28c.35-.07.64-.14.99-.21s.71-.07.99-.14c.71-.07,1.34-.14,2.05-.28h.14c.35.07.5.07.78,0-.07,0,0,0,0,0,.07,0,0,0,0,0h0ZM34.49,145.6s-.07,0,0,0h.21-.21ZM32.36,145.67h-.07.07ZM45.66,143.2l-2.12.64.5-.14c.57-.14,1.13-.28,1.63-.5ZM33.07,145.6h.92c.35,0,.71-.07,1.06-.07h.21c-.35,0-.71.07-1.13.07h-1.06ZM31.16,145.81h.21-.21Z"/>
        </g>
        <g>
          <path class="cls-5" d="M23.87,158.83c.07,0,.07-.07.14-.07-.07.07-.21.14-.42.21,1.63-.85,3.54-2.48,4.67-3.54.42-.42.78-.78.85-.78,0-.07-.28.21-.71.64-.07.07-.21.14-.28.21-.64.57-1.41,1.2-2.26,1.84.14-.14.35-.28.5-.42-.28.21-.5.42-.78.57l.07-.07c-.85.64-2.19,1.41-2.83,1.77-.71.28-.42.28.57-.21l.5-.14h0Z"/>
          <path class="cls-5" d="M25.64,157.77c-.57.35-1.06.71-1.63,1.06l-.14.07h.07c.35-.21.64-.42.92-.64.35-.28.71-.5,1.06-.78l.28-.21c.14-.07.21-.14.21-.21.07-.07-.14.14-.5.35,0,0-.07.07-.21.14,0,.07-.14.14-.07.21-.99.64-2.62,1.56-3.18,1.84-.14.07,0,0,0,0-.07,0,.35-.14.92-.42.5-.28.92-.57.99-.57.07-.07.14-.14.28-.14l-.21.14c.14-.07.57-.35.92-.64l.5-.35-.28.14-.28.21s.07,0,.07-.07c-.5.35-.92.64-1.49.99l-.71.42c-.21.07-.14.07.07,0l.35-.14c-.07,0-.07.07-.14.07.71-.35,1.49-.85,2.19-1.34.07-.07.21-.14.28-.21-.14-.07-.14,0-.28.07h0Z"/>
          <path class="cls-5" d="M23.17,159.32c-.14.07-.21.14-.42.21q-.07,0-.07.07c.07,0,.14-.07.21-.07.21-.14.28-.21.28-.21Z"/>
          <path class="cls-5" d="M22.67,159.54c-.07,0-.07.07-.07.07l.07-.07Z"/>
          <path class="cls-5" d="M51.04,136.19l1.63-1.06,1.56-1.13,3.18-2.33q.07-.07.14-.07s-.07.07-.14.07l-3.18,2.33-1.56,1.13-1.63,1.06s-.07.07-.14.07c0,0,.07-.07.14-.07Z"/>
          <path class="cls-5" d="M66.53,124.31q-.07,0,0,0l.14-.14c-.07,0-.14.07-.14.14Z"/>
          <path class="cls-5" d="M66.25,124.8c-.21.28-.5.5-.71.71l-.14.14s0,.07-.14.14c-.5.42-.99.92-1.49,1.34s-1.06.85-1.63,1.27c-1.06.85-2.19,1.7-3.25,2.55l-.07.07c-.28.21-.5.35-.78.57l-.21.21c-.99.71-1.91,1.49-2.9,2.19-.21.14-.42.35-.71.5-.42.28-.85.64-1.27.92s-.85.57-1.34.92l.07-.07-.42.28-.35.21,1.06-.71c.07,0,.07-.07.14-.07.35-.28.78-.5,1.13-.78.85-.64,1.63-1.2,2.48-1.77.78-.57,1.56-1.2,2.33-1.77,1.56-1.2,3.11-2.33,4.6-3.54.07-.07.14-.07.14-.14-1.91,1.56-3.54,2.76-5.73,4.46-1.27.99-2.62,1.98-3.89,2.9-1.34.92-2.76,1.84-4.03,2.83-1.41.99-2.76,1.98-4.1,3.04-.64.5-1.34,1.06-1.98,1.56-.64.57-1.34,1.13-1.98,1.7-1.84,1.56-3.61,3.11-5.31,4.6-1.7,1.56-3.25,3.25-4.95,4.88-1.27,1.27-2.48,2.33-2.69,2.48-.14.07.14-.21.71-.71l-.35.28-.5.42c-.5.42-.92.78-1.2.99l-.35.28c-.5.35-1.41.92-1.84,1.2l.07-.07-.07.07c-.35.21-.57.35-.71.35.07-.07.21-.14.5-.35l.07-.07c-.21.14-.35.21-.21.07q-.14.07.07-.07c.07-.07.14-.07.21-.14-.07.07-.14.07-.21.14-.14.07-.21.14-.21.14l-.71.42c-.28.14-.5.21-.5.21q-.35.14-.28.07h.07q-.28.14-.35.14c-.07,0-.14.07-.14.07h-.07l.21-.14c.07,0,.07-.07.07-.07.14-.07.21-.14.28-.14l.35-.14.07-.07.07-.07h-.07l.21-.07-.21.14q.42-.21.57-.35c.21-.07.35-.21.35-.21l.85-.57.07-.07c.07-.07.14-.07.21-.14l.21-.14h.07c.07-.07.14-.07.21-.14h.07c.14-.07.28-.21.78-.57.14-.07.21-.21.35-.28l-.07.07c-.07.07,0,0-.07,0-.85.71-1.84,1.41-2.9,1.98-.21.07-.35.21-.42.21,0,0,.07-.07.28-.14,2.12-1.2,4.31-3.11,6.08-4.88l1.41-1.41-.07.07.35-.35.07-.07-.28.28-.21.21c-1.06,1.06-2.05,2.05-3.18,3.04-.57.5-1.13.92-1.7,1.41-.14.14-.28.21-.21.21,0,0,.14-.14.28-.21,1.98-1.56,3.96-3.61,5.45-4.95l.92-.92-.21.21.57-.57-.07.07c1.2-1.2,2.55-2.48,3.75-3.47l.14-.14c.57-.5,1.06-.92,1.63-1.41-.21.21-.42.35-.64.57.42-.42.85-.78,1.34-1.2,1.27-1.06,2.76-2.26,3.47-2.83l3.89-3.04c1.34-.92,2.69-1.91,4.03-2.83.14-.07.28-.14.28-.21,0,0-.07.07-.21.14-.99.64-1.91,1.34-2.9,2.05l-1.41,1.06-1.41,1.13c1.56-1.27,3.18-2.33,4.88-3.54l.64-.42.64-.42c1.06-.71,2.12-1.41,3.18-2.19,1.06-.71,2.05-1.49,3.11-2.33,1.77-1.41,3.4-2.55,5.16-3.96.64-.5,1.2-.99,1.77-1.49s1.13-.99,1.63-1.56c.99-1.13,2.12-2.12,3.04-3.4.28-.35.5-.64.57-.64s-.14.21-.42.5c-3.96,5.23-9.48,8.7-14.93,12.8-.57.42-1.2.85-1.77,1.27l-.14.14c.71-.42,1.34-.92,2.05-1.41,1.84-1.34,3.68-2.76,5.66-4.24,1.34-.99,2.55-1.91,3.75-2.9l2.19-1.98c.71-.71,1.34-1.41,2.05-2.12l.14-.14-.07.07c-.5.5-.92.99-1.41,1.49l-.71.78-.78.71c.14-.14.28-.21.28-.21l-.35.35.71-.64c.07-.07.14-.14.28-.21,0,0-.14.14-.28.21l-1.49,1.34c-.21.21-.5.42-.71.64l-.78.64c-1.2.99-2.48,1.91-3.75,2.83.21-.14.28-.21.35-.28l.57-.42c.92-.64,1.77-1.34,2.69-2.05.92-.64,1.7-1.41,2.55-2.19,1.7-1.56,3.18-3.25,4.6-5.02l.14-.14s-.07.07-.07.14c-.92,1.06-1.7,2.19-2.69,3.11q.07-.07,0,0l-.14.14q-.07.07,0,0c-1.77,1.91-3.68,3.54-5.66,5.02.92-.71,1.84-1.41,2.76-2.19l1.27-1.2.64-.57.64-.64.5-.57.14-.14-.07.07-.14.14c.14-.14.28-.28.35-.42l.14-.14s-.28.28-.57.64c-.42.42-.85.92-1.27,1.34l-1.34,1.27-.28.28-.28.28,2.12-1.91c.71-.64,1.34-1.34,1.98-2.05l.21-.21-.21.21-1.7,1.84c-.57.57-1.2,1.13-1.84,1.7-.57.57-1.27,1.06-1.98,1.63-.64.5-1.34,1.06-1.98,1.56-.85.71-1.77,1.34-2.69,2.05l.35-.28c2.9-2.19,5.52-4.03,8.06-6.58l.14-.14s0,.07-.07.07c-1.27,1.2-2.4,2.26-3.82,3.32-1.13.92-2.19,1.7-3.25,2.48,1.06-.85,2.12-1.63,3.18-2.4l1.56-1.2,1.49-1.34.21-.21.07-.07.78-.78c-.21-.21-.14-.21-.14-.21.07-.07,0-.07,0,0h0ZM29.53,154.51l.14-.14.21-.21-.35.35ZM26.49,157.27l-.14.14c0-.07.07-.07.14-.14ZM46.23,139.59c-1.13.85-2.19,1.7-3.4,2.62l.78-.64c.92-.71,1.77-1.34,2.62-1.98ZM27.48,156.35c.21-.21.5-.42.71-.64.21-.14.35-.35.57-.5.5-.5.99-.92,1.49-1.41l.14-.14.21-.21c-.5.5-1.06.99-1.56,1.49-.57.5-1.13.99-1.56,1.41ZM23.24,159.32s.07,0,.07-.07c0,.07-.07.07-.07.07ZM24.09,158.9c-.07,0-.07.07-.14.07.07-.07.14-.07.14-.07ZM24.72,158.69l.28-.21-.28.21Z"/>
        </g>
        <g>
          <path class="cls-5" d="M31.51,158.83s.07-.07.07-.14c-.07.14-.14.14-.21.28.21-.35.42-.64.64-.92.21-.35.35-.64.57-.99.35-.64.71-1.34.99-1.84.21-.35.35-.71.35-.78s-.14.21-.35.57c-.07.07-.07.14-.14.21-.42.71-.71,1.27-1.06,1.84l.21-.42c-.14.21-.21.42-.35.64l.07-.07c-.35.71-.99,1.63-1.27,2.05-.28.5-.14.35.28-.35l.21-.07h0Z"/>
          <path class="cls-5" d="M32.36,157.55c-.21.42-.5.78-.78,1.2l-.07.07c.14-.28.28-.5.42-.71.14-.28.35-.57.5-.85l.14-.21c.07-.07.07-.14.07-.21s-.07.14-.21.42l-.07.28c-.5.71-1.27,1.84-1.49,2.26-.07.07,0,0,0,0,0,0,.21-.21.42-.57s.42-.71.42-.71l.14-.21c0,.07-.07.07-.07.14.07-.14.28-.42.42-.71l.21-.35-.14.21-.14.21v-.07c-.21.42-.42.71-.71,1.13l-.28.5q-.07.14,0,0l.14-.21-.07.07c.35-.5.71-.99.99-1.56.07-.07.07-.14.14-.21q.07,0,0,.07h0Z"/>
          <path class="cls-5" d="M31.23,159.39c-.07.07-.14.21-.21.28v.07c0-.07.07-.07.14-.14.07-.14.07-.21.07-.21Z"/>
          <path class="cls-5" d="M45.59,137.4c1.06-1.56,1.98-3.25,3.04-4.81,0-.07.07-.07.07-.07,0,0,0,.07-.07.07-1.06,1.56-1.91,3.25-3.04,4.81,0,0,0,.07-.07.07.07,0,.07-.07.07-.07Z"/>
          <path class="cls-5" d="M54.86,126.71q-.07.07,0,0t.07-.14-.07.14Z"/>
          <path class="cls-5" d="M54.64,127.14c-.21.21-.35.42-.5.57-.07,0-.07.07-.07.07l-.07.07c-1.41,1.27-3.25,2.26-4.31,3.96l-.07.07c-.07.14-.21.35-.42.57l-.14.21c-.5.71-.92,1.49-1.41,2.19-.14.21-.21.35-.28.5-.35.64-.78,1.27-1.2,1.98,0-.07.07-.07.07-.07,0,0-.07.14-.21.35-.07.07-.14.14-.21.28.21-.21.35-.5.5-.78l.07-.07c.21-.28.35-.57.57-.85.78-1.27,1.49-2.55,2.26-3.68l.64-.85c.21-.28.42-.57.64-.78.21-.28.5-.5.71-.71s.5-.42.78-.64c.07,0,.07-.07.14-.07-.35.28-.71.5-.99.78l-.42.42c-.14.14-.28.35-.42.5s-.28.35-.42.5c-.14.21-.28.35-.35.57-.28.35-.5.78-.78,1.2-1.27,1.98-2.33,4.1-3.89,6.01-1.49,1.98-2.48,4.1-3.82,6.37-.21.35-.5.71-.71,1.13-.28.35-.5.71-.78,1.06-.57.71-1.2,1.27-1.77,1.91-.57.57-1.13,1.2-1.56,1.91s-.78,1.49-1.2,2.19c-.64,1.13-1.13,2.12-1.27,2.26-.07.07.07-.21.28-.64l-.14.28-.21.42c-.21.42-.42.78-.57.99l-.21.28c-.28.35-.64,1.06-.85,1.34l.07-.07-.07.07c-.14.21-.28.42-.35.42,0-.07.07-.21.21-.42v-.07c-.14.14-.21.21-.14.07q-.07.07,0-.07c0-.07.07-.07.07-.14q-.07.07-.07.14c-.07.07-.07.14-.07.14q-.14.28-.35.5c-.14.14-.21.28-.21.28q-.14.21-.14.14v-.07c-.14.14-.14.21-.14.21,0,.07-.07.07-.07.07q.07-.07.07-.14v-.07q.07-.14.14-.21l.14-.21v-.07l.07-.07.07-.14-.07.14q.21-.28.28-.42c.07-.14.14-.21.14-.21q.21-.28.42-.64l.07-.07c0-.07.07-.07.07-.14l.07-.14v-.07c0-.07.07-.07.07-.14.07-.07.14-.21.35-.64.07-.07.14-.21.14-.28l-.07.07c-.42.71-.85,1.49-1.34,2.19-.07.14-.14.28-.21.28,0,0,.07-.07.14-.21.21-.35.5-.78.71-1.2s.5-.85.71-1.27c.5-.85.92-1.77,1.34-2.55.21-.42.5-.85.71-1.27v.07l.21-.35-.14.21-.07.14c-.57.99-1.06,1.84-1.56,2.83-.28.5-.57.92-.78,1.41-.07.14-.14.21-.14.21l.14-.28c.42-.78.92-1.63,1.34-2.48s.92-1.63,1.27-2.26c.14-.28.28-.5.42-.78l-.14.21c.07-.14.21-.35.28-.57l-.07.07c.64-1.06,1.7-2.05,2.48-2.83l.07-.07c.35-.35.64-.71.99-1.2-.14.14-.21.28-.35.42.28-.35.5-.71.78-.99.71-.99,1.41-2.12,1.77-2.69.57-1.06,1.13-2.05,1.77-3.11.35-.5.64-.99.99-1.49l1.06-1.41c.07-.07.14-.21.14-.21,0,0,0,.07-.14.14-.5.71-1.06,1.34-1.49,2.05-.5.71-.92,1.49-1.34,2.19.71-1.27,1.49-2.48,2.4-3.68l.35-.42c.14-.14.21-.28.35-.42,1.06-1.56,1.91-3.11,2.97-4.74.92-1.41,1.77-2.62,3.11-3.61.42-.35.92-.71,1.34-.99.42-.35.85-.71,1.2-1.06.71-.78,1.34-1.7,2.12-2.55.21-.21.42-.42.5-.42s-.14.14-.35.35c-.92.85-1.49,1.84-2.33,2.69s-1.77,1.49-2.76,2.19c-.21.14-.42.42-.71.57-.21.21-.5.42-.64.64l-.57.71-.5.71c-.71.99-1.34,2.05-1.98,3.11-.28.42-.57.92-.85,1.34,0,0,0,.07-.07.14.35-.5.64-.99.92-1.49.85-1.41,1.7-2.9,2.83-4.31.78-.99,1.77-1.56,2.69-2.26.57-.42,1.13-.92,1.63-1.34.5-.5.92-1.13,1.34-1.7,0-.07.07-.07.07-.14l-.07.07c-.64.78-1.2,1.63-1.98,2.26.14-.07.21-.14.21-.14l-.21.21.5-.42c.07-.07.21-.21.21-.14,0,0-.07.07-.14.21-.35.28-.71.64-1.06.92l-1.13.85c-.5.35-.92.71-1.34,1.06-.21.14-.35.42-.57.64s-.35.42-.57.71c.07-.14.14-.21.21-.28l.35-.42c.99-1.27,2.48-2.05,3.75-3.18,1.27-1.06,1.98-2.62,3.4-3.61l.07-.07s-.07,0-.07.07c-.85.57-1.49,1.41-2.05,2.19q-.07.07-.07.14c-1.13,1.56-2.76,2.4-4.17,3.68,1.27-1.13,2.76-1.98,3.89-3.25l.35-.42s.07-.07.07-.14l-.07.07-.07.14c.07-.07.14-.21.28-.28l.14-.14s-.14.21-.35.5c-.5.71-1.2,1.34-1.91,1.84l-.21.14-.21.21c.57-.42,1.06-.85,1.63-1.34.5-.5.92-1.06,1.34-1.56l.14-.14-.14.14c-.35.5-.71.99-1.13,1.41l-.64.64c-.21.21-.42.42-.71.57-.99.78-1.98,1.41-2.83,2.33-.5.64-.99,1.27-1.41,1.98l.14-.28c.78-1.13,1.49-2.05,2.48-2.83s1.98-1.41,2.9-2.33l.07-.07-.07.07c-.92.92-1.84,1.56-2.83,2.33-.42.35-.78.64-1.13.99-.28.35-.64.78-.92,1.13.28-.42.64-.78.92-1.13.35-.35.71-.64,1.06-.99l1.13-.85c.35-.28.78-.57,1.13-.92l.14-.14c.42-.07.64-.21.85-.5q.07-.07,0,0h0ZM34.2,154.37s0-.07.07-.14l.14-.21c-.07,0-.14.21-.21.35ZM32.79,157.06c-.07.07-.07.14-.07.14.07-.07.07-.14.07-.14ZM43.19,140.86c-.57.92-1.06,1.77-1.56,2.69l.35-.64c.42-.71.78-1.34,1.2-2.05ZM33.21,156.14c.14-.21.21-.42.35-.57.07-.14.14-.35.28-.5.21-.42.5-.92.71-1.34,0,.07,0-.07.07-.07l.07-.14c-.28.42-.5.92-.78,1.41-.28.35-.5.78-.71,1.2ZM31.66,158.83c0,.07-.07.07-.07.07l.07-.07ZM32.15,158.55l.14-.21-.14.21Z"/>
        </g>
        <g>
          <path class="cls-5" d="M69.15,123.6v.35c0-.28-.07-.64-.07-1.06.28,1.98.07,4.39-.71,6.58-.78,2.12-1.98,3.96-3.04,5.38-.78.99-1.49,1.77-1.56,1.91-.07.07.57-.57,1.34-1.56.14-.21.35-.42.5-.64,1.06-1.41,2.26-3.25,3.04-5.59-.14.42-.28.92-.5,1.34.14-.28.21-.64.35-.99s.21-.71.35-1.06c0,.07-.07.14-.07.28.35-1.13.57-2.62.5-3.96,0-.64-.07-1.34-.14-1.91-.14-.57-.21-1.06-.28-1.49-.21-.78-.35-1.06-.28-.85s.14.42.21.71c.07.42.14.85.28,1.41,0,.07.07,1.13.07,1.13Z"/>
          <path class="cls-5" d="M68.72,128.06c.21-.71.28-1.41.35-2.05,0-.35,0-.71.07-1.06v-1.34.07c.07.35.07.71.07,1.13s0,.85-.07,1.34c-.07.92-.28,1.91-.57,2.9l-.21.64c-.07.35-.21.5-.21.57s0,0,.14-.28c.07-.28.21-.64.35-.99,0,0,0-.07.07-.14s.07-.21.07-.35c.07-.28.14-.5.14-.5.21-.64.28-1.34.35-2.12,0-.78.07-1.56-.07-2.33-.14-1.49-.5-2.83-.71-3.47-.07-.28,0,0,0,0-.07-.07.28.85.5,2.05.14.64.14,1.2.21,1.63s.07.71.07.78v.64-.5.99c-.07.42-.14.92-.14,1.41v.21c0,.14-.07.28-.07.42-.07.28-.14.64-.14.64l.21-.71s.07-.14.07-.35c.07-.14.07-.35.07-.35v.14c.07-.64.21-1.27.14-1.91v-.99c0-.35-.07-.64-.07-.99v-.28c0-.14-.07-.35-.07-.64-.07-.42-.21-.85-.21-.85-.07-.5-.07-.42,0,.07l.14.78c0-.14-.07-.21-.07-.35.35,1.77.35,3.75,0,5.45-.07.28-.14.57-.21.78-.28.28-.28.21-.21-.07h0Z"/>
          <path class="cls-5" d="M68.72,121.69c-.07-.28-.07-.57-.21-.99,0-.07-.07-.14-.07-.14.07.14.07.35.14.57.14.42.14.57.14.57Z"/>
          <path class="cls-5" d="M68.51,120.56c-.07-.14-.07-.21-.07-.21q0,.07.07.14t0,.07,0,0Z"/>
          <path class="cls-5" d="M25.93,148.78c3.25-4.53,7.5-8.28,11.81-11.74.14-.07.21-.14.28-.21-.07.07-.14.07-.21.21-4.39,3.4-8.56,7.14-11.88,11.74-.07.07-.14.21-.14.21,0,0,.07-.07.14-.21Z"/>
          <path class="cls-5" d="M58.68,123.67q-.14.07,0,0c.14-.07.28-.14.42-.14q.07-.07,0,0c-.14.07-.28.14-.42.14Z"/>
          <path class="cls-5" d="M57.69,124.31c-.71.28-1.34.64-1.98.99-.14.07-.21.14-.35.14.07,0-.07.07-.35.21-4.88,2.62-9.62,6.15-14.36,9.62-.07.07-.14.07-.21.14-.42.28-.99.78-1.63,1.27l-.5.42c-2.05,1.56-3.96,3.18-5.87,4.95-.35.35-.85.78-1.27,1.27-1.56,1.56-3.04,3.18-4.39,5.02.07-.14.14-.14.14-.14,0,.07-.35.42-.71.92l-.5.78c.5-.78.99-1.41,1.56-2.12.07-.07.14-.21.21-.28.64-.71,1.2-1.49,1.91-2.19,2.9-3.18,6.15-5.94,9.41-8.49,1.63-1.27,3.32-2.48,4.95-3.68s3.32-2.4,5.02-3.54c.14-.07.28-.21.35-.28s.07,0-.07.07c-2.12,1.41-4.03,2.83-6.01,4.31s-4.03,2.97-6.3,4.81c-2.69,2.19-5.23,4.46-7.5,7-2.33,2.55-4.31,5.38-5.73,8.56-.35.85-.71,1.7-.92,2.55s-.35,1.77-.07,2.48c.14.35.35.71.64.92s.71.35,1.13.42c.85.14,1.7.07,2.55-.07,1.7-.28,3.4-.92,5.09-1.56,1.7-.71,3.32-1.49,4.95-2.4,8.91-4.88,16.98-10.26,23.91-17.4,1.27-1.34,2.48-2.62,3.4-3.68.85-1.06,1.41-1.84,1.56-2.05s-.28.5-1.2,1.7c.21-.21.35-.5.57-.71,0,0,.21-.28.42-.57s.42-.57.42-.57c.78-1.13,1.27-2.12,1.56-2.83,0,0,0-.07.07-.14s.07-.21.14-.28c.07-.21.14-.5.14-.5.5-1.2.92-3.4.85-4.46v.21-1.91.07c0,.21.14.57.14,1.27v.21c.07-.57,0-.85.07-.42v.64-1.06q-.07-.92-.21-1.77c-.14-.64-.21-1.13-.21-1.13q-.21-.78-.14-.64t.07.14c-.14-.57-.21-.64-.21-.78-.07-.14-.07-.28-.07-.28v-.14l.14.35c0,.07.07.21.07.21.14.42.14.57.21.64.14.42.21.64.21.71v.14l.07.21v.21-.14l.07.42-.07-.5c.21,1.06.21.99.28,1.41s.07.78.07.85v-.07c.07.57.07.85.07,1.13s0,.57-.07,1.06c0,.07,0,.14-.07.28,0,.14-.07.35-.07.5,0,.21-.07.35-.07.57v.14c-.07.21-.07.35-.14.5v.07c-.07.14-.07.35-.14.71-.07.28-.28.71-.42,1.34l-.42.85c.07-.07.07-.14.14-.28s0,0,.07-.07c1.06-2.19,1.49-4.81,1.2-7.43,0-.5-.14-.92-.14-.92,0-.07.07.28.14.71.07.64.14,1.34.14,1.98v1.06c-.07.35-.07.71-.14,1.06-.28,1.41-.71,2.83-1.34,4.1-1.34,2.62-3.25,4.88-5.09,6.79-.92.99-1.98,1.98-2.97,3.04l.14-.14c-.28.28-.57.5-.78.78l-.07.07.64-.57.42-.42c2.33-2.33,4.39-4.39,6.22-7,.99-1.41,1.7-2.69,2.26-4.24l.21-.64c-.07.14-.14.42-.28.78-.5,1.27-1.13,2.55-1.91,3.68-.78,1.2-1.63,2.26-2.55,3.32s-1.84,1.98-2.69,2.9-1.7,1.7-2.55,2.4c-.71.64-1.41,1.34-1.98,1.84.14-.14.28-.28.5-.35-.57.42-.85.71-1.34,1.13l.21-.14c-2.76,2.33-5.87,4.67-8.7,6.44-.14.07-.21.14-.35.21-1.2.78-2.4,1.56-3.89,2.48.5-.28.99-.57,1.49-.92-1.06.64-2.12,1.27-3.25,1.98-1.56.92-3.18,1.84-4.67,2.62s-2.83,1.34-3.75,1.7c-1.63.71-3.25,1.27-4.95,1.63-.85.21-1.77.35-2.62.28-.85,0-1.84-.21-2.55-.92s-.78-1.77-.64-2.62c.14-.92.35-1.77.64-2.55.57-1.63,1.41-3.18,2.33-4.67.21-.28.35-.5.42-.64,0,0-.07.14-.28.5-1.34,2.12-2.48,4.39-3.04,6.86-.07.64-.14,1.27,0,1.98.14.64.57,1.27,1.2,1.63.57.35,1.27.42,1.91.42s1.27-.07,1.91-.14c-1.06.21-2.12.28-3.25,0-.57-.14-1.06-.5-1.41-.99s-.5-1.06-.5-1.63c0-1.13.28-2.19.64-3.18.21-.5.35-.99.64-1.49l.71-1.49c.28-.5.57-.99.85-1.41.28-.5.64-.92.92-1.34,1.56-2.26,3.4-4.31,5.31-6.22s3.96-3.68,6.22-5.45c1.91-1.49,3.68-2.83,5.52-4.17s3.61-2.62,5.66-3.96c2.76-1.91,5.52-3.54,8.42-4.95,2.9-1.34,5.94-2.55,9.27-3.11.85-.21,1.7-.28,1.77-.28.14,0-.57.07-1.41.21-3.47.64-6.72,1.84-9.83,3.32-3.11,1.56-6.01,3.4-8.91,5.31-5.66,4.03-11.46,8.06-16.62,13.16-1.13,1.13-2.19,2.19-3.18,3.4,0,0-.07.14-.21.28,1.06-1.34,2.33-2.62,3.54-3.89,3.04-3.4,6.93-6.37,11.18-9.41,2.9-2.12,5.52-3.96,8.35-5.73,3.54-2.26,7.29-4.17,11.39-5.45.14-.07.28-.07.42-.14.07,0,0,0-.21.07-2.83.85-5.52,2.05-8.21,3.54.42-.21.71-.35.64-.35,0,0-.35.21-.85.5.57-.35,1.2-.64,1.84-.92.21-.07.35-.14.5-.21s.21-.07.21-.07c0,0-.07.07-.21.07-.14.07-.28.14-.5.21-2.48,1.27-4.88,2.69-7.21,4.24-2.76,1.84-5.45,3.82-8.13,5.8.28-.21.57-.42.78-.57.42-.28.85-.64,1.27-.92,3.82-2.76,7.71-5.59,11.95-7.85,4.24-2.26,8.84-4.03,13.72-4.53.14,0,.28,0,.35-.07-.07,0-.14,0-.28.07-2.9.35-5.8,1.06-8.56,2.12q.14-.07,0,0c-.14.07-.28.14-.42.14q-.14.07,0,0c-5.09,2.05-9.69,5.02-14.01,8.13,4.03-2.9,8.21-5.59,12.73-7.57l1.49-.64c.14-.07.35-.14.35-.14.07,0-.07,0-.21.07l-.42.14c.42-.21.85-.35,1.13-.42.14-.07.21-.07.35-.14.07,0,.14-.07.14,0-.07,0-.78.28-1.7.64-2.4.99-4.74,2.19-6.93,3.47-.21.14-.5.28-.71.42l-.71.42c3.4-2.12,7-4.03,10.82-5.23.28-.07.5-.14.64-.21,0,0-.07,0-.14.07-.14.07-.28.07-.42.14-6.72,2.19-12.73,6.37-18.46,10.54-1.91,1.41-3.82,2.83-5.66,4.31.21-.21.5-.35.71-.57,1.56-1.2,3.04-2.33,4.53-3.4s2.9-2.12,4.39-3.18c2.97-2.05,5.94-3.96,9.34-5.59.14-.07.28-.14.35-.14-.07,0-.14.07-.28.14-3.32,1.63-6.15,3.4-9.2,5.52-2.48,1.7-4.81,3.47-7.07,5.09,4.67-3.4,9.05-6.72,14.08-9.48.21-.14.42-.21.57-.28,0,0,.07-.07.14-.07.64-.35,1.34-.71,2.05-.99.14-.07.28-.14.35-.14,0,0-.07,0-.21.07h0ZM63.13,137.25l.07-.07c-.07.14-.21.21-.35.35l-.5.5.78-.78ZM68.01,129.9c.07-.21.14-.35.14-.35-.07.14-.14.28-.14.35ZM22.96,160.24c.71.5,1.49.64,2.26.64s1.56-.07,2.26-.21c1.49-.28,2.9-.78,4.31-1.34-.71.28-1.34.5-2.05.71-1.06.35-2.19.64-3.32.78-.57.07-1.13.07-1.77,0-.57,0-1.2-.14-1.7-.57ZM66.81,132.59c-.42.64-.78,1.2-1.13,1.63-.28.42-.64.85-.99,1.27-.92,1.13-1.91,2.19-2.9,3.25l-.21.21-.35.35c1.06-1.06,2.12-2.19,3.11-3.4.85-.99,1.7-2.19,2.48-3.32ZM68.86,122.26v-.14l.07.28c-.07,0-.07-.07-.07-.14ZM68.72,121.83c0,.07,0,.14.07.21,0-.07-.07-.14-.07-.21ZM69,123.81v-.28.28ZM68.86,125.23v.78-.78Z"/>
        </g>
        <g>
          <path class="cls-5" d="M71.34,122.54c0-.14-.07-.28-.07-.42,0,.14.07.28.07.5s0,.42.07.64c-.07-1.13-.28-2.48-.99-3.47-.35-.5-.85-.92-1.41-1.27-.57-.28-1.2-.42-1.84-.5-2.62-.14-5.09.64-7,1.34-1.34.5-2.55,1.06-2.62,1.13-.14.07.85-.42,2.19-.92.28-.14.64-.21.85-.35.99-.28,2.12-.64,3.32-.85.64-.14,1.27-.14,1.91-.21.35,0,.64-.07.99,0,.35,0,.64,0,.99.14-.14,0-.28-.07-.35-.07h-.42c-.28,0-.5-.07-.78,0,.42-.07.78,0,1.2.07.35.07.78.14,1.2.28-.07-.07-.21-.07-.28-.14.64.21,1.27.57,1.7,1.13.5.57.78,1.27.99,1.98.35,1.41.35,2.9.28,3.82-.07.99-.07,1.27,0,.99,0-.28.14-1.13.14-2.55v-.64c-.07-.35-.14-.64-.14-.64Z"/>
          <path class="cls-5" d="M68.93,118.37c.71.35,1.34.92,1.7,1.56.42.71.64,1.49.71,2.26l.07.28v-.14c-.07-.71-.28-1.7-.92-2.62-.57-.92-1.63-1.49-2.69-1.7,0,0-.21-.07-.42-.07h-.42c-.35-.07-.64,0-.71,0h.35c.14,0,.35,0,.5.07.21,0,.42,0,.71.07l.57.14c.28.14.57.21.57.21.64.28,1.27.85,1.7,1.56s.64,1.63.78,2.48c.21,1.7.07,3.32,0,4.17,0,.14.14-.99.14-2.48s-.28-2.76-.35-2.83c-.07-.21-.14-.5-.21-.71.07.21.14.35.21.57,0-.07-.07-.28-.14-.42-.07-.21-.14-.42-.28-.64-.21-.42-.64-.85-.99-1.2,0,0-.28-.21-.64-.42-.14-.07-.35-.14-.5-.21s-.21-.07-.21-.07c0,0,.78.28.71.35s.14.07.35.21c.14.07.28.21.28.21-.07-.07-.14-.07-.14-.14,1.13.92,1.56,2.33,1.77,3.96,0,0,.07.5.07,1.06v1.06-.99.42c0-1.06-.07-2.12-.35-3.18s-.92-1.98-1.77-2.48c-.28-.21-.64-.35-.78-.35-.14-.14,0-.07.35,0Z"/>
          <path class="cls-5" d="M71.55,124.8c0,.35,0,.71-.07,1.13v.21c0-.21,0-.42.07-.71v-.64Z"/>
          <path class="cls-5" d="M31.44,163.57c2.97-1.41,5.59-3.54,8.28-5.38,1.34-.92,2.69-1.91,4.1-2.9,1.41-.92,2.76-1.84,4.17-2.69.14-.14.28-.21.35-.21-.07.07-.14.07-.28.21-1.41.85-2.76,1.84-4.17,2.69-1.41.92-2.69,1.91-4.1,2.83-2.76,1.84-5.31,4.03-8.28,5.38-.21.07-.28.14-.35.21.07-.07.14-.07.28-.14Z"/>
          <path class="cls-5" d="M69.78,133.01q-.07.14,0,0c.07-.14.14-.35.21-.5s.07-.14,0,0c0,.14-.14.35-.21.5Z"/>
          <path class="cls-5" d="M69.22,134.35c-.42.85-.92,1.56-1.41,2.19-.07.14-.14.28-.21.35,0-.07-.07.14-.28.35-4.03,5.31-9.76,9.69-15.63,13.44-.07.07-.14.07-.21.14-.42.28-1.2.78-2.05,1.34l-.64.42c-2.62,1.63-5.16,3.32-7.64,5.09-.5.35-1.13.78-1.77,1.27-2.12,1.56-4.24,3.18-6.65,4.46.14-.14.21-.14.21-.14-.07.07-.57.35-1.27.64-.35.14-.64.35-.99.5.99-.42,1.98-.92,2.83-1.41.14-.07.28-.14.35-.21.99-.64,1.98-1.27,2.97-1.98,2.12-1.49,4.17-2.97,6.3-4.46,2.12-1.41,4.17-2.76,6.3-4.1,1.06-.64,2.12-1.34,3.11-1.98,1.06-.71,2.05-1.34,3.04-2.05,1.98-1.41,3.96-2.9,5.8-4.53.14-.14.28-.28.42-.35l-.07.07c-2.33,2.05-4.6,3.75-7,5.45-1.27.85-2.48,1.63-3.82,2.48s-2.69,1.7-4.17,2.69l-2.55,1.7c-.85.57-1.7,1.2-2.55,1.77-1.7,1.2-3.32,2.4-5.02,3.61s-3.4,2.4-5.38,3.25c-1.91.85-4.03,1.41-6.22,1.34-1.13-.07-2.26-.35-3.25-.92-.99-.64-1.7-1.63-2.05-2.69s-.42-2.19-.42-3.25c.07-1.06.21-2.19.5-3.25.5-2.12,1.27-4.17,2.26-6.08.5-.99.99-1.98,1.63-2.9.57-.99,1.34-1.84,2.05-2.69,3.75-4.81,8.06-8.98,12.73-12.59.57-.42,1.13-.92,1.77-1.34l1.84-1.27c.64-.42,1.2-.85,1.84-1.27l1.91-1.13c.64-.35,1.27-.78,1.91-1.13l1.98-1.06c1.27-.71,2.62-1.41,3.96-2.12.99-.5,1.98-.99,2.9-1.49.92-.42,1.77-.85,2.55-1.13,1.56-.64,2.69-.92,2.97-.99.14-.07,0,0-.42.14s-1.13.35-1.98.71c.35-.14.71-.28.99-.42l1.7-.5c.78-.21,1.56-.35,2.19-.5.64-.07,1.27-.07,1.7-.14,0,0,.28-.07.64,0,.28,0,.64.07.64.07.78.07,1.91.42,2.69,1.13s1.2,1.7,1.34,2.33l-.14-.28s.14.28.07.28c.28.99.28,1.7.28,1.91v-.07c0-.21-.07-.71-.28-1.56,0,0,0-.07-.07-.28.14.71.21.99.07.5.07.42.07.35-.07-.14-.07-.14-.07-.35-.14-.57.07.21.07.28.14.57.07.21.07.35.07.5v.14q.14,1.13.14,2.05c0,.85-.07,1.34-.07,1.34q-.07.92-.07.78v-.21c-.07.71-.07.78-.07.99s-.07.35-.07.35v.14-.64c.07-.5.07-.64.07-.78l.07-1.06v-.42.14-.5.57-1.7c0-.5-.07-.92-.14-.99v.07c-.07-.64-.21-.92-.28-1.27-.14-.28-.21-.64-.5-1.13-.07-.14-.14-.14-.14-.21-.07-.07-.21-.28-.35-.5-.14-.14-.28-.28-.5-.42-.07,0-.07-.07-.14-.07-.21-.14-.28-.21-.5-.28-.07-.07-.14-.07-.14-.07-.21-.07-.35-.21-.78-.28-.21-.07-.42-.07-.64-.14-.28,0-.57,0-.92-.07-.42,0-.78.07-1.13.07h.5c.35,0,.71-.07,1.06,0h.5c.14,0,.35.07.5.07.35.07.71.21.99.35.28.21.64.35.85.57.57.5.92,1.13,1.13,1.84s.35,1.41.42,2.19c.07.57,0,1.06.07,1.13,0,.07,0-.28-.07-.85-.07-.78-.14-1.56-.42-2.26-.21-.78-.64-1.41-1.2-1.98-.57-.5-1.34-.85-2.19-.99-.42-.07-.85-.07-1.27-.07l-1.27.07c-.21,0-.42,0-.64.07l-.64.14-1.27.28c-.78.28-1.63.5-2.4.78s-1.56.57-2.33.92c-.78.35-1.49.64-2.19,1.06-1.49.71-2.97,1.56-4.46,2.33l.21-.14-1.13.64-.14.07.85-.42c.21-.14.42-.21.64-.35,3.47-1.84,6.58-3.54,10.12-4.6.92-.35,1.84-.42,2.76-.64l1.34-.07c.21,0,.42-.07.71,0,.21,0,.42,0,.71.07.5.07.78.14.71.14s-.5-.14-.92-.14h-.57l-.57.07c-.42,0-.78.07-1.2.07-.42.07-.78.14-1.2.21s-.78.14-1.2.28c-1.56.42-3.11,1.06-4.6,1.7-2.97,1.34-5.66,2.83-7.92,4.03-.99.57-2.05,1.06-2.83,1.56h-.07c.21-.14.42-.21.64-.35-.71.42-1.13.71-1.84,1.06l.28-.14c-.92.57-1.84,1.06-2.76,1.7s-1.84,1.27-2.69,1.84c-.92.64-1.7,1.34-2.55,1.98-.42.35-.85.64-1.2.99s-.78.64-1.13.99c-.14.07-.21.21-.35.28-.64.57-1.27,1.13-1.91,1.77s-1.27,1.27-2.05,1.98c.5-.5.99-.92,1.49-1.41-1.06,1.06-2.12,2.05-3.11,3.25-.71.78-1.49,1.63-2.12,2.4-.64.85-1.34,1.7-1.98,2.48-1.27,1.56-2.12,3.04-2.69,4.03-.92,1.84-1.7,3.75-2.26,5.73s-.92,4.03-.57,6.01c.14.99.5,1.98,1.2,2.69.64.71,1.56,1.2,2.55,1.41s1.98.28,3.04.14c.5,0,.99-.14,1.49-.28l.71-.14.71-.28c.35-.14.64-.21.85-.28.07,0-.21.07-.64.21-.35.14-.71.28-1.06.35l-1.06.21c-.35.07-.71.14-1.06.14s-.71.07-1.06.07c-1.41,0-2.97-.28-4.03-1.27-1.06-.92-1.56-2.4-1.7-3.89-.07-1.49.14-2.97.5-4.39-.28,1.2-.5,2.48-.5,3.68,0,1.27.21,2.48.78,3.54.64,1.06,1.7,1.77,2.9,2.05s2.48.28,3.75.14c.64-.14,1.27-.21,1.91-.42s1.2-.42,1.84-.71c2.97-1.34,5.52-3.32,8.13-5.23,1.34-.92,2.62-1.84,3.96-2.83,1.34-.92,2.76-1.84,4.17-2.76,2.4-1.56,4.67-2.97,6.93-4.46,2.19-1.56,4.39-3.11,6.51-4.95,3.04-2.55,5.66-5.45,7.71-8.63.5-.85.99-1.63,1.34-2.48.21-.42.42-.85.57-1.27l.5-1.34c.57-1.84,1.06-3.68,1.2-5.66.14-1.06.07-1.98.07-2.12v.42c0,.28,0,.78-.07,1.27l-.14,1.56c-.07.5-.14.99-.28,1.49-.07.28-.07.5-.14.78l-.21.71c-.14.5-.21.99-.42,1.49-.64,1.91-1.63,3.75-2.69,5.52-1.13,1.7-2.4,3.32-3.82,4.81s-2.97,2.9-4.53,4.17c-1.63,1.27-3.25,2.55-4.95,3.75s-3.47,2.33-5.23,3.47c-1.77,1.13-3.54,2.26-5.38,3.47-.92.57-1.77,1.2-2.62,1.84s-1.77,1.27-2.62,1.84c-1.56,1.06-2.97,2.19-4.53,3.18h.07s-.14.07-.35.28c1.77-1.13,3.4-2.4,5.16-3.61,4.67-3.54,9.76-6.51,14.93-9.9,3.47-2.4,6.58-4.74,9.41-7.57,1.77-1.77,3.4-3.68,4.74-5.8s2.4-4.39,3.04-6.79c.07-.21.07-.35.14-.5,0-.07,0,.07-.07.21-.85,3.32-2.55,6.58-4.74,9.34.35-.42.57-.71.57-.64s-.28.35-.71.92l.78-.99.71-.99c.28-.35.42-.57.5-.71,0,0-.07.07-.14.21s-.21.28-.35.5c-1.84,2.76-4.17,5.16-6.65,7.36-1.49,1.27-3.04,2.55-4.67,3.75-.78.57-1.63,1.13-2.4,1.7l-2.48,1.63c.42-.21.71-.42.99-.64.5-.35,1.06-.71,1.56-.99,4.6-3.18,9.2-6.79,12.66-11.32,1.77-2.26,3.18-4.81,4.1-7.57s1.34-5.66,1.2-8.56v-.42.35c.14,3.54-.5,7-1.84,10.26q.07-.14,0,0c-.07.14-.14.35-.21.5s-.07.14,0,0c-1.34,2.97-3.25,5.59-5.45,7.99-2.19,2.4-4.67,4.46-7.21,6.37,2.33-1.77,4.6-3.68,6.72-5.8,2.05-2.12,3.89-4.46,5.23-7.07.28-.57.57-1.13.85-1.77.07-.14.14-.35.21-.42,0-.07,0,.07-.07.28-.07.14-.14.35-.21.5.28-.5.42-.99.57-1.27.07-.14.14-.28.14-.35.07-.07.07-.14.07-.14,0,0-.07.28-.21.64s-.28.85-.57,1.41c-1.27,2.83-3.11,5.38-5.23,7.71-.21.28-.42.5-.71.71l-.71.71c3.47-3.32,6.3-7.43,7.78-12.02.07-.35.14-.57.21-.71,0,0,0,.07-.07.21s-.07.28-.14.5c-.64,1.98-1.49,3.96-2.62,5.8-1.13,1.77-2.4,3.47-3.89,5.02-2.9,3.11-6.3,5.8-9.83,8.28-2.33,1.63-4.74,3.11-7.14,4.67.28-.21.64-.42.92-.57,1.98-1.27,3.82-2.48,5.66-3.68,1.77-1.27,3.54-2.55,5.16-3.89s3.25-2.76,4.74-4.31,2.9-3.25,4.1-5.16c.14-.21.21-.28.21-.35,0,0-.07.14-.21.28-1.2,1.84-2.55,3.54-3.96,5.02-1.49,1.56-2.97,2.97-4.67,4.31-2.83,2.33-5.66,4.24-8.49,6.08,2.9-1.84,5.66-3.75,8.28-5.87s5.02-4.46,7.14-7.14c.21-.21.35-.42.5-.64,0,0,.07-.07.07-.14.5-.71,1.06-1.49,1.49-2.26.07-.14.21-.35.28-.42.14-.07.07,0-.07.21h0ZM56.63,120.7c.07,0,.14-.07.14-.07-.14.07-.35.14-.57.28l-.78.35c.07,0,.64-.28,1.2-.57ZM66.67,117.8c.28,0,.5.07.5.07-.21,0-.35-.07-.5-.07ZM19.84,160.24c-.21-1.77.14-3.54.57-5.31.5-1.7,1.13-3.4,1.84-5.02-.35.78-.71,1.56-.99,2.4-.5,1.27-.85,2.55-1.13,3.89s-.42,2.69-.28,4.03ZM63.27,118.37c-.21.07-.42.07-.64.14s-.42.14-.57.14c-.35.14-.71.21-1.06.28-.57.21-1.2.42-1.84.71-.85.28-1.63.71-2.4,1.06-.78.42-1.56.78-2.33,1.13.21-.07-.14.07-.35.21-.21.07-.35.21-.57.28,1.63-.85,3.25-1.7,4.95-2.4.78-.35,1.56-.64,2.4-.92.42-.14.85-.28,1.2-.35.21-.07.42-.14.57-.21.21,0,.42-.07.64-.07ZM71.55,124.1v.14-.35.21ZM71.55,124.66v-.28.28ZM71.41,122.26c0,.14,0,.21.07.35l-.07-.35ZM71.2,120.56s-.07-.21-.21-.42-.21-.42-.21-.42c0,0,.14.21.28.42.07.14.07.28.14.42v.07s0-.07,0-.07Z"/>
        </g>
        <g>
          <path class="cls-5" d="M85.06,121.55c0,.07-.07.21-.07.28.07-.21.14-.5.21-.85-.5,1.63-.85,3.61-.71,5.52s.71,3.68,1.34,5.02c.42.92.92,1.77.92,1.84.07.07-.35-.57-.78-1.56-.07-.21-.21-.42-.28-.64-.57-1.41-1.06-3.18-1.13-5.16,0,.35,0,.78.07,1.2-.07-.28-.07-.57-.07-.85s-.07-.57,0-.92v.21c0-.99.14-2.19.35-3.25.07-.57.28-1.06.42-1.49s.28-.85.42-1.2c.21-.64.35-.85.21-.71-.07.14-.35.78-.71,1.7l-.14.42c0,.21-.07.42-.07.42Z"/>
          <path class="cls-5" d="M84.42,125.23c0-1.2.21-2.33.5-3.47l.07-.21-.07.07c-.28,1.06-.57,2.83-.5,4.46l.07.57c0,.28.07.5.07.5,0,.14-.07-.35-.07-1.13v-.85c0-1.06.21-2.48.57-3.68s.78-2.26.99-2.83c.07-.28,0-.07,0,0,0-.07-.35.64-.71,1.7-.35.99-.57,1.91-.57,1.98-.07.21-.07.35-.14.57,0-.14.07-.28.07-.42-.07.21-.07.5-.14.85s-.07.78-.14,1.13v1.06l.07-.64v-.57.14c.14-1.06.21-2.12.57-3.25,0,0,0-.07.07-.21s.07-.28.14-.5l.28-.71q.14-.35-.07.07l-.21.64c.07-.07.07-.21.07-.28-.5,1.41-.85,3.04-.99,4.53v.64c.07.21.07.14.07-.14h0Z"/>
          <path class="cls-5" d="M85.49,119.99c.07-.21.14-.5.28-.78,0-.07.07-.14.07-.14l-.21.42c-.14.35-.14.5-.14.5Z"/>
          <path class="cls-5" d="M85.84,119.08c.07-.14.07-.21.07-.21q0,.07-.07.21Z"/>
          <path class="cls-5" d="M114.27,147.23c-.85-4.67-3.04-9.05-5.73-13.02-.07-.14-.14-.21-.14-.28,0,.07.07.14.14.21,2.62,4.03,4.81,8.35,5.73,13.09v.28-.28Z"/>
          <path class="cls-5" d="M93.97,119q.07.07,0,0c-.07-.07-.28-.14-.35-.14s-.07,0,0,0c.07.07.21.14.35.14Z"/>
          <path class="cls-5" d="M94.96,119.29c.64.28,1.2.57,1.7.85.07.07.21.14.28.14,0,0,.07.07.28.14,2.05,1.27,3.82,3.11,5.31,5.09.78.99,1.49,2.05,2.26,3.04s1.56,1.98,2.26,3.04l.14.14c.28.35.64.92,1.06,1.41l.35.42c.64.92,1.2,1.84,1.84,2.83l.85,1.49.42.71.35.78c.21.42.42.92.64,1.41.21.42.35.85.57,1.34l.5,1.34c.21.42.28.92.42,1.41s.21.92.35,1.41c0-.14-.07-.21-.07-.21,0,.07.14.5.21.99l.14.78c-.07-.35-.07-.78-.14-1.13l-.28-1.13c0-.14-.07-.21-.07-.28-.07-.42-.21-.85-.28-1.27-.14-.42-.28-.78-.42-1.2-1.27-3.61-3.18-6.79-5.23-9.69-.57-.71-1.06-1.49-1.56-2.19-.57-.71-1.06-1.41-1.63-2.12-1.06-1.41-2.05-2.9-3.18-4.24l-.28-.28c-.07-.07,0-.07.07.07,1.41,1.7,2.62,3.4,3.89,5.09.64.85,1.34,1.7,1.98,2.62.35.5.71.92,1.06,1.41s.64.99.99,1.56c1.63,2.48,3.11,5.16,4.03,7.99.14.35.28.71.35,1.06l.28,1.13.28,1.13.14.57.07.57c.07.78.21,1.49.35,2.26.07.78.14,1.49.21,2.26.07,1.63.07,3.18-.28,4.81-.14.78-.42,1.56-.85,2.26s-1.06,1.34-1.91,1.63c-.85.21-1.7.14-2.48-.14s-1.49-.64-2.19-1.06c-1.34-.85-2.55-1.98-3.68-3.11-3.25-2.97-6.08-6.3-8.7-9.62-1.27-1.7-2.55-3.4-3.75-5.16-1.27-1.77-2.4-3.54-3.68-5.23-.92-1.34-1.7-2.69-2.26-3.82-.14-.28-.21-.5-.35-.78l-.21-.64c-.14-.35-.21-.64-.28-.71-.07-.21.21.5.78,1.7-.14-.21-.21-.5-.35-.71,0,0-.14-.28-.21-.57-.07-.14-.14-.28-.14-.42s-.07-.21-.07-.21c-.07-.28-.14-.57-.28-.85-.07-.28-.14-.5-.14-.78-.14-.5-.14-.92-.21-1.2,0,0,0-.21-.07-.42v-.42c-.07-1.2.07-3.11.35-4.03v.21l.07-.21c.14-.71.35-1.2.35-1.34v.07c0,.14-.14.5-.21,1.13v.21c.14-.5.21-.71.14-.35.07-.28.07-.21,0,.14,0,.14-.07.28-.07.42.07-.14.07-.21.07-.42,0-.14.07-.28.07-.35v-.14q.21-.78.42-1.41c.21-.5.35-.92.35-.92.28-.64.28-.57.28-.5l-.07.14q.21-.5.28-.64c.07-.14.07-.21.07-.21l.07-.07-.14.28c0,.07-.07.14-.07.14-.14.35-.21.42-.21.5-.14.35-.21.5-.28.57v.07l-.07.14-.07.14.07-.07-.14.35.14-.42q-.28.85-.42,1.2c-.07.35-.21.64-.21.71-.14.42-.14.71-.21.92s-.14.42-.14.92v.21c0,.14,0,.28-.07.42,0,.14-.07.35-.07.5v.57c0,.28,0,.71.07,1.77.07.28.07.57.14.78v-.28c-.28-1.98-.07-4.24.57-6.3.07-.35.21-.71.28-.78,0-.07-.07.21-.21.57-.28,1.06-.57,2.19-.64,3.4s-.07,2.4.21,3.61c.21,1.2.64,2.4,1.06,3.47.5,1.13,1.06,2.19,1.7,3.11.28.5.64.99.99,1.49l1.06,1.49-.07-.14.5.78.07.07-.42-.57-.28-.42c-1.7-2.26-3.04-4.46-3.96-6.93-.5-1.34-.71-2.62-.78-3.96v-.57c0,.14,0,.42.07.71.14,2.26.99,4.6,2.12,6.65.57,1.06,1.2,1.98,1.77,2.9.28.42.64.85.92,1.27s.57.85.85,1.2c.5.71.92,1.34,1.34,1.91-.07-.14-.21-.28-.28-.42.35.5.57.78.85,1.27l-.14-.21c1.77,2.55,3.75,5.23,5.59,7.5.07.07.14.14.21.28.78.99,1.63,1.91,2.62,2.97-.35-.35-.64-.71-.99-1.13.71.78,1.41,1.56,2.19,2.4,2.19,2.19,4.6,4.67,5.94,5.59,1.2.85,2.55,1.63,3.96,1.49.14,0,.35-.07.5-.07s.35-.14.5-.14c.28-.14.57-.35.78-.64.5-.5.78-1.2.99-1.91.42-1.41.5-2.9.5-4.39s-.14-2.97-.35-4.46c0-.28-.07-.5-.07-.64,0,0,0,.14.07.5l.21,1.56c.07.57.07,1.06.14,1.63.07,1.06.07,2.12,0,3.18s-.21,2.12-.64,3.11c-.35.99-1.06,1.91-2.05,2.19.85-.21,1.41-.92,1.84-1.7s.64-1.7.71-2.55c.21-1.77.14-3.68,0-5.52,0-.5-.14-.92-.21-1.41s-.14-.92-.21-1.41c-.07-.57-.21-1.13-.35-1.7l-.42-1.7-.57-1.63c-.21-.57-.35-1.13-.64-1.63-.5-1.06-.99-2.12-1.56-3.11-.28-.5-.57-1.06-.92-1.56s-.64-.99-.99-1.49c-1.13-1.7-2.33-3.25-3.54-4.81s-2.26-3.18-3.54-4.74c-.92-1.13-1.84-2.12-2.9-3.11-1.06-.92-2.19-1.63-3.47-2.26l-.42-.21-.5-.21c-.35-.14-.64-.28-.99-.35-.64-.14-1.34-.35-1.98-.5-1.34-.28-2.76-.35-4.17-.35h-1.56,1.2c1.49,0,2.97.07,4.46.35.71.07,1.41.28,2.12.5.71.28,1.41.5,2.05.85.64.28,1.27.71,1.91,1.13.57.42,1.2.85,1.7,1.41,1.13.99,2.05,2.12,2.97,3.32s1.77,2.4,2.69,3.61,1.84,2.4,2.76,3.68l.64.92.64.99c.42.64.85,1.27,1.2,1.91s.78,1.34,1.13,1.98c.35.71.64,1.41.99,2.12.28.57.5,1.27.71,1.84.21.64.5,1.2.64,1.91,0,0,.07.14.07.35-.14-.71-.42-1.41-.71-2.12s-.5-1.41-.85-2.12c-1.7-3.82-4.17-7.29-6.93-10.89-1.84-2.48-3.4-4.81-5.38-6.86-2.55-2.62-5.87-4.24-9.48-4.6-.14,0-.28,0-.35-.07h.14c.64.07,1.27.21,1.84.28.28.07.64.14.92.21s.64.14.92.28l.92.35.85.42c.57.28,1.13.64,1.7.99-.35-.21-.57-.35-.5-.35,0,0,.28.14.71.42-.5-.28-.99-.64-1.49-.92l-.42-.21c-.07-.07-.14-.07-.14-.07,0,0,.07,0,.14.07l.42.21c2.19,1.06,3.89,2.83,5.45,4.67.92,1.13,1.77,2.26,2.62,3.47s1.7,2.33,2.62,3.47c-.21-.28-.35-.5-.5-.71-.28-.35-.57-.71-.78-1.06-1.27-1.63-2.4-3.32-3.68-4.95-1.27-1.56-2.76-3.11-4.53-4.24-.42-.28-.85-.57-1.34-.78-.42-.21-.92-.5-1.41-.64l-.71-.28c-.28-.07-.5-.14-.78-.21l-.78-.21-.78-.14c-2.05-.35-4.17-.35-6.3-.35h-.28.28c2.55,0,5.09,0,7.57.64-.07,0-.14,0,0,0s.28.07.35.07c.14,0,.07,0,0,0,1.13.28,2.19.78,3.25,1.34.5.28.99.57,1.49.92.42.35.92.71,1.34,1.13,1.7,1.56,3.18,3.4,4.53,5.23-1.27-1.7-2.55-3.47-4.1-4.88-1.56-1.49-3.4-2.62-5.38-3.4-.42-.21-.92-.28-1.34-.42-.14,0-.28-.07-.35-.07,0,0,.07,0,.21.07l.35.07c-.42-.07-.71-.21-.99-.28s-.42-.07-.42-.07c0,0,.21,0,.5.07s.64.14,1.06.28c1.06.28,2.12.78,3.11,1.27.5.28.99.57,1.41.85.42.35.92.71,1.34,1.06l.57.5c.21.14.35.35.57.5-1.2-1.27-2.62-2.33-4.17-3.11-1.56-.85-3.25-1.34-4.95-1.56-.28-.07-.57-.07-.57-.07,0,0,.21,0,.5.07,1.49.21,3.04.64,4.39,1.27,1.41.64,2.69,1.56,3.82,2.55,2.33,2.05,4.1,4.67,5.87,7.14,1.27,1.63,2.48,3.25,3.68,4.95l-.42-.64c-.5-.71-.99-1.34-1.49-2.05-.5-.64-.99-1.27-1.49-1.91-.99-1.27-1.84-2.55-2.76-3.75s-1.91-2.4-3.11-3.47c-.57-.57-1.2-.99-1.84-1.49-.71-.42-1.34-.85-2.12-1.2-.14-.07-.21-.14-.28-.14,0,0,.07.07.21.14.71.35,1.41.78,2.05,1.2.35.21.64.5.92.71s.57.5.85.78c1.13.99,2.12,2.19,3.11,3.47.78,1.06,1.56,2.05,2.26,3.11.78.99,1.49,1.98,2.26,2.97-.78-.99-1.49-1.98-2.26-2.97-.71-.99-1.41-1.98-2.19-2.97-1.49-1.91-3.11-3.82-5.23-5.16-.21-.14-.35-.21-.5-.28l-.07-.07c-.5-.35-1.13-.64-1.77-.92-.14-.07-.21-.07-.35-.14.14-.42.21-.42.35-.35h0ZM86.97,134.07c0-.07-.07-.07-.07-.14.07.14.14.21.21.35l.28.5c0,.07-.21-.35-.42-.71h0ZM84.35,127v-.35.35ZM114.27,157.77c-.21.64-.5,1.2-.92,1.63-.21.21-.42.42-.71.57s-.57.21-.85.28c-1.2.21-2.48-.35-3.54-.99.57.35,1.06.57,1.7.78.92.28,1.91.35,2.69-.07s1.34-1.27,1.63-2.19ZM84.92,129.4c.21.64.35,1.13.57,1.63.14.42.35.85.57,1.27.57,1.13,1.2,2.26,1.91,3.25-.07-.14.07.14.14.21l.28.35c-.71-1.06-1.41-2.19-2.05-3.4-.57-.99-1.13-2.19-1.41-3.32ZM85.27,120.42q0-.07.07-.07l-.07.21v-.14ZM85.41,120.07c0,.07-.07.14-.07.14,0,0,0-.07.07-.14ZM84.85,121.69c0-.07.07-.14.07-.21l-.07.21ZM84.42,122.82s0,.14-.07.35v.35c-.07,0,.07-.71.07-.71Z"/>
        </g>
        <g>
          <path class="cls-5" d="M83.15,119.64c-.07.14-.07.21-.14.35.07-.28.14-.57.28-.99-.64,1.91-1.13,4.24-1.06,6.51,0,2.26.57,4.39,1.13,6.01.21.57.42,1.13.57,1.56.21.42.28.71.35.71.07.07-.28-.71-.71-1.91-.07-.28-.21-.57-.28-.78-.5-1.7-.99-3.82-.92-6.22v1.41c-.07-.35,0-.71,0-1.06v-1.06.28c.07-1.2.28-2.55.57-3.82.14-.64.35-1.27.5-1.77.21-.5.35-.99.5-1.41.28-.78.42-.99.28-.78-.07.14-.14.35-.28.64-.14.35-.28.85-.5,1.34,0,0-.07.21-.14.5-.07.21-.14.5-.14.5h0Z"/>
          <path class="cls-5" d="M82.23,123.96c0-.71.14-1.41.28-2.05.14-.71.28-1.34.5-1.98l.07-.28-.07.07c-.35,1.2-.78,3.32-.78,5.31v1.34-1.34l.07-1.06c0-.64.14-1.34.28-2.12.14-.71.28-1.49.57-2.19.42-1.41.92-2.69,1.2-3.4.14-.28,0-.07,0,0,.07-.07-.42.78-.78,1.98-.42,1.2-.71,2.26-.71,2.33-.07.21-.07.42-.14.64.07-.14.07-.35.14-.5-.07.28-.14.57-.21.99s-.14.92-.21,1.34v.64c0,.35-.07.64-.07.64l.07-.71v-.35c0-.14.07-.35.07-.35v.14c.07-.64.14-1.27.28-1.84.07-.28.14-.64.21-.92.07-.35.21-.64.28-.99,0,0,0-.07.07-.28.07-.14.14-.35.21-.57l.28-.85q.14-.42-.07.07l-.28.71c.07-.14.07-.21.14-.35-.64,1.7-1.13,3.54-1.27,5.38,0,.28-.07.57-.07.78-.07.21-.07.07-.07-.21h0Z"/>
          <path class="cls-5" d="M83.65,117.73c.14-.28.21-.57.35-.92.07-.07.07-.14.07-.14-.07.14-.14.35-.21.5-.14.42-.21.57-.21.57Z"/>
          <path class="cls-5" d="M84.07,116.67c.07-.14.07-.21.07-.21,0,.07-.07.07-.07.14q.07,0,0,.07t0,0Z"/>
          <path class="cls-5" d="M115.97,147.16c-1.41-5.45-3.89-10.61-7.07-15.28-.07-.14-.14-.21-.21-.28,0,.07.07.14.14.28,3.25,4.6,5.73,9.76,7.14,15.28,0,.07.07.21.07.28.07,0,0-.14-.07-.28Z"/>
          <path class="cls-5" d="M90.37,115.47c.14.07.14,0,0,0s-.35-.07-.5-.07-.14,0,0,0c.21.07.35.07.5.07Z"/>
          <path class="cls-5" d="M91.57,115.68c.35.14.71.28,1.06.35.14.07.35.14.5.21s.28.14.5.21c.14.07.21.14.35.14-.07,0,.07.07.35.14,2.55,1.27,4.81,3.18,6.93,5.23,1.06,1.06,2.05,2.19,3.04,3.32s1.98,2.26,2.9,3.47c.07.07.07.14.14.21.28.42.78,1.06,1.27,1.7l.35.5c.71,1.13,1.41,2.19,2.12,3.32l.92,1.7c.35.57.64,1.13.92,1.77.21.5.5,1.06.78,1.63.5.99.85,2.12,1.27,3.11.42,1.06.71,2.19,1.06,3.25-.07-.14-.07-.21-.07-.21,0,.07.14.57.35,1.13.07.28.14.64.21.92l-.14-.64-.21-.64-.35-1.27c-.07-.14-.07-.21-.07-.35-.28-.99-.64-1.91-.99-2.83-1.63-4.17-3.75-7.99-6.22-11.46-.64-.85-1.27-1.7-1.91-2.55-.71-.78-1.34-1.63-2.05-2.4-1.34-1.63-2.76-3.11-4.24-4.6-.07-.07-.28-.21-.35-.28l.07.07c1.91,1.77,3.54,3.61,5.16,5.52.85.99,1.7,1.91,2.48,3.04.42.57.85,1.06,1.2,1.63s.78,1.2,1.2,1.84l.71,1.13c.21.35.42.78.64,1.13l1.27,2.33c.78,1.63,1.56,3.18,2.12,4.81.71,1.63,1.13,3.4,1.63,5.09.35,1.77.78,3.47.99,5.31.21,1.91.21,3.82-.14,5.66s-1.2,3.68-2.83,4.81c-.78.57-1.77.92-2.69.99-.99.07-1.91-.07-2.83-.35-1.84-.57-3.47-1.63-5.02-2.76-4.24-3.11-7.78-6.79-10.82-10.82-1.49-2.05-2.9-4.1-4.24-6.3l-.99-1.63c-.28-.57-.64-1.13-.92-1.63-.64-1.13-1.2-2.19-1.84-3.32-.92-1.7-1.63-3.4-2.12-4.74-.28-.64-.42-1.27-.57-1.7s-.21-.78-.21-.85c-.07-.28.14.57.71,2.05-.14-.28-.21-.57-.28-.92,0,0-.14-.35-.21-.71-.14-.35-.21-.71-.21-.71-.35-1.34-.42-2.55-.5-3.32v-.99c0-1.41.28-3.61.64-4.67l-.07.28.07-.28c.21-.85.42-1.41.5-1.63v.07c0,.21-.14.64-.35,1.27,0,0,0,.07-.07.21.14-.57.28-.85.14-.35.14-.35.07-.28,0,.14,0,.14-.07.35-.14.5.07-.21.07-.28.14-.5.07-.35.14-.57.14-.57q.28-.92.57-1.7c.21-.64.42-1.06.42-1.06l.28-.57c0,.07-.07.07-.07.14.28-.57.28-.64.35-.78l.14-.28.07-.14-.14.35c-.07.07-.07.21-.07.21-.14.35-.21.5-.28.57l-.35.78-.07.21-.07.21.07-.14-.14.42.21-.5q-.35.99-.5,1.41c-.14.42-.21.78-.21.85v-.07c-.14.57-.21.78-.28,1.06s-.14.57-.21,1.06c0,.07,0,.14-.07.28,0,.14-.07.35-.07.5l-.07.57v.71c0,.14,0,.35-.07.71v1.41c0,.35.07.64.07.92v-.42c-.21-2.4.14-5.02.92-7.43.14-.42.28-.85.28-.92s-.07.28-.21.71c-.35,1.27-.71,2.55-.92,3.96-.14,1.41-.21,2.83,0,4.31.21,1.41.5,2.9.99,4.24s.99,2.69,1.56,3.89c.64,1.27,1.27,2.55,1.98,3.82l-.07-.21.57.99.07.07-.42-.71-.28-.5c-1.63-2.9-2.9-5.59-3.75-8.7-.42-1.63-.64-3.11-.64-4.74v-.64.85c0,2.69.85,5.52,1.91,8.06s2.4,4.88,3.4,6.79c.5.85.92,1.7,1.34,2.4v.07c-.07-.21-.21-.35-.28-.5.35.64.57.99.92,1.56l-.14-.21c1.91,3.11,4.17,6.37,6.37,8.98.07.07.14.21.21.28.5.57.99,1.06,1.49,1.63s1.06,1.13,1.7,1.77c-.21-.21-.42-.42-.64-.57-.21-.21-.42-.42-.57-.64l.64.71.71.64c.5.42.92.85,1.41,1.34.64.64,1.41,1.2,2.12,1.77s1.41,1.13,2.12,1.63c1.41.99,2.69,1.63,3.61,1.98,1.63.64,3.47.85,4.95.07,1.56-.71,2.55-2.33,3.04-3.96s.57-3.47.5-5.16c-.07-.85-.14-1.77-.28-2.62s-.35-1.7-.5-2.62c-.07-.35-.14-.57-.14-.71,0-.07.07.21.14.57.21,1.2.57,2.48.71,3.75s.21,2.55.21,3.75c-.07,1.27-.28,2.55-.71,3.68s-1.13,2.26-2.19,2.97c.85-.57,1.49-1.41,1.98-2.4.42-.92.71-1.98.85-3.04.28-2.12.07-4.31-.28-6.44-.14-.57-.21-1.13-.35-1.63-.14-.57-.21-1.06-.35-1.63-1.34-5.45-3.68-10.33-6.79-15.14-.64-1.06-1.34-1.98-2.05-2.9-.64-.92-1.41-1.84-2.19-2.69-1.49-1.77-2.97-3.54-4.74-5.16-2.48-2.33-5.09-4.31-8.13-5.45-1.49-.64-3.11-.85-4.67-.5s-3.04,1.13-4.31,2.19c-.71.57-1.27,1.13-1.41,1.2-.07.07.35-.42,1.06-.99,1.34-1.13,2.83-2.05,4.53-2.4s3.47-.14,5.02.57l.64.21.57.28,1.2.57c.35.21.71.5,1.13.71.35.21.78.42,1.06.71.71.57,1.41,1.06,2.05,1.63l.99.85.92.92c1.27,1.2,2.4,2.55,3.54,3.96.57.71,1.13,1.34,1.7,2.05s1.06,1.41,1.63,2.12c2.05,2.9,4.03,6.01,5.52,9.41.14.35.35.71.5,1.06l.42,1.13c.28.71.57,1.49.85,2.19v-.07s.07.14.14.35c-.21-.85-.64-1.63-.92-2.48l-.5-1.27-.57-1.2c-2.05-4.53-4.81-8.7-8.21-12.73-1.13-1.41-2.26-2.69-3.47-3.96-1.2-1.2-2.4-2.4-3.75-3.4-1.63-1.34-3.47-2.48-5.45-3.18-.5-.14-.99-.35-1.49-.5s-1.06-.21-1.56-.21c-1.06-.07-2.12.14-3.11.5-.14.07-.28.14-.35.14s0,0,.21-.07c.71-.28,1.41-.5,2.12-.57s1.49-.07,2.19.07c1.49.28,2.9.92,4.24,1.63-.42-.21-.71-.35-.64-.35s.35.14.92.42c-.64-.28-1.2-.64-1.84-.92-.21-.07-.35-.14-.5-.21s-.21-.07-.21-.07c0,0,.07,0,.21.07s.28.14.5.14c2.62,1.13,4.88,2.83,7,4.74,2.48,2.33,4.6,4.95,6.79,7.57-.28-.35-.5-.64-.64-.78-.35-.42-.71-.78-.99-1.2-1.56-1.84-3.11-3.68-4.88-5.38-1.77-1.63-3.68-3.18-5.87-4.31l-.85-.42c-.28-.14-.57-.28-.85-.35-.57-.21-1.13-.42-1.77-.57-1.2-.28-2.48-.35-3.61-.07-1.2.28-2.33.78-3.32,1.49-1.06.71-1.98,1.49-2.83,2.33l-.28.28.21-.21c1.06-1.06,2.19-2.05,3.47-2.76,1.27-.78,2.76-1.27,4.24-1.27q-.14,0,0,0h.5q.14,0,0,0c.71,0,1.34.14,2.05.35.64.21,1.34.42,1.98.71s1.27.64,1.84.92l1.77,1.13c2.26,1.63,4.24,3.54,6.01,5.52-1.7-1.91-3.54-3.68-5.52-5.16-2.05-1.49-4.24-2.76-6.72-3.32-.57-.14-1.06-.14-1.63-.14h-.42.71-.64c-.21,0-.35,0-.57.07-.14,0-.21,0-.35.07h-.14c.07,0,.85-.21,1.84-.14,1.34,0,2.62.57,3.82,1.06l1.77.92,1.7,1.06c.21.14.42.35.71.5l.71.5c-1.56-1.34-3.4-2.4-5.23-3.18l-1.49-.5c-.5-.14-.99-.28-1.49-.28-.99-.14-2.05,0-3.04.28-.28.07-.5.14-.64.21,0,0,.07,0,.14-.07.14-.07.28-.07.42-.14,1.77-.5,3.68-.42,5.31.28,1.77.57,3.32,1.56,4.81,2.55,2.97,2.12,5.52,4.81,7.85,7.64.78.92,1.63,1.84,2.33,2.76l1.06,1.49,1.06,1.49c-.14-.28-.35-.57-.5-.78-.57-.78-1.2-1.56-1.77-2.33-.78-1.2-1.49-1.91-2.05-2.62-.64-.71-1.2-1.41-1.84-2.12s-1.2-1.34-1.91-1.98c-.64-.64-1.27-1.27-1.98-1.91-.35-.28-.71-.64-1.06-.92l-1.13-.85c-.35-.28-.78-.57-1.13-.78-.42-.28-.78-.5-1.2-.78l-1.27-.64c-.21-.07-.42-.21-.64-.28l-.71-.21c-.14-.07-.28-.07-.35-.14,0,0,.07,0,.28.07.92.28,1.7.78,2.55,1.13.42.21.78.5,1.13.71.35.28.78.5,1.13.78.71.57,1.41,1.06,2.12,1.7.35.28.71.57,1.06.92l.99.99c1.13,1.06,2.12,2.26,3.04,3.4s1.91,2.19,2.83,3.4c-.92-1.2-1.84-2.26-2.76-3.4s-1.91-2.19-2.9-3.18c-2.05-2.05-4.24-3.96-6.79-5.31-.21-.14-.42-.21-.64-.28,0,0-.07-.07-.14-.07-.64-.35-1.41-.57-2.19-.85-.14-.07-.28-.14-.42-.14.07-.21.14-.14.28-.07h0ZM84.42,134.57c0-.07-.07-.07-.07-.14.07.14.14.28.21.5l.28.64c.07,0-.14-.5-.42-.99h0ZM82.09,125.94v-.42.42ZM116.61,159.46c-.28.71-.57,1.41-.99,1.98s-.99,1.13-1.63,1.49-1.34.57-2.12.64c-.71.07-1.49-.07-2.19-.21.71.14,1.41.28,2.12.21,1.13-.07,2.19-.5,3.04-1.27.85-.71,1.41-1.7,1.77-2.83ZM82.58,128.91c.21.78.28,1.41.5,1.98.14.5.35,1.06.57,1.56.5,1.41,1.13,2.76,1.84,4.03l.14.28c.07.14.14.35.28.5-.71-1.41-1.41-2.76-1.98-4.24-.64-1.34-1.06-2.83-1.34-4.1ZM83.43,118.3q0-.07.07-.14l-.07.28v-.14ZM83.58,117.8c0,.07-.07.14-.07.21,0-.07.07-.14.07-.21ZM82.94,119.78c.07-.14.07-.21.07-.28l-.07.28ZM82.37,121.13l-.14.78s.14-.85.14-.78Z"/>
        </g>
        <path class="cls-4" d="M107.55,157.34c.5,3.75-.21,5.45-1.2,8.98-.71,2.33-3.75,7.78-.21,8.7s4.03-5.87,4.03-7.99c.21-2.83-1.2-5.66-2.12-8.28"/>
        <g>
          <path class="cls-5" d="M107.91,158.62v.14-.28c.07,1.13,0,2.69-.14,3.68-.07.35-.14.64-.14.71,0,0,.07-.21.14-.57,0-.07,0-.14.07-.21.07-.5.21-1.13.21-1.84v.42c0-.21,0-.42.07-.64v.07c0-.71,0-1.63-.07-2.12s-.07-.28,0,.35l-.14.28h0Z"/>
          <path class="cls-5" d="M107.91,159.89v-1.27c0,.35.07.99.07,1.56v.42c0,.07,0-.14.07-.35v-1.56c-.07-.42-.07-.85-.14-.99v.64c.07.35.07.71.07.71v.21-.14,1.06s.07-.21,0-.21v-.21.07c0-.35,0-.71-.07-1.13l-.07-.5v.21-.07c.07.5.07,1.06.07,1.56v.21c-.07-.14,0-.14,0-.21h0Z"/>
          <path class="cls-5" d="M108.9,173.12c.64-1.41.85-2.97.99-4.6v-.07.07c-.14,1.63-.42,3.18-.99,4.6l-.07.07.07-.07Z"/>
          <path class="cls-5" d="M109.04,161.66s.07,0,0,0q0-.07-.07-.14t.07.14Z"/>
          <path class="cls-5" d="M109.32,161.87c.07.21.14.35.21.57v.07l.07.07c.42,1.34.78,2.83.71,4.39v1.41c-.07.71-.14,1.49-.28,2.19,0,.14-.07.35-.07.5-.14.64-.28,1.27-.5,1.84v-.07s-.07.14-.14.35l-.14.21c.14-.21.21-.5.28-.71,0,0,0-.07.07-.07.07-.28.21-.57.28-.85.42-1.63.57-3.25.57-4.88v-1.2c-.07-.35-.07-.78-.14-1.13v-.14c.14.42.14.85.21,1.2.07.42,0,.78,0,1.2,0,.64,0,1.27-.07,1.98-.07.99-.21,1.98-.5,2.97s-.64,1.98-1.41,2.76c-.42.42-1.06.64-1.63.64-.28,0-.57-.07-.85-.14-.28-.14-.57-.21-.78-.35-.28-.14-.42-.42-.64-.64-.14-.28-.28-.57-.28-.85-.14-.57-.07-1.13,0-1.7.28-1.49.78-2.83,1.34-4.17.28-.64.5-1.27.64-1.98.21-.71.35-1.34.57-2.05.28-.99.42-1.98.5-2.12,0-.07,0,.14-.07.57,0-.07.07-.14.07-.28l.07-.42c.07-.35.14-.71.14-.92v-.28c.07-.35.07-.99.07-1.27v.07-.57c0,.07.07.14.07.35v.07c0-.14,0-.28.07-.14v.21-.28q0-.28-.07-.5v-.57.07-.35.92-.14q0,.28.07.42v2.19-.07c.07-.71.07-1.41,0-2.19v-.28.21c.07.78.07,1.56,0,2.4s-.21,1.7-.42,2.4c-.07.42-.21.78-.28,1.2v-.07l-.07.28.07-.21c0-.07,0-.14.07-.14.28-.92.5-1.7.64-2.62,0-.21.07-.42.14-.71,0-.21.07-.5.07-.71v-.21.21c-.07,1.56-.57,3.32-.92,4.46-.07.21-.14.42-.21.71l.07-.14c-.07.14-.07.35-.14.5v-.07c-.28.99-.71,2.05-1.06,2.9l-.07.07c-.14.42-.28.85-.42,1.2.07-.14.14-.28.14-.42-.14.35-.21.64-.35.99-.28.99-.42,2.05-.35,2.55s.28.85.57,1.2c.21.14.35.28.57.35l.35.14c.14,0,.21.07.35.07.92.14,1.7-.5,2.12-1.34,0-.07.07-.07.07-.21,0,0,0,.07-.07.14-.28.57-.78,1.13-1.41,1.34s-1.34,0-1.84-.35c.42.28,1.06.5,1.56.42.57-.07,1.06-.42,1.41-.92.07-.14.14-.28.28-.35l.21-.42c.64-1.41.85-2.9.99-4.46.07-.64.07-1.2.07-1.77v-1.06c-.07-.35-.07-.71-.14-1.06-.35-1.84-1.06-3.47-1.77-5.23-.07-.21-.14-.5-.14-.5,0,0,.07.14.14.35.5,1.2.99,2.4,1.34,3.68.35,1.2.64,2.55.57,3.82,0,1.34-.14,2.69-.42,4.1-.07.42-.21.85-.35,1.27v.14c.14-.5.28-.92.35-1.41.28-1.27.35-2.62.35-4.03v-.92c0-.21-.07-.5-.07-.71,0-.5-.14-.92-.21-1.41-.28-1.13-.71-2.26-1.13-3.4q0-.07-.07-.14v.07c.28.78.64,1.56.92,2.4-.07-.14-.07-.21-.07-.21,0,0,.07.07.07.28-.07-.21-.14-.35-.21-.57-.07-.14-.07-.21-.07-.21,0,0,.07.07.07.21.28.78.5,1.49.64,2.26.07.35.07.78.14,1.2v1.7-.71c.07-1.34-.21-2.69-.64-4.03-.42-1.27-.99-2.62-1.49-3.89v-.07.07c.28.78.57,1.56.92,2.33q0,.07.07.14c.57,1.49,1.06,2.97,1.13,4.46-.07-1.41-.5-2.76-.99-4.1l-.14-.42s0-.07-.07-.14v.07l.07.14c-.07-.28-.14-.42-.14-.42,0,0,.07.21.21.5.28.71.5,1.41.71,2.12l.07.21c0,.07.07.14.07.21-.28-1.13-.64-2.19-1.06-3.25-.07-.07-.07-.14-.07-.14,0,0,0,.07.07.14.71,1.84,1.49,3.82,1.41,5.94v2.05-.28c0-.5.07-.92.07-1.34.07-1.7-.35-3.25-.92-4.88v-.07.07c.35.99.64,1.91.78,2.97,0,.35.07.64.07.99v1.56-.64c.14-1.49-.21-2.9-.64-4.24q0-.07-.07-.21v-.07c.21.28.14.07.07-.21-.07-.07,0,0,0,0h0ZM107.41,162.93v.07l-.07.21c0,.07,0-.14.07-.28ZM107.77,160.46v-.14.14ZM106.42,174.96c-.78-.14-1.56-.64-1.7-1.49.07.21.14.35.21.57.28.5.92.78,1.49.92h0ZM107.77,161.3c0,.21-.07.35-.07.57,0,.14-.07.28-.07.5-.07.42-.21.85-.28,1.2v.07l-.07.14c.14-.42.21-.85.35-1.27,0-.42.07-.85.14-1.2h0ZM107.84,158.69v-.07.07ZM107.63,159.04l.07.21-.07-.21Z"/>
        </g>
        <path class="cls-4" d="M110.88,186.34c-.92,3.04.92,4.24,1.2,7.07.21,2.12-.21,6.58-3.54,5.66-2.62-.71-2.12-4.74-1.63-6.58.71-3.04,1.63-5.16,4.46-6.37"/>
        <g>
          <path class="cls-5" d="M110.88,187.41v.07c0-.07,0-.14.07-.21-.07.21-.07.5-.07.71v.35c0,.14.07.21.07.35.07.5.28.99.42,1.34.07.28.21.5.21.5l-.14-.42c0-.07-.07-.07-.07-.14-.14-.35-.28-.85-.28-1.34l.07.28c0-.14-.07-.35-.07-.42v.07c-.07-.28,0-.57,0-.85s.07-.57.14-.71c.07-.35,0-.21-.14.28l-.21.14h0Z"/>
          <path class="cls-5" d="M110.81,188.4c0-.35,0-.64.07-.92v-.07.57c0,.21,0,.42.07.64v.28-.28l-.14-.21c.07-.28.07-.64.07-.99.07-.35.14-.64.14-.78s-.07.21-.14.5c0,.14-.07.21-.07.35v.28-.14.85-1.13l.07-.42-.07.14v-.07c-.14.42-.07.85-.14,1.2.07.14.14.21.14.21h0Z"/>
          <path class="cls-5" d="M110.88,186.98c0-.07,0-.14.07-.21v-.07.14c-.07.07-.07.14-.07.14h0Z"/>
          <path class="cls-5" d="M106.35,196.6c-.21-1.34-.07-2.69.28-3.96v-.07.07c-.35,1.27-.5,2.62-.28,3.96v.07-.07Z"/>
          <path class="cls-5" d="M109.18,187.41c.07,0,.07-.07.07-.07q0,.07-.07.07Z"/>
          <path class="cls-5" d="M109.11,187.76c-.14.14-.21.28-.35.35,0,0,0,.07-.07.07l-.07.07c-.78,1.06-1.2,2.33-1.56,3.68v.07c0,.07-.07.28-.14.5l-.07.14c-.14.57-.21,1.2-.28,1.77v.42c0,.5,0,.99.07,1.56v-.07s0,.14.07.28v.21c0-.21-.07-.42-.07-.57v-.78c0-.99.14-1.98.35-2.9s.42-1.84.85-2.76q0-.07.07-.07c-.5,1.06-.64,2.12-.92,3.47-.14.78-.21,1.56-.21,2.33s.14,1.56.5,2.26.99,1.13,1.77,1.2c.78.14,1.49-.21,1.91-.85.57-.92.78-2.05.85-3.18,0-.57,0-1.13-.07-1.7s-.21-1.06-.42-1.63c-.28-.78-.64-1.56-.57-1.7,0-.07.07.14.21.42l-.07-.21-.07-.35c-.07-.28-.14-.57-.21-.78v-.21c-.07-.35,0-.85,0-1.13v.07-.07c0-.21.07-.35.07-.35v.35c0-.14,0-.21.07-.07v.14-.28q.07-.21.07-.42c0-.14.07-.28.07-.28l.07-.14q0-.14.07-.21v-.07.28l-.07.21v.21-.14q-.07.21-.07.35c0,.07-.07.21-.07.21v.99c0,.07.07.21.07.5v.21-.07c-.14-.5-.14-1.13,0-1.7,0-.07.07-.21.07-.21v.14c-.07.57-.07,1.2.07,1.84s.42,1.27.64,1.84c.14.28.21.64.35.92v-.07l.07.28-.07-.21q0-.07-.07-.14c-.21-.78-.5-1.41-.71-2.05-.07-.14-.07-.35-.14-.5s-.07-.35-.07-.5v-.14s0,.07.07.21c.21,1.13.92,2.48,1.13,3.47.07.21.07.42.14.64v-.14c0,.14.07.28.07.42v-.07c.14.85.14,1.84,0,2.62v.07c-.07.35-.07.71-.21,1.06,0-.14.07-.28.07-.42-.07.28-.14.57-.21.92-.14.42-.35.85-.64,1.2l-.42.42c-.14.14-.28.21-.42.21-.42.21-.85.28-1.27.28-.21,0-.42-.07-.64-.14s-.42-.14-.64-.21c-.42-.21-.71-.57-.99-.92-.21-.35-.42-.78-.5-1.2,0-.07-.07-.14-.07-.21,0,0,0,.07.07.14.14.57.35,1.2.85,1.63.42.5,1.06.71,1.7.78-.5-.07-1.06-.28-1.49-.57-.42-.35-.71-.85-.85-1.34-.07-.14-.07-.28-.14-.35,0-.14-.07-.28-.07-.35-.21-1.34-.07-2.62.21-3.89.28-1.13.5-2.05.92-3.11.14-.35.35-.71.57-1.06s.42-.64.71-.92c.57-.57,1.13-1.06,1.91-1.41.21-.07.35-.21.42-.21l-.28.14c-.78.35-1.41.92-1.98,1.49-.5.64-.99,1.34-1.27,2.12-.35.78-.5,1.56-.71,2.4-.21.78-.35,1.63-.42,2.55v1.2-1.27c.07-1.13.35-2.33.64-3.47.28-.78.5-1.56.92-2.19.21-.42.57-.85.85-1.27.35-.35.71-.71,1.13-.99,0,0,.07,0,.07-.07h-.07c-.28.21-.57.42-.85.71l-.35.35-.35.42.14-.14s-.07.07-.14.21l.28-.42.14-.14-.14.14c-.21.28-.42.5-.57.78s-.35.57-.42.85c-.28.71-.57,1.49-.71,2.26,0-.07.07-.21.07-.21,0-.14.07-.21.07-.35.28-1.06.71-2.12,1.41-3.04s1.63-1.63,2.69-2.05c.07,0,.07-.07.07,0l-.07.07c-.28.14-.64.28-.92.5l-.85.64-.07.07c-.99.85-1.63,2.05-1.98,3.18.35-1.13.92-2.19,1.77-2.97l.28-.28.07-.07-.07.07-.07.07c.14-.14.28-.21.28-.21,0,0-.14.14-.35.28l-.64.64c-.14.28-.35.5-.57.78l-.07.14-.07.21c.21-.42.5-.78.78-1.2.35-.35.64-.71,1.06-.92.07-.07.14-.07.14-.07,0,0-.07.07-.14.07-1.41.92-2.12,2.55-2.62,4.1-.14.5-.28,1.06-.35,1.63l.07-.21c.42-1.77.85-3.32,1.98-4.67l.07-.07-.07.07c-.57.64-.99,1.34-1.27,2.12-.14.35-.21.64-.35.99-.07.35-.21.64-.28.99.35-1.27.71-2.55,1.49-3.61,0-.07.07-.07.07-.14.07-.28.14-.42.35-.57.07-.07,0-.07,0,0h0ZM111.44,190.8v.07l.07.14s-.07-.07-.07-.21ZM110.74,188.82v-.07.07ZM107.98,199.08c.71.28,1.49.42,2.19.14-.14.07-.35.07-.57.14-.57.07-1.13,0-1.63-.28ZM111.02,189.46c.07.14.07.28.14.42s.07.21.14.35c.14.35.21.64.35.99v.07l.07.14c-.14-.35-.28-.64-.35-.99-.14-.35-.28-.71-.35-.99h0ZM110.53,187.76v.21-.21Z"/>
        </g>
        <path class="cls-4" d="M25.01,159.25c.21,4.24,0,7.99-.5,12.24-.5,3.04-.21,8.49-2.83,10.82-2.83,2.83-5.87-.5-5.66-3.75.21-4.24,4.24-6.37,6.37-9.41,1.91-3.04,1.91-7.07,2.33-10.4"/>
        <g>
          <path class="cls-5" d="M25.36,161.09v.14-.42c0,.85.07,1.84,0,2.76,0,.92,0,1.84-.07,2.55,0,.5-.07.99-.07.99,0,0,.07-.35.07-.85v-.35c.07-.71.07-1.63.14-2.62v.57-.92.14c.07-.99-.07-2.33-.07-3.04-.07-.71-.07-.42-.07.57,0,0,.07.5.07.5Z"/>
          <path class="cls-5" d="M25.29,162.93v-1.91.07c0,.57.07,1.41.07,2.26v.57-.99c0-1.06-.07-2.76-.07-3.32v.92c0,.57.07.99.07.99v.28-.21c0,.14.07.64.07.99v.57-.57.07c0-.57-.07-1.06-.07-1.63v-.71.42-.14c0,.78.07,1.56,0,2.26v.35q-.07-.14-.07-.28Z"/>
          <path class="cls-5" d="M15.88,178.07c.14-1.2.64-2.33,1.34-3.32s1.49-1.84,2.33-2.69q.07-.07.07-.14l-.07.07c-.85.85-1.63,1.7-2.33,2.69-.71,1.06-1.2,2.12-1.34,3.4v.14-.14h0Z"/>
          <path class="cls-5" d="M24.3,163.71c-.07.35-.07.64-.14.92v.28c-.07.57-.28,1.13-.42,1.7-.07.28-.21.57-.28.85s-.21.57-.35.85l-.42.85c-.14.28-.35.5-.57.78-.35.5-.78.92-1.2,1.41l-.07.07c-.14.14-.35.35-.57.64l-.21.21c-.78.78-1.49,1.56-2.12,2.4l-.42.64c-.5.78-.85,1.63-.99,2.55v-.07s-.07.21-.07.5l-.07.35c.07-.35.07-.71.14-1.06v-.14c.14-.35.21-.78.42-1.13.78-1.63,2.05-2.9,3.25-4.1,1.2-1.27,2.48-2.48,3.11-4.17,0-.07.07-.14.07-.21v.07c-.14.5-.5.99-.71,1.41-.28.42-.64.85-.92,1.27-.71.78-1.41,1.56-2.26,2.4-.99,1.06-1.91,2.12-2.48,3.4-.28.64-.5,1.27-.57,1.98s0,1.41.14,2.05c.21.71.57,1.34,1.06,1.84s1.13.85,1.77.92,1.27-.21,1.84-.71c.57-.42,1.06-.99,1.34-1.7.5-.92.71-1.91.92-2.9s.28-2.05.42-3.04c.07-.99.14-2.05.28-3.11.07-.99.21-2.05.28-3.11.14-1.56.21-2.97.28-3.18v.85-.35l.07-.64c0-.57.07-1.06.07-1.34v-.42c.07-.57.07-1.49.07-1.91v.07-.85c0,.07.07.28.07.57v.07c0-.21,0-.35.07-.14v.28-1.91.07-.57.99-.07.21-.21,4.1-.21c0-.5,0-1.06.07-1.56v-2.05.28c0,.57.07,1.13.07,1.7v1.77c0,1.2-.14,2.4-.21,3.54,0,.57-.07,1.2-.14,1.77v-.07l-.07.42v.07l.07-.35v-.21c.14-1.34.21-2.62.28-3.96l.07-1.98v-.28,2.05c-.07.57-.07,1.13-.14,1.77-.07,1.13-.21,2.26-.28,3.11-.07.35-.07.71-.14,1.13v-.28c0,.28-.07.5-.07.71v-.07c-.21,1.49-.28,3.11-.5,4.53v.14c-.07.57-.14,1.2-.28,1.91.07-.21.07-.5.14-.71-.07.5-.21,1.06-.35,1.56-.21.71-.5,1.49-.92,2.12-.35.64-.85,1.06-1.2,1.34-.57.5-1.27.92-2.05.99s-1.56-.28-2.12-.78c-1.13-1.06-1.7-2.55-1.7-4.1v-.35.21c0,1.06.21,2.19.78,3.11.28.5.64.92,1.13,1.2.42.35.99.57,1.56.57-.99-.07-1.77-.64-2.33-1.41-.57-.71-.92-1.63-1.06-2.55,0-.21-.07-.5-.07-.71s0-.5.07-.71c.14-1.2.57-2.26,1.2-3.25s1.41-1.84,2.26-2.69c.71-.71,1.34-1.41,1.98-2.12l.85-1.06.64-1.27c.5-1.27.85-2.55,1.06-3.89s.35-2.62.5-4.03c.07-.35.07-.71.14-.78,0-.07,0,.21-.07.57-.14,1.41-.28,2.9-.5,4.31s-.57,2.83-1.2,4.1c-.14.28-.28.64-.5.92s-.42.57-.64.85c-.5.57-.99,1.06-1.49,1.63-1.06,1.06-2.12,2.12-2.97,3.4-.35.57-.64,1.13-.85,1.77,0,0,0,.07-.07.14.21-.71.57-1.41.99-1.98,1.13-1.77,2.76-3.11,4.17-4.67.99-1.06,1.56-2.33,2.05-3.61.5-1.7.71-3.4.92-5.16v-.14.07c-.14,1.2-.28,2.48-.5,3.68.07-.21.07-.28.07-.28,0,0,0,.14-.07.42l.14-.85c0-.14.07-.28.07-.28,0,0,0,.14-.07.28-.14.57-.21,1.13-.35,1.7s-.35,1.13-.57,1.63c-.07.35-.28.64-.42.92l-.21.5c-.07.14-.21.28-.28.42-.42.57-.85,1.06-1.34,1.56l.28-.28.42-.5c.35-.35.64-.78.92-1.13.21-.42.5-.85.71-1.34.35-.92.64-1.91.85-2.9.42-1.98.5-4.03.78-6.01v-.14.14c-.14,1.2-.28,2.48-.42,3.68v.21c-.28,2.26-.71,4.53-1.91,6.44,1.13-1.77,1.56-3.82,1.84-5.87l.07-.71v-.14.28c0-.14.07-.35.07-.5v-.21s0,.35-.07.78c-.14,1.06-.28,2.19-.64,3.18l-.07.35-.07.35c.5-1.63.71-3.32.92-4.95,0-.14.07-.28.07-.28v.28c-.14,1.49-.35,2.97-.78,4.39l-.14.57-.21.57c-.14.35-.21.71-.42,1.06s-.35.71-.57.99-.42.64-.71.92c-.64.78-1.34,1.49-2.05,2.19l.28-.28c.57-.57,1.13-1.13,1.63-1.7s.99-1.2,1.27-1.91c.64-1.34,1.06-2.83,1.27-4.39v-.14.14c-.28,1.56-.57,2.9-1.27,4.31l-.42.85c-.21.28-.35.5-.57.78-.35.5-.78.92-1.2,1.34.42-.42.85-.85,1.2-1.34.21-.21.35-.5.57-.71.14-.28.28-.5.42-.78.28-.5.42-1.13.71-1.63.14-.57.35-1.13.42-1.77,0-.07,0-.14.07-.28v-.07c.07-.28.14-.64.14-.92v-.14c.21.14.21.21.21.28h0ZM25.01,167.46c.07,0,.07-.07,0,0v.42-.42ZM25.15,163.78v-.14.14ZM17.65,182.95c.5.42,1.2.71,1.84.71.71,0,1.34-.28,1.84-.71-.14.07-.28.14-.42.28l-.42.21c-.5.21-.99.21-1.49.14s-.92-.35-1.34-.64ZM25.22,164.98c0,.35,0,.57-.07.85,0,.21,0,.42-.07.71-.07.64-.07,1.2-.14,1.84v.35c.07-.64.07-1.27.14-1.91s.14-1.27.14-1.84h0ZM25.22,160.31v.07-.07ZM25.22,161.16v-.14.14ZM25.01,161.73l.07.35-.07-.35Z"/>
        </g>
        <path class="cls-4" d="M26.7,194.12c.21,1.2.71,12.94-3.54,8.7-2.62-2.83,2.83-7.99,3.54-10.4"/>
        <g>
          <path class="cls-5" d="M26.99,194.9v-.14c.07,1.06.07,1.27.07,2.33v.42-1.63.28-.42.07c0-.42-.07-1.06-.07-1.34-.07-.28-.07-.21-.07.21l.07.21h0Z"/>
          <path class="cls-5" d="M26.99,195.75v-.85c0,.21.07.64.07.99v.28-.21l-.07-.21c.07-.5,0-1.2-.07-1.49v.42c0,.21.07.42.07.42v.14-.07c0,.07,0,.28.07.42v.21l-.07-.07.07-.21c0-.28-.07-.5-.07-.71l-.07-.35v.14-.07c0,.35.07.71.07.99v.21h0Z"/>
          <path class="cls-5" d="M22.25,200.92c.07-1.06.5-2.05.99-2.97v-.07.07c-.5.85-.92,1.84-.99,2.97Z"/>
          <path class="cls-5" d="M25.78,194.41c-.07.07-.14.21-.21.35l-.07.07v.07c-.57.85-1.13,1.77-1.63,2.69v.07c0,.07-.07.21-.14.35l-.07.07c-.21.42-.42.85-.57,1.27-.07.14-.07.21-.07.28-.14.35-.21.78-.21,1.13v-.07.35c0-.14,0-.28.07-.42v-.07c0-.14.07-.35.07-.5.42-1.49,1.2-2.76,1.98-4.03l.07-.07c-.5.78-.92,1.49-1.34,2.4-.5,1.06-.99,2.33-.64,3.4.14.57.64.99,1.06,1.34.5.35.99.42,1.34,0,.5-.57.71-1.49.85-2.33s.21-1.77.28-2.62c0-.64.07-1.27.07-1.34s.07.07.07.35v-1.2c0-.28,0-.57.07-.85v.07-.35s.07.14.07.21v.07q0-.14.07-.07v.07-1.06.57-.07,1.63-.07c0-.42,0-.92-.07-1.34v-.14.14c.07.92.14,2.12.07,3.04,0,.28,0,.5-.07.78v-.07.21-.21c0-.57.07-1.13.07-1.7v-.99.14c.07.99,0,2.12-.07,2.9,0,.21,0,.35-.07.5v-.14c0,.07,0,.21-.07.35v-.07c-.07.64-.14,1.34-.35,1.98v.07c-.07.28-.14.5-.21.85.07-.07.07-.21.07-.28-.07.21-.14.42-.21.71-.14.28-.35.64-.64.85-.28.28-.64.28-.85.28-.78,0-1.34-.5-1.77-.92-.5-.5-.78-1.2-.78-1.84v-.14.14c0,.5.14.99.42,1.41s.64.78,1.06.99c-.14-.14-.35-.21-.5-.35l-.42-.42c-.21-.35-.42-.71-.5-1.13,0-.07-.07-.21-.07-.28v-.28c.07-1.06.42-1.98.92-2.9.42-.78.78-1.41,1.27-2.19.64-1.06,1.34-1.98,1.84-2.97l.14-.28s0,.07-.07.21c-1.06,2.19-2.83,4.1-3.75,6.65l-.21.85v.07c.07-.35.14-.64.28-.92.28-.85.71-1.63,1.2-2.48.35-.57.71-1.06.99-1.56.42-.64.85-1.27,1.2-1.91l.07-.07c-.28.5-.57.92-.85,1.34.07-.07.07-.14.07-.07,0,0,0,.07-.07.14l.21-.28c.07-.07.07-.14.07-.14,0,0,0,.07-.07.14l-.85,1.27c-.35.5-.64.99-.99,1.56.07-.07.07-.14.07-.14l.14-.21c.42-.71.92-1.49,1.41-2.19s.99-1.49,1.27-2.26v-.07.07c-.14.5-.42.99-.71,1.41,0,0,0,.07-.07.07-.5.78-1.06,1.63-1.63,2.48.5-.78.99-1.49,1.49-2.26.07-.07.07-.14.14-.28l.07-.07v.07l-.07.07c.07-.14.14-.28.14-.21l-.14.28c-.28.42-.5.78-.78,1.2l-.07.14-.07.14c.42-.64.85-1.2,1.2-1.84,0-.07.07-.07.07-.07,0,0,0,.07-.07.07-.64,1.13-1.41,2.19-2.12,3.32-.21.35-.42.78-.64,1.13l.07-.14c.71-1.27,1.34-2.26,2.12-3.4l.07-.07v.07c-.28.5-.71,1.06-1.06,1.63-.28.5-.57.92-.78,1.34.5-.92,1.06-1.77,1.63-2.62,0,0,0-.07.07-.07.42-.5.5-.64.64-.78-.07.07-.07,0,0,0ZM26.92,197.73v.21-.21ZM26.85,196.11v-.07c.07,0,.07.07,0,.07ZM23.1,203.04c.42.35.85.78,1.49.92-.14,0-.28-.07-.42-.14-.42-.14-.78-.42-1.06-.78ZM26.99,196.6v1.56-1.56ZM26.7,195.26l.07.14-.07-.14Z"/>
        </g>
        <path class="cls-5" d="M129.69,115.4c.57,0,.57-.92,0-.92s-.57.92,0,.92Z"/>
        <path class="cls-5" d="M134.43,124.8c.57,0,.57-.92,0-.92s-.57.92,0,.92Z"/>
        <path class="cls-5" d="M129.98,124.1c.57,0,.57-.92,0-.92s-.57.92,0,.92Z"/>
        <path class="cls-5" d="M130.19,118.93c.57,0,.57-.92,0-.92s-.57.92,0,.92Z"/>
        <path class="cls-5" d="M134.86,116.6c0-.42-.07-.85-.57-.92-.21,0-.5.07-.57.28s.07.5.28.57c0-.07-.07-.07-.07-.14v.14c.07.64.92.64.92.07h0Z"/>
        <path class="cls-5" d="M132.52,112.07c.57,0,.57-.92,0-.92s-.57.92,0,.92Z"/>
        <path class="cls-5" d="M133.94,132.8c.57,0,.57-.92,0-.92-.57.07-.57.92,0,.92Z"/>
        <path class="cls-5" d="M124.04,125.02c.57,0,.57-.92,0-.92-.57.07-.57.92,0,.92Z"/>
        <path class="cls-5" d="M128.99,129.76c.57,0,.57-.92,0-.92s-.57.92,0,.92Z"/>
        <path class="cls-5" d="M124.53,115.89c0,.28,0,.64.21.85.28.28.64.14.92,0,.5-.21.07-.99-.42-.78-.21.07.21.35.21.21v-.28c0-.57-.92-.57-.92,0Z"/>
        <path class="cls-5" d="M125.95,111.36c.57,0,.57-.92,0-.92s-.57.92,0,.92Z"/>
        <path class="cls-5" d="M121.91,108.18c-.5-.21-.92-.28-1.41-.28v.92h.5c.57,0,.57-.92,0-.92h-.5c-.57,0-.57.85,0,.92.35,0,.64,0,.99.14.5.21.92-.57.42-.78Z"/>
        <path class="cls-5" d="M127.86,109.46c.57,0,.57-.92,0-.92-.57.07-.57.92,0,.92Z"/>
        <path class="cls-5" d="M18.22,124.59c.57,0,.57-.92,0-.92s-.57.92,0,.92Z"/>
        <path class="cls-5" d="M12.27,134.71c.57,0,.57-.92,0-.92s-.57.92,0,.92Z"/>
        <path class="cls-5" d="M16.8,137.54c.57,0,.57-.92,0-.92s-.57.92,0,.92Z"/>
        <path class="cls-5" d="M11.07,127.42c0,.21-.14.21-.21.21.57,0,.57-.92,0-.92-.42,0-.64.28-.71.71,0,.21.21.42.42.42.35,0,.5-.21.5-.42Z"/>
        <path class="cls-5" d="M20.76,127.14c.57,0,.57-.92,0-.92-.57.07-.57.92,0,.92Z"/>
        <path class="cls-5" d="M14.4,119.15c.57,0,.57-.92,0-.92s-.57.92,0,.92Z"/>
        <path class="cls-5" d="M14.18,132.09c1.13,0,1.13-1.77,0-1.77s-1.13,1.77,0,1.77Z"/>
        <path class="cls-5" d="M12.27,140.58c1.13,0,1.13-1.77,0-1.77s-1.13,1.77,0,1.77Z"/>
        <path class="cls-5" d="M10.15,125.51c1.13,0,1.13-1.77,0-1.77s-1.13,1.77,0,1.77Z"/>
        <path class="cls-5" d="M12.56,114.41c.64-.07,1.06-.42,1.13-1.13,0-.5-.42-.92-.92-.92s-.85.42-.92.92c0-.14.07-.42.28-.57.14-.07.28-.07.42-.14h-.07c-.5.07-.92.35-.92.92.07.42.5.99.99.92Z"/>
        <path class="cls-5" d="M128.77,113.2c1.13,0,1.13-1.77,0-1.77s-1.13,1.77,0,1.77Z"/>
        <path class="cls-5" d="M137.97,120.56c1.13,0,1.13-1.77,0-1.77s-1.13,1.77,0,1.77Z"/>
        <path class="cls-5" d="M135.85,126.43c1.13,0,1.13-1.77,0-1.77s-1.13,1.77,0,1.77Z"/>
        <path class="cls-5" d="M134.65,117.02c1.13,0,1.13-1.77,0-1.77s-1.13,1.77,0,1.77Z"/>
        <path class="cls-5" d="M12.98,109.24c1.13,0,1.13-1.77,0-1.77s-1.13,1.77,0,1.77Z"/>
        <path class="cls-5" d="M9.73,118.65c1.13,0,1.13-1.77,0-1.77s-1.13,1.77,0,1.77Z"/>
        <path class="cls-5" d="M8.53,122.68c1.13,0,1.13-1.77,0-1.77s-1.13,1.77,0,1.77Z"/>
        <path class="cls-5" d="M9.94,129.05c1.13,0,1.13-1.77,0-1.77s-1.13,1.77,0,1.77Z"/>
        <path class="cls-5" d="M4.99,135.41c1.13,0,1.13-1.77,0-1.77s-1.13,1.77,0,1.77Z"/>
        <path class="cls-5" d="M20.06,118.44c1.13,0,1.13-1.77,0-1.77s-1.13,1.77,0,1.77Z"/>
      </g>
    </g>
  </g>
</svg>