<?xml version="1.0" encoding="UTF-8"?>
<svg id="Layer_2" data-name="Layer 2" xmlns="http://www.w3.org/2000/svg" viewBox="0 0 399.27 143.06">
  <defs>
    <style>
      .cls-1 {
        font-family: Aleo-Light, Aleo;
        font-size: 23px;
        font-weight: 300;
      }

      .cls-1, .cls-2 {
        fill: #1d1d1b;
      }

      .cls-2 {
        font-family: LemonMilkRegular, 'Lemon Milk';
        font-size: 95px;
      }

      .cls-3 {
        letter-spacing: -.01em;
      }

      .cls-4 {
        fill: #f9f2c1;
      }

      .cls-4, .cls-5, .cls-6, .cls-7, .cls-8 {
        stroke-width: 0px;
      }

      .cls-5 {
        fill: #49453c;
      }

      .cls-6 {
        fill: #fff;
      }

      .cls-7 {
        fill: #fff5c0;
      }

      .cls-8 {
        fill: #feeb73;
      }
    </style>
  </defs>
  <g id="Layer_1-2" data-name="Layer 1">
    <g id="logo">
      <text class="cls-2" transform="translate(0 70.3)"><tspan x="0" y="0">Breezy</tspan></text>
      <text class="cls-1" transform="translate(3.77 101.4)"><tspan x="0" y="0">healt</tspan><tspan class="cls-3" x="52.19" y="0">h</tspan><tspan x="66.25" y="0">y and easy</tspan></text>
      <g>
        <path class="cls-8" d="M209.37,87.45s-1.31-1.12-.85-4.14c.46-3.09,8.54-19.06,17.94-25.63,9.4-6.57,24.77-15.31,26.94-14.46s3.94,2.63,3.94,2.63c0,0-14.46-19.25-29.57-21.03s-19.06,2.83-22.14,3.09-10.05-2.43-10.32-.92,1.77,6.57,1.97,8.74-6.11,26.09-5.26,28.91c.92,2.89,13.41,21.49,17.35,22.8Z"/>
        <path class="cls-6" d="M257.34,45.85c1.38,4.07-5.26,23.2-18.6,29.57-13.34,6.37-26.94,19.06-29.37,12.03s9.59-25.82,18.6-31.08c9-5.26,26.74-18.2,29.37-10.51Z"/>
        <path class="cls-7" d="M254.97,48.55c1.64,2.96-3.02,18.2-15.05,24.44-12.09,6.24-23.79,17.35-26.68,12.29-2.89-5.06,6.9-20.7,14.92-25.63,8.02-4.99,23.66-16.69,26.81-11.11Z"/>
        <g>
          <path class="cls-5" d="M230.26,59.98v-.07c.07.53.2,1.31.26,1.77,0,.2.07.33.07.33v-.39c0-.26-.07-.53-.13-.85v.2c0-.13,0-.2-.07-.26v.07c0-.46-.07-.92-.13-1.12s-.07-.13-.07.2l.07.13Z"/>
          <path class="cls-5" d="M230.26,60.57c0-.2-.07-.39-.07-.59v-.07c.07.2.07.46.13.72v.13-.2h-.07c0-.39-.07-.92-.13-1.12v.33c0,.2.07.33.07.33v.07-.07c0,.07.07.2.07.33v.13l.07-.13c-.07-.2-.07-.39-.13-.53l-.07-.26v.13-.07c.07.33.13.53.13.85,0,.07.07.07,0,0Z"/>
          <path class="cls-5" d="M231.77,70.36c.13.79.2,1.58.33,2.3v.07-.07c-.13-.72-.2-1.51-.33-2.3Z"/>
          <path class="cls-5" d="M232.43,76.01c0-.07-.07-.2-.07-.33v-.13c-.2-.99-.33-1.64-.46-2.37v-.07c0-.07-.07-.2-.07-.26v-.07c-.07-.33-.07-.72-.13-1.05,0-.13,0-.2-.07-.26-.07-.33-.13-.66-.13-.92,0,0,0-.07-.07-.13v-.13c0,.13,0,.26.07.39v.07c0,.13.07.26.07.39.07.53.2,1.12.26,1.77.07.59.2,1.12.33,1.71v.07c-.13-.72-.33-1.31-.46-2.1-.2-1.05-.33-1.97-.46-2.89s-.26-1.97-.46-3.02l-.59-4.14c-.07-.53-.13-.99-.13-1.05s.07.07.07.26v-.33c0-.2-.07-.33-.07-.46v-1.12s.07.07.07.2v-.07.07-.13q0-.13-.07-.26v-.39.33-.07.33q0,.13.07.33v.26c0,.07,0,.13.07.26v.13-.07c-.07-.46-.13-.72-.13-1.05v-.13.13c.13.72.26,1.58.39,2.3,0,.2.07.39.07.59v.13-.2c-.07-.33-.13-.85-.2-1.31,0-.2-.07-.46-.07-.66v-.07.13c.13.72.26,1.58.33,2.17,0,.07,0,.2.07.39v-.07.26-.07c.07.53.13,1.05.2,1.51v.07c.07.26.07.46.13.66v-.26c.07.2.07.39.07.53.07.53.13,1.05.13,1.31.13.99.26,1.91.39,2.89v.13-.07c-.13-.79-.2-1.45-.33-2.1.07.59.13,1.18.26,1.77l.07.2v.2c.13.72.2,1.38.33,2.23.07.66.26,1.25.33,1.91.2.99.39,1.84.53,2.69,0,.13.07.26.07.26,0,0,0-.07-.07-.2-.2-.99-.39-1.91-.59-2.83-.07-.46-.2-.92-.26-1.45s-.13-.99-.2-1.51c0-.2-.07-.46-.07-.66v-.07c0,.26.07.46.13.72.13.66.2,1.38.33,2.04.07.39.13.92.26,1.38.13.59.26,1.18.33,1.71v.07c-.07-.46-.2-.85-.26-1.25v.13s0-.07-.07-.13l.07.26v.13-.13l-.2-1.12c-.07-.46-.2-.92-.26-1.38v.13l.07.2.79,3.94v.07-.07l-.2-1.18v-.07c-.13-.66-.26-1.38-.46-2.23.13.66.26,1.31.39,2.04,0,.07,0,.13.07.2v.07-.07c0,.13.07.2,0,.2,0,0-.07-.13-.07-.26-.07-.39-.13-.72-.2-1.05v-.26c.13.53.2,1.12.33,1.64v.07-.07c-.2-1.05-.39-2.04-.59-2.96l-.2-.99v.13c.2,1.05.39,1.97.59,3.02v.07-.07c-.07-.39-.2-.99-.33-1.45-.07-.39-.13-.79-.26-1.18.13.72.33,1.58.46,2.37v.07c0,.46,0,.59.07.72h0ZM230.46,62.08v.13-.13ZM231.45,68.65c-.07-.39-.07-.72-.13-1.25l.07.33c0,.26.07.59.07.92ZM230.39,61.29v.26c0,.07,0,.13.07.2,0,.2.07.39.07.59v.13c0-.2-.07-.39-.07-.66,0-.13-.07-.33-.07-.53ZM230,60.24l.07.13-.07-.13Z"/>
        </g>
        <g>
          <path class="cls-5" d="M219.09,69.97h.07-.2c.85.13,2.04.07,2.83.07.26,0,.53-.07.53-.07h-2.04.33-.46.07c-.53-.07-1.25-.13-1.58-.13-.39,0-.26,0,.26.07,0,0,.2.07.2.07Z"/>
          <path class="cls-5" d="M220.08,70.16c-.33,0-.59-.07-.92-.07h-.07c.26,0,.72.07,1.18.07h.26-.59c-.59-.07-1.45-.13-1.77-.13-.07,0,0,0,0,0,0,0,.2.07.46.07s.53.07.53,0h.13-.13.79-.26c-.33,0-.59-.07-.85-.07h-.39c-.13,0-.07,0,0,0h.2-.07c.39.07.79.07,1.18.13h.33q.07,0,0,0Z"/>
          <path class="cls-5" d="M218.44,70.03q-.07-.07,0,0c-.07,0,0,0,0,0Z"/>
          <path class="cls-5" d="M235.52,66.95c.59-.26,1.18-.46,1.71-.72.59-.2,1.18-.46,1.77-.66h.07-.07c-.59.2-1.18.46-1.77.66-.59.26-1.12.46-1.71.72q-.07,0,0,0t0,0Z"/>
          <path class="cls-5" d="M244.33,64.91c-.2.07-.33.07-.46.13h-.13c-.59.13-1.25.2-1.91.26-.33.07-.66.07-.99.13s-.66.13-.92.26h-.07c-.07,0-.26.07-.46.13h-.13c-.53.2-1.05.39-1.64.59-.13.07-.26.07-.39.13l-1.38.59h.07l-.26.13-.2.07c.2-.07.39-.13.53-.2h.07c.2-.07.39-.2.59-.26.46-.2.92-.39,1.31-.53.46-.13.85-.33,1.31-.46s.85-.2,1.31-.33.92-.13,1.38-.2h.13c-1.18.13-2.1.39-3.35.79-1.45.53-2.83,1.18-4.34,1.77-1.58.59-3.02,1.05-4.73,1.45-2.23.59-4.4.99-6.64,1.18-.39.07-.85.07-1.12.07-.33,0-.53,0-.59-.07-.07,0,.13-.07.46-.07h-1.45c-.33,0-.79-.07-1.05-.13h.07-.07c-.2,0-.33-.07-.39-.07h.33c-.13,0-.2-.07-.07-.07q-.07,0,0,0h.13-.26q-.2,0-.39-.07h-.26q-.2-.07-.13-.07h.2-.26.66-.13.53q.26,0,.46.07h1.12-.07c-.07,0,0,0,0,0-.53,0-1.12-.07-1.64-.13h-.2.13c.59.07,1.18.07,1.84.07s1.31,0,1.91-.07c.33,0,.66-.07.92-.07h-.07.26-.33c-.72.07-1.38.13-2.1.07h-1.18,2.04c.46,0,.99-.07,1.64-.13.2,0,.33-.07.59-.07h-.13c.13,0,.26,0,.39-.07h-.07c.39-.07.79-.13,1.25-.2.39-.07.72-.13,1.18-.2h.07c.39-.07.72-.13.99-.2-.13,0-.26.07-.39.07.26-.07.53-.13.85-.2.53-.13,1.18-.26,2.04-.46.72-.2,1.51-.46,2.23-.66l1.12-.39c.33-.13.72-.26,1.05-.46.07,0,.13-.07.13-.07,0,0-.07,0-.13.07-.99.46-2.1.79-3.15,1.12.46-.13.92-.26,1.38-.46l.66-.2.66-.26.33-.13c.13-.07.2-.07.33-.13.59-.2,1.12-.46,1.71-.72s1.18-.46,1.77-.66c1.05-.26,1.97-.53,3.09-.66,1.51-.2,2.83-.39,4.21-.92.2-.07.33-.13.39-.13l-.26.13c-1.38.59-2.96.85-4.47.99-1.58.13-3.09.66-4.6,1.25l-.99.39-.07.07c.33-.13.72-.33,1.12-.46l1.58-.59c.53-.2,1.12-.26,1.64-.46.39-.13.79-.13,1.18-.2s.72-.07,1.12-.13c.92-.13,1.84-.33,2.76-.59h.07-.07c-.59.2-1.25.33-1.91.46h.13s-.07,0-.2.07l.46-.07h.13s-.07,0-.13.07c-.59.13-1.25.2-1.84.26-.39.07-.72.07-1.12.13s-.72.2-1.12.26c.13,0,.2,0,.2-.07l.33-.07c.53-.13,1.05-.2,1.58-.26s1.05-.13,1.58-.26c1.05-.2,2.1-.46,3.09-.92h.07-.07c-.59.26-1.18.53-1.84.66h-.13c-1.18.33-2.37.46-3.61.59,1.12-.13,2.23-.26,3.29-.53.13,0,.26-.07.33-.07h.07-.13c.2-.07.39-.07.33-.07,0,0-.2.07-.39.13-.59.13-1.12.26-1.71.33h-.39c.92-.13,1.77-.26,2.69-.53.07,0,.13-.07.13-.07,0,0-.07,0-.13.07-.79.26-1.58.39-2.37.53s-1.58.2-2.37.33c-.53.13-1.05.26-1.51.39.07,0,.13-.07.2-.07,1.64-.53,3.15-.53,4.86-.92h.07-.07c-.79.2-1.58.26-2.37.39-.33.07-.66.07-.99.13s-.59.13-.92.26c.33-.07.59-.13.92-.2s.66-.07.92-.13c.66-.07,1.25-.13,1.91-.26h.13c.33.07.46.07.72,0-.07,0,0,0,0,0,.07,0,0,0,0,0h0ZM222.51,70.16s-.07,0,0,0h.2-.2ZM220.54,70.23h-.07.07ZM232.89,67.93l-1.97.59.46-.13c.53-.13,1.05-.26,1.51-.46ZM221.2,70.16h.85c.33,0,.66-.07.99-.07h.2c-.33,0-.66.07-1.05.07h-.99ZM219.42,70.36h.2-.2Z"/>
        </g>
        <g>
          <path class="cls-5" d="M212.65,82.45c.07,0,.07-.07.13-.07-.07.07-.2.13-.39.2,1.51-.79,3.29-2.3,4.34-3.29.39-.39.72-.72.79-.72,0-.07-.26.2-.66.59-.07.07-.2.13-.26.2-.59.53-1.31,1.12-2.1,1.71.13-.13.33-.26.46-.39-.26.2-.46.39-.72.53l.07-.07c-.79.59-2.04,1.31-2.63,1.64-.66.26-.39.26.53-.2l.46-.13h0Z"/>
          <path class="cls-5" d="M214.3,81.47c-.53.33-.99.66-1.51.99l-.13.07h.07c.33-.2.59-.39.85-.59.33-.26.66-.46.99-.72l.26-.2c.13-.07.2-.13.2-.2.07-.07-.13.13-.46.33,0,0-.07.07-.2.13,0,.07-.13.13-.07.2-.92.59-2.43,1.45-2.96,1.71-.13.07,0,0,0,0-.07,0,.33-.13.85-.39.46-.26.85-.53.92-.53.07-.07.13-.13.26-.13l-.2.13c.13-.07.53-.33.85-.59l.46-.33-.26.13-.26.2s.07,0,.07-.07c-.46.33-.85.59-1.38.92l-.66.39c-.2.07-.13.07.07,0l.33-.13c-.07,0-.07.07-.13.07.66-.33,1.38-.79,2.04-1.25.07-.07.2-.13.26-.2-.13-.07-.13,0-.26.07h0Z"/>
          <path class="cls-5" d="M212,82.91c-.13.07-.2.13-.39.2q-.07,0-.07.07c.07,0,.13-.07.2-.07.2-.13.26-.2.26-.2Z"/>
          <path class="cls-5" d="M211.54,83.11c-.07,0-.07.07-.07.07l.07-.07Z"/>
          <path class="cls-5" d="M237.89,61.43l1.51-.99,1.45-1.05,2.96-2.17q.07-.07.13-.07s-.07.07-.13.07l-2.96,2.17-1.45,1.05-1.51.99s-.07.07-.13.07c0,0,.07-.07.13-.07Z"/>
          <path class="cls-5" d="M252.28,50.39q-.07,0,0,0l.13-.13c-.07,0-.13.07-.13.13Z"/>
          <path class="cls-5" d="M252.01,50.85c-.2.26-.46.46-.66.66l-.13.13s0,.07-.13.13c-.46.39-.92.85-1.38,1.25s-.99.79-1.51,1.18c-.99.79-2.04,1.58-3.02,2.37l-.07.07c-.26.2-.46.33-.72.53l-.2.2c-.92.66-1.77,1.38-2.69,2.04-.2.13-.39.33-.66.46-.39.26-.79.59-1.18.85s-.79.53-1.25.85l.07-.07-.39.26-.33.2.99-.66c.07,0,.07-.07.13-.07.33-.26.72-.46,1.05-.72.79-.59,1.51-1.12,2.3-1.64.72-.53,1.45-1.12,2.17-1.64,1.45-1.12,2.89-2.17,4.27-3.29.07-.07.13-.07.13-.13-1.77,1.45-3.29,2.56-5.32,4.14-1.18.92-2.43,1.84-3.61,2.69-1.25.85-2.56,1.71-3.75,2.63-1.31.92-2.56,1.84-3.81,2.83-.59.46-1.25.99-1.84,1.45-.59.53-1.25,1.05-1.84,1.58-1.71,1.45-3.35,2.89-4.93,4.27-1.58,1.45-3.02,3.02-4.6,4.53-1.18,1.18-2.3,2.17-2.5,2.3-.13.07.13-.2.66-.66l-.33.26-.46.39c-.46.39-.85.72-1.12.92l-.33.26c-.46.33-1.31.85-1.71,1.12l.07-.07-.07.07c-.33.2-.53.33-.66.33.07-.07.2-.13.46-.33l.07-.07c-.2.13-.33.2-.2.07q-.13.07.07-.07c.07-.07.13-.07.2-.13-.07.07-.13.07-.2.13-.13.07-.2.13-.2.13l-.66.39c-.26.13-.46.2-.46.2q-.33.13-.26.07h.07q-.26.13-.33.13c-.07,0-.13.07-.13.07h-.07l.2-.13c.07,0,.07-.07.07-.07.13-.07.2-.13.26-.13l.33-.13.07-.07.07-.07h-.07l.2-.07-.2.13q.39-.2.53-.33c.2-.07.33-.2.33-.2l.79-.53.07-.07c.07-.07.13-.07.2-.13l.2-.13h.07c.07-.07.13-.07.2-.13h.07c.13-.07.26-.2.72-.53.13-.07.2-.2.33-.26l-.07.07c-.07.07,0,0-.07,0-.79.66-1.71,1.31-2.69,1.84-.2.07-.33.2-.39.2,0,0,.07-.07.26-.13,1.97-1.12,4.01-2.89,5.65-4.53l1.31-1.31-.07.07.33-.33.07-.07-.26.26-.2.2c-.99.99-1.91,1.91-2.96,2.83-.53.46-1.05.85-1.58,1.31-.13.13-.26.2-.2.2,0,0,.13-.13.26-.2,1.84-1.45,3.68-3.35,5.06-4.6l.85-.85-.2.2.53-.53-.07.07c1.12-1.12,2.37-2.3,3.48-3.22l.13-.13c.53-.46.99-.85,1.51-1.31-.2.2-.39.33-.59.53.39-.39.79-.72,1.25-1.12,1.18-.99,2.56-2.1,3.22-2.63l3.61-2.83c1.25-.85,2.5-1.77,3.75-2.63.13-.07.26-.13.26-.2,0,0-.07.07-.2.13-.92.59-1.77,1.25-2.69,1.91l-1.31.99-1.31,1.05c1.45-1.18,2.96-2.17,4.53-3.29l.59-.39.59-.39c.99-.66,1.97-1.31,2.96-2.04.99-.66,1.91-1.38,2.89-2.17,1.64-1.31,3.15-2.37,4.8-3.68.59-.46,1.12-.92,1.64-1.38s1.05-.92,1.51-1.45c.92-1.05,1.97-1.97,2.83-3.15.26-.33.46-.59.53-.59s-.13.2-.39.46c-3.68,4.86-8.81,8.08-13.87,11.89-.53.39-1.12.79-1.64,1.18l-.13.13c.66-.39,1.25-.85,1.91-1.31,1.71-1.25,3.42-2.56,5.26-3.94,1.25-.92,2.37-1.77,3.48-2.69l2.04-1.84c.66-.66,1.25-1.31,1.91-1.97l.13-.13-.07.07c-.46.46-.85.92-1.31,1.38l-.66.72-.72.66c.13-.13.26-.2.26-.2l-.33.33.66-.59c.07-.07.13-.13.26-.2,0,0-.13.13-.26.2l-1.38,1.25c-.2.2-.46.39-.66.59l-.72.59c-1.12.92-2.3,1.77-3.48,2.63.2-.13.26-.2.33-.26l.53-.39c.85-.59,1.64-1.25,2.5-1.91.85-.59,1.58-1.31,2.37-2.04,1.58-1.45,2.96-3.02,4.27-4.67l.13-.13s-.07.07-.07.13c-.85.99-1.58,2.04-2.5,2.89q.07-.07,0,0l-.13.13q-.07.07,0,0c-1.64,1.77-3.42,3.29-5.26,4.67.85-.66,1.71-1.31,2.56-2.04l1.18-1.12.59-.53.59-.59.46-.53.13-.13-.07.07-.13.13c.13-.13.26-.26.33-.39l.13-.13s-.26.26-.53.59c-.39.39-.79.85-1.18,1.25l-1.25,1.18-.26.26-.26.26,1.97-1.77c.66-.59,1.25-1.25,1.84-1.91l.2-.2-.2.2-1.58,1.71c-.53.53-1.12,1.05-1.71,1.58-.53.53-1.18.99-1.84,1.51-.59.46-1.25.99-1.84,1.45-.79.66-1.64,1.25-2.5,1.91l.33-.26c2.69-2.04,5.13-3.75,7.49-6.11l.13-.13s0,.07-.07.07c-1.18,1.12-2.23,2.1-3.55,3.09-1.05.85-2.04,1.58-3.02,2.3.99-.79,1.97-1.51,2.96-2.23l1.45-1.12,1.38-1.25.2-.2.07-.07.72-.72c-.2-.2-.13-.2-.13-.2.07-.07,0-.07,0,0h0ZM217.91,78.44l.13-.13.2-.2-.33.33ZM215.08,81.01l-.13.13c0-.07.07-.07.13-.13ZM233.42,64.58c-1.05.79-2.04,1.58-3.15,2.43l.72-.59c.85-.66,1.64-1.25,2.43-1.84ZM216,80.15c.2-.2.46-.39.66-.59.2-.13.33-.33.53-.46.46-.46.92-.85,1.38-1.31l.13-.13.2-.2c-.46.46-.99.92-1.45,1.38-.53.46-1.05.92-1.45,1.31ZM212.06,82.91s.07,0,.07-.07c0,.07-.07.07-.07.07ZM212.85,82.52c-.07,0-.07.07-.13.07.07-.07.13-.07.13-.07ZM213.44,82.32l.26-.2-.26.2Z"/>
        </g>
        <g>
          <path class="cls-5" d="M219.75,82.45s.07-.07.07-.13c-.07.13-.13.13-.2.26.2-.33.39-.59.59-.85.2-.33.33-.59.53-.92.33-.59.66-1.25.92-1.71.2-.33.33-.66.33-.72s-.13.2-.33.53c-.07.07-.07.13-.13.2-.39.66-.66,1.18-.99,1.71l.2-.39c-.13.2-.2.39-.33.59l.07-.07c-.33.66-.92,1.51-1.18,1.91-.26.46-.13.33.26-.33l.2-.07h0Z"/>
          <path class="cls-5" d="M220.54,81.27c-.2.39-.46.72-.72,1.12l-.07.07c.13-.26.26-.46.39-.66.13-.26.33-.53.46-.79l.13-.2c.07-.07.07-.13.07-.2s-.07.13-.2.39l-.07.26c-.46.66-1.18,1.71-1.38,2.1-.07.07,0,0,0,0,0,0,.2-.2.39-.53s.39-.66.39-.66l.13-.2c0,.07-.07.07-.07.13.07-.13.26-.39.39-.66l.2-.33-.13.2-.13.2v-.07c-.2.39-.39.66-.66,1.05l-.26.46q-.07.13,0,0l.13-.2-.07.07c.33-.46.66-.92.92-1.45.07-.07.07-.13.13-.2q.07,0,0,.07h0Z"/>
          <path class="cls-5" d="M219.49,82.98c-.07.07-.13.2-.2.26v.07c0-.07.07-.07.13-.13.07-.13.07-.2.07-.2Z"/>
          <path class="cls-5" d="M232.83,62.54c.99-1.45,1.84-3.02,2.83-4.47,0-.07.07-.07.07-.07,0,0,0,.07-.07.07-.99,1.45-1.77,3.02-2.83,4.47,0,0,0,.07-.07.07.07,0,.07-.07.07-.07Z"/>
          <path class="cls-5" d="M241.43,52.62q-.07.07,0,0t.07-.13-.07.13Z"/>
          <path class="cls-5" d="M241.24,53.01c-.2.2-.33.39-.46.53-.07,0-.07.07-.07.07l-.07.07c-1.31,1.18-3.02,2.1-4.01,3.68l-.07.07c-.07.13-.2.33-.39.53l-.13.2c-.46.66-.85,1.38-1.31,2.04-.13.2-.2.33-.26.46-.33.59-.72,1.18-1.12,1.84,0-.07.07-.07.07-.07,0,0-.07.13-.2.33-.07.07-.13.13-.2.26.2-.2.33-.46.46-.72l.07-.07c.2-.26.33-.53.53-.79.72-1.18,1.38-2.37,2.1-3.42l.59-.79c.2-.26.39-.53.59-.72.2-.26.46-.46.66-.66s.46-.39.72-.59c.07,0,.07-.07.13-.07-.33.26-.66.46-.92.72l-.39.39c-.13.13-.26.33-.39.46s-.26.33-.39.46c-.13.2-.26.33-.33.53-.26.33-.46.72-.72,1.12-1.18,1.84-2.17,3.81-3.61,5.59-1.38,1.84-2.3,3.81-3.55,5.91-.2.33-.46.66-.66,1.05-.26.33-.46.66-.72.99-.53.66-1.12,1.18-1.64,1.77-.53.53-1.05,1.12-1.45,1.77s-.72,1.38-1.12,2.04c-.59,1.05-1.05,1.97-1.18,2.1-.07.07.07-.2.26-.59l-.13.26-.2.39c-.2.39-.39.72-.53.92l-.2.26c-.26.33-.59.99-.79,1.25l.07-.07-.07.07c-.13.2-.26.39-.33.39,0-.07.07-.2.2-.39v-.07c-.13.13-.2.2-.13.07q-.07.07,0-.07c0-.07.07-.07.07-.13q-.07.07-.07.13c-.07.07-.07.13-.07.13q-.13.26-.33.46c-.13.13-.2.26-.2.26q-.13.2-.13.13v-.07c-.13.13-.13.2-.13.2,0,.07-.07.07-.07.07q.07-.07.07-.13v-.07q.07-.13.13-.2l.13-.2v-.07l.07-.07.07-.13-.07.13q.2-.26.26-.39c.07-.13.13-.2.13-.2q.2-.26.39-.59l.07-.07c0-.07.07-.07.07-.13l.07-.13v-.07c0-.07.07-.07.07-.13.07-.07.13-.2.33-.59.07-.07.13-.2.13-.26l-.07.07c-.39.66-.79,1.38-1.25,2.04-.07.13-.13.26-.2.26,0,0,.07-.07.13-.2.2-.33.46-.72.66-1.12s.46-.79.66-1.18c.46-.79.85-1.64,1.25-2.37.2-.39.46-.79.66-1.18v.07l.2-.33-.13.2-.07.13c-.53.92-.99,1.71-1.45,2.63-.26.46-.53.85-.72,1.31-.07.13-.13.2-.13.2l.13-.26c.39-.72.85-1.51,1.25-2.3s.85-1.51,1.18-2.1c.13-.26.26-.46.39-.72l-.13.2c.07-.13.2-.33.26-.53l-.07.07c.59-.99,1.58-1.91,2.3-2.63l.07-.07c.33-.33.59-.66.92-1.12-.13.13-.2.26-.33.39.26-.33.46-.66.72-.92.66-.92,1.31-1.97,1.64-2.5.53-.99,1.05-1.91,1.64-2.89.33-.46.59-.92.92-1.38l.99-1.31c.07-.07.13-.2.13-.2,0,0,0,.07-.13.13-.46.66-.99,1.25-1.38,1.91-.46.66-.85,1.38-1.25,2.04.66-1.18,1.38-2.3,2.23-3.42l.33-.39c.13-.13.2-.26.33-.39.99-1.45,1.77-2.89,2.76-4.4.85-1.31,1.64-2.43,2.89-3.35.39-.33.85-.66,1.25-.92.39-.33.79-.66,1.12-.99.66-.72,1.25-1.58,1.97-2.37.2-.2.39-.39.46-.39s-.13.13-.33.33c-.85.79-1.38,1.71-2.17,2.5s-1.64,1.38-2.56,2.04c-.2.13-.39.39-.66.53-.2.2-.46.39-.59.59l-.53.66-.46.66c-.66.92-1.25,1.91-1.84,2.89-.26.39-.53.85-.79,1.25,0,0,0,.07-.07.13.33-.46.59-.92.85-1.38.79-1.31,1.58-2.69,2.63-4.01.72-.92,1.64-1.45,2.5-2.1.53-.39,1.05-.85,1.51-1.25.46-.46.85-1.05,1.25-1.58,0-.07.07-.07.07-.13l-.07.07c-.59.72-1.12,1.51-1.84,2.1.13-.07.2-.13.2-.13l-.2.2.46-.39c.07-.07.2-.2.2-.13,0,0-.07.07-.13.2-.33.26-.66.59-.99.85l-1.05.79c-.46.33-.85.66-1.25.99-.2.13-.33.39-.53.59s-.33.39-.53.66c.07-.13.13-.2.2-.26l.33-.39c.92-1.18,2.3-1.91,3.48-2.96,1.18-.99,1.84-2.43,3.15-3.35l.07-.07s-.07,0-.07.07c-.79.53-1.38,1.31-1.91,2.04q-.07.07-.07.13c-1.05,1.45-2.56,2.23-3.88,3.42,1.18-1.05,2.56-1.84,3.61-3.02l.33-.39s.07-.07.07-.13l-.07.07-.07.13c.07-.07.13-.2.26-.26l.13-.13s-.13.2-.33.46c-.46.66-1.12,1.25-1.77,1.71l-.2.13-.2.2c.53-.39.99-.79,1.51-1.25.46-.46.85-.99,1.25-1.45l.13-.13-.13.13c-.33.46-.66.92-1.05,1.31l-.59.59c-.2.2-.39.39-.66.53-.92.72-1.84,1.31-2.63,2.17-.46.59-.92,1.18-1.31,1.84l.13-.26c.72-1.05,1.38-1.91,2.3-2.63s1.84-1.31,2.69-2.17l.07-.07-.07.07c-.85.85-1.71,1.45-2.63,2.17-.39.33-.72.59-1.05.92-.26.33-.59.72-.85,1.05.26-.39.59-.72.85-1.05.33-.33.66-.59.99-.92l1.05-.79c.33-.26.72-.53,1.05-.85l.13-.13c.39-.07.59-.2.79-.46q.07-.07,0,0h0ZM222.25,78.31s0-.07.07-.13l.13-.2c-.07,0-.13.2-.2.33ZM220.93,80.81c-.07.07-.07.13-.07.13.07-.07.07-.13.07-.13ZM230.59,65.76c-.53.85-.99,1.64-1.45,2.5l.33-.59c.39-.66.72-1.25,1.12-1.91ZM221.33,79.96c.13-.2.2-.39.33-.53.07-.13.13-.33.26-.46.2-.39.46-.85.66-1.25,0,.07,0-.07.07-.07l.07-.13c-.26.39-.46.85-.72,1.31-.26.33-.46.72-.66,1.12ZM219.88,82.45c0,.07-.07.07-.07.07l.07-.07ZM220.34,82.19l.13-.2-.13.2Z"/>
        </g>
        <g>
          <path class="cls-5" d="M254.71,49.73v.33c0-.26-.07-.59-.07-.99.26,1.84.07,4.07-.66,6.11-.72,1.97-1.84,3.68-2.83,4.99-.72.92-1.38,1.64-1.45,1.77-.07.07.53-.53,1.25-1.45.13-.2.33-.39.46-.59.99-1.31,2.1-3.02,2.83-5.19-.13.39-.26.85-.46,1.25.13-.26.2-.59.33-.92s.2-.66.33-.99c0,.07-.07.13-.07.26.33-1.05.53-2.43.46-3.68,0-.59-.07-1.25-.13-1.77-.13-.53-.2-.99-.26-1.38-.2-.72-.33-.99-.26-.79s.13.39.2.66c.07.39.13.79.26,1.31,0,.07.07,1.05.07,1.05Z"/>
          <path class="cls-5" d="M254.31,53.87c.2-.66.26-1.31.33-1.91,0-.33,0-.66.07-.99v-1.25.07c.07.33.07.66.07,1.05s0,.79-.07,1.25c-.07.85-.26,1.77-.53,2.69l-.2.59c-.07.33-.2.46-.2.53s0,0,.13-.26c.07-.26.2-.59.33-.92,0,0,0-.07.07-.13s.07-.2.07-.33c.07-.26.13-.46.13-.46.2-.59.26-1.25.33-1.97,0-.72.07-1.45-.07-2.17-.13-1.38-.46-2.63-.66-3.22-.07-.26,0,0,0,0-.07-.07.26.79.46,1.91.13.59.13,1.12.2,1.51s.07.66.07.72v.59-.46.92c-.07.39-.13.85-.13,1.31v.2c0,.13-.07.26-.07.39-.07.26-.13.59-.13.59l.2-.66s.07-.13.07-.33c.07-.13.07-.33.07-.33v.13c.07-.59.2-1.18.13-1.77v-.92c0-.33-.07-.59-.07-.92v-.26c0-.13-.07-.33-.07-.59-.07-.39-.2-.79-.2-.79-.07-.46-.07-.39,0,.07l.13.72c0-.13-.07-.2-.07-.33.33,1.64.33,3.48,0,5.06-.07.26-.13.53-.2.72-.26.26-.26.2-.2-.07h0Z"/>
          <path class="cls-5" d="M254.31,47.95c-.07-.26-.07-.53-.2-.92,0-.07-.07-.13-.07-.13.07.13.07.33.13.53.13.39.13.53.13.53Z"/>
          <path class="cls-5" d="M254.12,46.9c-.07-.13-.07-.2-.07-.2q0,.07.07.13t0,.07,0,0Z"/>
          <path class="cls-5" d="M214.56,73.12c3.02-4.21,6.97-7.69,10.97-10.91.13-.07.2-.13.26-.2-.07.07-.13.07-.2.2-4.07,3.15-7.95,6.64-11.04,10.91-.07.07-.13.2-.13.2,0,0,.07-.07.13-.2Z"/>
          <path class="cls-5" d="M244.98,49.79q-.13.07,0,0c.13-.07.26-.13.39-.13q.07-.07,0,0c-.13.07-.26.13-.39.13Z"/>
          <path class="cls-5" d="M244.06,50.39c-.66.26-1.25.59-1.84.92-.13.07-.2.13-.33.13.07,0-.07.07-.33.2-4.53,2.43-8.94,5.72-13.34,8.94-.07.07-.13.07-.2.13-.39.26-.92.72-1.51,1.18l-.46.39c-1.91,1.45-3.68,2.96-5.45,4.6-.33.33-.79.72-1.18,1.18-1.45,1.45-2.83,2.96-4.07,4.67.07-.13.13-.13.13-.13,0,.07-.33.39-.66.85l-.46.72c.46-.72.92-1.31,1.45-1.97.07-.07.13-.2.2-.26.59-.66,1.12-1.38,1.77-2.04,2.69-2.96,5.72-5.52,8.74-7.89,1.51-1.18,3.09-2.3,4.6-3.42s3.09-2.23,4.67-3.29c.13-.07.26-.2.33-.26s.07,0-.07.07c-1.97,1.31-3.75,2.63-5.59,4.01s-3.75,2.76-5.85,4.47c-2.5,2.04-4.86,4.14-6.97,6.51-2.17,2.37-4.01,4.99-5.32,7.95-.33.79-.66,1.58-.85,2.37s-.33,1.64-.07,2.3c.13.33.33.66.59.85s.66.33,1.05.39c.79.13,1.58.07,2.37-.07,1.58-.26,3.15-.85,4.73-1.45,1.58-.66,3.09-1.38,4.6-2.23,8.28-4.53,15.77-9.53,22.21-16.16,1.18-1.25,2.3-2.43,3.15-3.42.79-.99,1.31-1.71,1.45-1.91s-.26.46-1.12,1.58c.2-.2.33-.46.53-.66,0,0,.2-.26.39-.53s.39-.53.39-.53c.72-1.05,1.18-1.97,1.45-2.63,0,0,0-.07.07-.13s.07-.2.13-.26c.07-.2.13-.46.13-.46.46-1.12.85-3.15.79-4.14v.2-1.77.07c0,.2.13.53.13,1.18v.2c.07-.53,0-.79.07-.39v.59-.99q-.07-.85-.2-1.64c-.13-.59-.2-1.05-.2-1.05q-.2-.72-.13-.59t.07.13c-.13-.53-.2-.59-.2-.72-.07-.13-.07-.26-.07-.26v-.13l.13.33c0,.07.07.2.07.2.13.39.13.53.2.59.13.39.2.59.2.66v.13l.07.2v.2-.13l.07.39-.07-.46c.2.99.2.92.26,1.31s.07.72.07.79v-.07c.07.53.07.79.07,1.05s0,.53-.07.99c0,.07,0,.13-.07.26,0,.13-.07.33-.07.46,0,.2-.07.33-.07.53v.13c-.07.2-.07.33-.13.46v.07c-.07.13-.07.33-.13.66-.07.26-.26.66-.39,1.25l-.39.79c.07-.07.07-.13.13-.26s0,0,.07-.07c.99-2.04,1.38-4.47,1.12-6.9,0-.46-.13-.85-.13-.85,0-.07.07.26.13.66.07.59.13,1.25.13,1.84v.99c-.07.33-.07.66-.13.99-.26,1.31-.66,2.63-1.25,3.81-1.25,2.43-3.02,4.53-4.73,6.31-.85.92-1.84,1.84-2.76,2.83l.13-.13c-.26.26-.53.46-.72.72l-.07.07.59-.53.39-.39c2.17-2.17,4.07-4.07,5.78-6.51.92-1.31,1.58-2.5,2.1-3.94l.2-.59c-.07.13-.13.39-.26.72-.46,1.18-1.05,2.37-1.77,3.42-.72,1.12-1.51,2.1-2.37,3.09s-1.71,1.84-2.5,2.69-1.58,1.58-2.37,2.23c-.66.59-1.31,1.25-1.84,1.71.13-.13.26-.26.46-.33-.53.39-.79.66-1.25,1.05l.2-.13c-2.56,2.17-5.45,4.34-8.08,5.98-.13.07-.2.13-.33.2-1.12.72-2.23,1.45-3.61,2.3.46-.26.92-.53,1.38-.85-.99.59-1.97,1.18-3.02,1.84-1.45.85-2.96,1.71-4.34,2.43s-2.63,1.25-3.48,1.58c-1.51.66-3.02,1.18-4.6,1.51-.79.2-1.64.33-2.43.26-.79,0-1.71-.2-2.37-.85s-.72-1.64-.59-2.43c.13-.85.33-1.64.59-2.37.53-1.51,1.31-2.96,2.17-4.34.2-.26.33-.46.39-.59,0,0-.07.13-.26.46-1.25,1.97-2.3,4.07-2.83,6.37-.07.59-.13,1.18,0,1.84.13.59.53,1.18,1.12,1.51.53.33,1.18.39,1.77.39s1.18-.07,1.77-.13c-.99.2-1.97.26-3.02,0-.53-.13-.99-.46-1.31-.92s-.46-.99-.46-1.51c0-1.05.26-2.04.59-2.96.2-.46.33-.92.59-1.38l.66-1.38c.26-.46.53-.92.79-1.31.26-.46.59-.85.85-1.25,1.45-2.1,3.15-4.01,4.93-5.78,1.77-1.77,3.68-3.42,5.78-5.06,1.77-1.38,3.42-2.63,5.13-3.88s3.35-2.43,5.26-3.68c2.56-1.77,5.13-3.29,7.82-4.6,2.69-1.25,5.52-2.37,8.61-2.89.79-.2,1.58-.26,1.64-.26.13,0-.53.07-1.31.2-3.22.59-6.24,1.71-9.13,3.09-2.89,1.45-5.59,3.15-8.28,4.93-5.26,3.75-10.65,7.49-15.44,12.22-1.05,1.05-2.04,2.04-2.96,3.15,0,0-.07.13-.2.26.99-1.25,2.17-2.43,3.29-3.61,2.83-3.15,6.44-5.91,10.38-8.74,2.69-1.97,5.13-3.68,7.75-5.32,3.29-2.1,6.77-3.88,10.58-5.06.13-.07.26-.07.39-.13.07,0,0,0-.2.07-2.63.79-5.13,1.91-7.62,3.29.39-.2.66-.33.59-.33,0,0-.33.2-.79.46.53-.33,1.12-.59,1.71-.85.2-.07.33-.13.46-.2s.2-.07.2-.07c0,0-.07.07-.2.07-.13.07-.26.13-.46.2-2.3,1.18-4.53,2.5-6.7,3.94-2.56,1.71-5.06,3.55-7.56,5.39.26-.2.53-.39.72-.53.39-.26.79-.59,1.18-.85,3.55-2.56,7.16-5.19,11.11-7.29s8.21-3.75,12.75-4.21c.13,0,.26,0,.33-.07-.07,0-.13,0-.26.07-2.69.33-5.39.99-7.95,1.97q.13-.07,0,0c-.13.07-.26.13-.39.13q-.13.07,0,0c-4.73,1.91-9,4.67-13.01,7.56,3.75-2.69,7.62-5.19,11.83-7.03l1.38-.59c.13-.07.33-.13.33-.13.07,0-.07,0-.2.07l-.39.13c.39-.2.79-.33,1.05-.39.13-.07.2-.07.33-.13.07,0,.13-.07.13,0-.07,0-.72.26-1.58.59-2.23.92-4.4,2.04-6.44,3.22-.2.13-.46.26-.66.39l-.66.39c3.15-1.97,6.51-3.75,10.05-4.86.26-.07.46-.13.59-.2,0,0-.07,0-.13.07-.13.07-.26.07-.39.13-6.24,2.04-11.83,5.91-17.15,9.79-1.77,1.31-3.55,2.63-5.26,4.01.2-.2.46-.33.66-.53,1.45-1.12,2.83-2.17,4.21-3.15s2.69-1.97,4.07-2.96c2.76-1.91,5.52-3.68,8.67-5.19.13-.07.26-.13.33-.13-.07,0-.13.07-.26.13-3.09,1.51-5.72,3.15-8.54,5.13-2.3,1.58-4.47,3.22-6.57,4.73,4.34-3.15,8.41-6.24,13.08-8.81.2-.13.39-.2.53-.26,0,0,.07-.07.13-.07.59-.33,1.25-.66,1.91-.92.13-.07.26-.13.33-.13,0,0-.07,0-.2.07h0ZM249.12,62.41l.07-.07c-.07.13-.2.2-.33.33l-.46.46.72-.72ZM253.66,55.58c.07-.2.13-.33.13-.33-.07.13-.13.26-.13.33ZM211.8,83.77c.66.46,1.38.59,2.1.59s1.45-.07,2.1-.2c1.38-.26,2.69-.72,4.01-1.25-.66.26-1.25.46-1.91.66-.99.33-2.04.59-3.09.72-.53.07-1.05.07-1.64,0-.53,0-1.12-.13-1.58-.53ZM252.54,58.07c-.39.59-.72,1.12-1.05,1.51-.26.39-.59.79-.92,1.18-.85,1.05-1.77,2.04-2.69,3.02l-.2.2-.33.33c.99-.99,1.97-2.04,2.89-3.15.79-.92,1.58-2.04,2.3-3.09ZM254.44,48.48v-.13l.07.26c-.07,0-.07-.07-.07-.13ZM254.31,48.09c0,.07,0,.13.07.2,0-.07-.07-.13-.07-.2ZM254.58,49.93v-.26.26ZM254.44,51.24v.72-.72Z"/>
        </g>
        <g>
          <path class="cls-5" d="M256.74,48.74c0-.13-.07-.26-.07-.39,0,.13.07.26.07.46s0,.39.07.59c-.07-1.05-.26-2.3-.92-3.22-.33-.46-.79-.85-1.31-1.18-.53-.26-1.12-.39-1.71-.46-2.43-.13-4.73.59-6.51,1.25-1.25.46-2.37.99-2.43,1.05-.13.07.79-.39,2.04-.85.26-.13.59-.2.79-.33.92-.26,1.97-.59,3.09-.79.59-.13,1.18-.13,1.77-.2.33,0,.59-.07.92,0,.33,0,.59,0,.92.13-.13,0-.26-.07-.33-.07h-.39c-.26,0-.46-.07-.72,0,.39-.07.72,0,1.12.07.33.07.72.13,1.12.26-.07-.07-.2-.07-.26-.13.59.2,1.18.53,1.58,1.05.46.53.72,1.18.92,1.84.33,1.31.33,2.69.26,3.55-.07.92-.07,1.18,0,.92,0-.26.13-1.05.13-2.37v-.59c-.07-.33-.13-.59-.13-.59Z"/>
          <path class="cls-5" d="M254.51,44.87c.66.33,1.25.85,1.58,1.45.39.66.59,1.38.66,2.1l.07.26v-.13c-.07-.66-.26-1.58-.85-2.43-.53-.85-1.51-1.38-2.5-1.58,0,0-.2-.07-.39-.07h-.39c-.33-.07-.59,0-.66,0h.33c.13,0,.33,0,.46.07.2,0,.39,0,.66.07l.53.13c.26.13.53.2.53.2.59.26,1.18.79,1.58,1.45s.59,1.51.72,2.3c.2,1.58.07,3.09,0,3.88,0,.13.13-.92.13-2.3s-.26-2.56-.33-2.63c-.07-.2-.13-.46-.2-.66.07.2.13.33.2.53,0-.07-.07-.26-.13-.39-.07-.2-.13-.39-.26-.59-.2-.39-.59-.79-.92-1.12,0,0-.26-.2-.59-.39-.13-.07-.33-.13-.46-.2s-.2-.07-.2-.07c0,0,.72.26.66.33s.13.07.33.2c.13.07.26.2.26.2-.07-.07-.13-.07-.13-.13,1.05.85,1.45,2.17,1.64,3.68,0,0,.07.46.07.99v.99-.92.39c0-.99-.07-1.97-.33-2.96s-.85-1.84-1.64-2.3c-.26-.2-.59-.33-.72-.33-.13-.13,0-.07.33,0Z"/>
          <path class="cls-5" d="M256.94,50.85c0,.33,0,.66-.07,1.05v.2c0-.2,0-.39.07-.66v-.59Z"/>
          <path class="cls-5" d="M219.68,86.86c2.76-1.31,5.19-3.29,7.69-4.99,1.25-.85,2.5-1.77,3.81-2.69,1.31-.85,2.56-1.71,3.88-2.5.13-.13.26-.2.33-.2-.07.07-.13.07-.26.2-1.31.79-2.56,1.71-3.88,2.5-1.31.85-2.5,1.77-3.81,2.63-2.56,1.71-4.93,3.75-7.69,4.99-.2.07-.26.13-.33.2.07-.07.13-.07.26-.13Z"/>
          <path class="cls-5" d="M255.3,58.47q-.07.13,0,0c.07-.13.13-.33.2-.46s.07-.13,0,0c0,.13-.13.33-.2.46Z"/>
          <path class="cls-5" d="M254.77,59.72c-.39.79-.85,1.45-1.31,2.04-.07.13-.13.26-.2.33,0-.07-.07.13-.26.33-3.75,4.93-9.07,9-14.52,12.49-.07.07-.13.07-.2.13-.39.26-1.12.72-1.91,1.25l-.59.39c-2.43,1.51-4.8,3.09-7.1,4.73-.46.33-1.05.72-1.64,1.18-1.97,1.45-3.94,2.96-6.18,4.14.13-.13.2-.13.2-.13-.07.07-.53.33-1.18.59-.33.13-.59.33-.92.46.92-.39,1.84-.85,2.63-1.31.13-.07.26-.13.33-.2.92-.59,1.84-1.18,2.76-1.84,1.97-1.38,3.88-2.76,5.85-4.14,1.97-1.31,3.88-2.56,5.85-3.81.99-.59,1.97-1.25,2.89-1.84.99-.66,1.91-1.25,2.83-1.91,1.84-1.31,3.68-2.69,5.39-4.21.13-.13.26-.26.39-.33l-.07.07c-2.17,1.91-4.27,3.48-6.51,5.06-1.18.79-2.3,1.51-3.55,2.3s-2.5,1.58-3.88,2.5l-2.37,1.58c-.79.53-1.58,1.12-2.37,1.64-1.58,1.12-3.09,2.23-4.67,3.35s-3.15,2.23-4.99,3.02c-1.77.79-3.75,1.31-5.78,1.25-1.05-.07-2.1-.33-3.02-.85-.92-.59-1.58-1.51-1.91-2.5s-.39-2.04-.39-3.02c.07-.99.2-2.04.46-3.02.46-1.97,1.18-3.88,2.1-5.65.46-.92.92-1.84,1.51-2.69.53-.92,1.25-1.71,1.91-2.5,3.48-4.47,7.49-8.35,11.83-11.7.53-.39,1.05-.85,1.64-1.25l1.71-1.18c.59-.39,1.12-.79,1.71-1.18l1.77-1.05c.59-.33,1.18-.72,1.77-1.05l1.84-.99c1.18-.66,2.43-1.31,3.68-1.97.92-.46,1.84-.92,2.69-1.38.85-.39,1.64-.79,2.37-1.05,1.45-.59,2.5-.85,2.76-.92.13-.07,0,0-.39.13s-1.05.33-1.84.66c.33-.13.66-.26.92-.39l1.58-.46c.72-.2,1.45-.33,2.04-.46.59-.07,1.18-.07,1.58-.13,0,0,.26-.07.59,0,.26,0,.59.07.59.07.72.07,1.77.39,2.5,1.05s1.12,1.58,1.25,2.17l-.13-.26s.13.26.07.26c.26.92.26,1.58.26,1.77v-.07c0-.2-.07-.66-.26-1.45,0,0,0-.07-.07-.26.13.66.2.92.07.46.07.39.07.33-.07-.13-.07-.13-.07-.33-.13-.53.07.2.07.26.13.53.07.2.07.33.07.46v.13q.13,1.05.13,1.91c0,.79-.07,1.25-.07,1.25q-.07.85-.07.72v-.2c-.07.66-.07.72-.07.92s-.07.33-.07.33v.13-.59c.07-.46.07-.59.07-.72l.07-.99v-.39.13-.46.53-1.58c0-.46-.07-.85-.13-.92v.07c-.07-.59-.2-.85-.26-1.18-.13-.26-.2-.59-.46-1.05-.07-.13-.13-.13-.13-.2-.07-.07-.2-.26-.33-.46-.13-.13-.26-.26-.46-.39-.07,0-.07-.07-.13-.07-.2-.13-.26-.2-.46-.26-.07-.07-.13-.07-.13-.07-.2-.07-.33-.2-.72-.26-.2-.07-.39-.07-.59-.13-.26,0-.53,0-.85-.07-.39,0-.72.07-1.05.07h.46c.33,0,.66-.07.99,0h.46c.13,0,.33.07.46.07.33.07.66.2.92.33.26.2.59.33.79.53.53.46.85,1.05,1.05,1.71s.33,1.31.39,2.04c.07.53,0,.99.07,1.05,0,.07,0-.26-.07-.79-.07-.72-.13-1.45-.39-2.1-.2-.72-.59-1.31-1.12-1.84-.53-.46-1.25-.79-2.04-.92-.39-.07-.79-.07-1.18-.07l-1.18.07c-.2,0-.39,0-.59.07l-.59.13-1.18.26c-.72.26-1.51.46-2.23.72s-1.45.53-2.17.85c-.72.33-1.38.59-2.04.99-1.38.66-2.76,1.45-4.14,2.17l.2-.13-1.05.59-.13.07.79-.39c.2-.13.39-.2.59-.33,3.22-1.71,6.11-3.29,9.4-4.27.85-.33,1.71-.39,2.56-.59l1.25-.07c.2,0,.39-.07.66,0,.2,0,.39,0,.66.07.46.07.72.13.66.13s-.46-.13-.85-.13h-.53l-.53.07c-.39,0-.72.07-1.12.07-.39.07-.72.13-1.12.2s-.72.13-1.12.26c-1.45.39-2.89.99-4.27,1.58-2.76,1.25-5.26,2.63-7.36,3.75-.92.53-1.91.99-2.63,1.45h-.07c.2-.13.39-.2.59-.33-.66.39-1.05.66-1.71.99l.26-.13c-.85.53-1.71.99-2.56,1.58s-1.71,1.18-2.5,1.71c-.85.59-1.58,1.25-2.37,1.84-.39.33-.79.59-1.12.92s-.72.59-1.05.92c-.13.07-.2.2-.33.26-.59.53-1.18,1.05-1.77,1.64s-1.18,1.18-1.91,1.84c.46-.46.92-.85,1.38-1.31-.99.99-1.97,1.91-2.89,3.02-.66.72-1.38,1.51-1.97,2.23-.59.79-1.25,1.58-1.84,2.3-1.18,1.45-1.97,2.83-2.5,3.75-.85,1.71-1.58,3.48-2.1,5.32-.53,1.84-.85,3.75-.53,5.59.13.92.46,1.84,1.12,2.5.59.66,1.45,1.12,2.37,1.31s1.84.26,2.83.13c.46,0,.92-.13,1.38-.26l.66-.13.66-.26c.33-.13.59-.2.79-.26.07,0-.2.07-.59.2-.33.13-.66.26-.99.33l-.99.2c-.33.07-.66.13-.99.13s-.66.07-.99.07c-1.31,0-2.76-.26-3.75-1.18-.99-.85-1.45-2.23-1.58-3.61-.07-1.38.13-2.76.46-4.07-.26,1.12-.46,2.3-.46,3.42,0,1.18.2,2.3.72,3.29.59.99,1.58,1.64,2.69,1.91s2.3.26,3.48.13c.59-.13,1.18-.2,1.77-.39s1.12-.39,1.71-.66c2.76-1.25,5.13-3.09,7.56-4.86,1.25-.85,2.43-1.71,3.68-2.63,1.25-.85,2.56-1.71,3.88-2.56,2.23-1.45,4.34-2.76,6.44-4.14,2.04-1.45,4.07-2.89,6.05-4.6,2.83-2.37,5.26-5.06,7.16-8.02.46-.79.92-1.51,1.25-2.3.2-.39.39-.79.53-1.18l.46-1.25c.53-1.71.99-3.42,1.12-5.26.13-.99.07-1.84.07-1.97v.39c0,.26,0,.72-.07,1.18l-.13,1.45c-.07.46-.13.92-.26,1.38-.07.26-.07.46-.13.72l-.2.66c-.13.46-.2.92-.39,1.38-.59,1.77-1.51,3.48-2.5,5.13-1.05,1.58-2.23,3.09-3.55,4.47s-2.76,2.69-4.21,3.88c-1.51,1.18-3.02,2.37-4.6,3.48s-3.22,2.17-4.86,3.22-3.29,2.1-4.99,3.22c-.85.53-1.64,1.12-2.43,1.71s-1.64,1.18-2.43,1.71c-1.45.99-2.76,2.04-4.21,2.96h.07s-.13.07-.33.26c1.64-1.05,3.15-2.23,4.8-3.35,4.34-3.29,9.07-6.05,13.87-9.2,3.22-2.23,6.11-4.4,8.74-7.03,1.64-1.64,3.15-3.42,4.4-5.39s2.23-4.07,2.83-6.31c.07-.2.07-.33.13-.46,0-.07,0,.07-.07.2-.79,3.09-2.37,6.11-4.4,8.67.33-.39.53-.66.53-.59s-.26.33-.66.85l.72-.92.66-.92c.26-.33.39-.53.46-.66,0,0-.07.07-.13.2s-.2.26-.33.46c-1.71,2.56-3.88,4.8-6.18,6.83-1.38,1.18-2.83,2.37-4.34,3.48-.72.53-1.51,1.05-2.23,1.58l-2.3,1.51c.39-.2.66-.39.92-.59.46-.33.99-.66,1.45-.92,4.27-2.96,8.54-6.31,11.76-10.51,1.64-2.1,2.96-4.47,3.81-7.03s1.25-5.26,1.12-7.95v-.39.33c.13,3.29-.46,6.51-1.71,9.53q.07-.13,0,0c-.07.13-.13.33-.2.46s-.07.13,0,0c-1.25,2.76-3.02,5.19-5.06,7.43s-4.34,4.14-6.7,5.91c2.17-1.64,4.27-3.42,6.24-5.39,1.91-1.97,3.61-4.14,4.86-6.57.26-.53.53-1.05.79-1.64.07-.13.13-.33.2-.39,0-.07,0,.07-.07.26-.07.13-.13.33-.2.46.26-.46.39-.92.53-1.18.07-.13.13-.26.13-.33.07-.07.07-.13.07-.13,0,0-.07.26-.2.59s-.26.79-.53,1.31c-1.18,2.63-2.89,4.99-4.86,7.16-.2.26-.39.46-.66.66l-.66.66c3.22-3.09,5.85-6.9,7.23-11.17.07-.33.13-.53.2-.66,0,0,0,.07-.07.2s-.07.26-.13.46c-.59,1.84-1.38,3.68-2.43,5.39-1.05,1.64-2.23,3.22-3.61,4.67-2.69,2.89-5.85,5.39-9.13,7.69-2.17,1.51-4.4,2.89-6.64,4.34.26-.2.59-.39.85-.53,1.84-1.18,3.55-2.3,5.26-3.42,1.64-1.18,3.29-2.37,4.8-3.61s3.02-2.56,4.4-4.01,2.69-3.02,3.81-4.8c.13-.2.2-.26.2-.33,0,0-.07.13-.2.26-1.12,1.71-2.37,3.29-3.68,4.67-1.38,1.45-2.76,2.76-4.34,4.01-2.63,2.17-5.26,3.94-7.89,5.65,2.69-1.71,5.26-3.48,7.69-5.45s4.67-4.14,6.64-6.64c.2-.2.33-.39.46-.59,0,0,.07-.07.07-.13.46-.66.99-1.38,1.38-2.1.07-.13.2-.33.26-.39.13-.07.07,0-.07.2h0ZM243.08,47.03c.07,0,.13-.07.13-.07-.13.07-.33.13-.53.26l-.72.33c.07,0,.59-.26,1.12-.53ZM252.41,44.34c.26,0,.46.07.46.07-.2,0-.33-.07-.46-.07ZM208.91,83.77c-.2-1.64.13-3.29.53-4.93.46-1.58,1.05-3.15,1.71-4.67-.33.72-.66,1.45-.92,2.23-.46,1.18-.79,2.37-1.05,3.61s-.39,2.5-.26,3.75ZM249.25,44.87c-.2.07-.39.07-.59.13s-.39.13-.53.13c-.33.13-.66.2-.99.26-.53.2-1.12.39-1.71.66-.79.26-1.51.66-2.23.99-.72.39-1.45.72-2.17,1.05.2-.07-.13.07-.33.2-.2.07-.33.2-.53.26,1.51-.79,3.02-1.58,4.6-2.23.72-.33,1.45-.59,2.23-.85.39-.13.79-.26,1.12-.33.2-.07.39-.13.53-.2.2,0,.39-.07.59-.07ZM256.94,50.19v.13-.33.2ZM256.94,50.71v-.26.26ZM256.81,48.48c0,.13,0,.2.07.33l-.07-.33ZM256.61,46.9s-.07-.2-.2-.39-.2-.39-.2-.39c0,0,.13.2.26.39.07.13.07.26.13.39v.07-.07Z"/>
        </g>
        <path class="cls-4" d="M213.7,82.85c.2,3.94,0,7.43-.46,11.37-.46,2.83-.2,7.89-2.63,10.05-2.63,2.63-5.45-.46-5.26-3.48.2-3.94,3.94-5.91,5.91-8.74,1.77-2.83,1.77-6.57,2.17-9.66"/>
        <g>
          <path class="cls-5" d="M214.03,84.56v.13-.39c0,.79.07,1.71,0,2.56,0,.85,0,1.71-.07,2.37,0,.46-.07.92-.07.92,0,0,.07-.33.07-.79v-.33c.07-.66.07-1.51.13-2.43v.53-.85.13c.07-.92-.07-2.17-.07-2.83-.07-.66-.07-.39-.07.53,0,0,.07.46.07.46Z"/>
          <path class="cls-5" d="M213.97,86.26v-1.77.07c0,.53.07,1.31.07,2.1v.53-.92c0-.99-.07-2.56-.07-3.09v.85c0,.53.07.92.07.92v.26-.2c0,.13.07.59.07.92v.53-.53.07c0-.53-.07-.99-.07-1.51v-.66.39-.13c0,.72.07,1.45,0,2.1v.33q-.07-.13-.07-.26Z"/>
          <path class="cls-5" d="M205.23,100.33c.13-1.12.59-2.17,1.25-3.09s1.38-1.71,2.17-2.5q.07-.07.07-.13l-.07.07c-.79.79-1.51,1.58-2.17,2.5-.66.99-1.12,1.97-1.25,3.15v.13-.13h0Z"/>
          <path class="cls-5" d="M213.05,86.99c-.07.33-.07.59-.13.85v.26c-.07.53-.26,1.05-.39,1.58-.07.26-.2.53-.26.79s-.2.53-.33.79l-.39.79c-.13.26-.33.46-.53.72-.33.46-.72.85-1.12,1.31l-.07.07c-.13.13-.33.33-.53.59l-.2.2c-.72.72-1.38,1.45-1.97,2.23l-.39.59c-.46.72-.79,1.51-.92,2.37v-.07s-.07.2-.07.46l-.07.33c.07-.33.07-.66.13-.99v-.13c.13-.33.2-.72.39-1.05.72-1.51,1.91-2.69,3.02-3.81,1.12-1.18,2.3-2.3,2.89-3.88,0-.07.07-.13.07-.2v.07c-.13.46-.46.92-.66,1.31-.26.39-.59.79-.85,1.18-.66.72-1.31,1.45-2.1,2.23-.92.99-1.77,1.97-2.3,3.15-.26.59-.46,1.18-.53,1.84s0,1.31.13,1.91c.2.66.53,1.25.99,1.71s1.05.79,1.64.85,1.18-.2,1.71-.66c.53-.39.99-.92,1.25-1.58.46-.85.66-1.77.85-2.69s.26-1.91.39-2.83c.07-.92.13-1.91.26-2.89.07-.92.2-1.91.26-2.89.13-1.45.2-2.76.26-2.96v.79-.33l.07-.59c0-.53.07-.99.07-1.25v-.39c.07-.53.07-1.38.07-1.77v.07-.79c0,.07.07.26.07.53v.07c0-.2,0-.33.07-.13v.26-1.77.07-.53.92-.07.2-.2,3.81-.2c0-.46,0-.99.07-1.45v-1.91.26c0,.53.07,1.05.07,1.58v1.64c0,1.12-.13,2.23-.2,3.29,0,.53-.07,1.12-.13,1.64v-.07l-.07.39v.07l.07-.33v-.2c.13-1.25.2-2.43.26-3.68l.07-1.84v-.26,1.91c-.07.53-.07,1.05-.13,1.64-.07,1.05-.2,2.1-.26,2.89-.07.33-.07.66-.13,1.05v-.26c0,.26-.07.46-.07.66v-.07c-.2,1.38-.26,2.89-.46,4.21v.13c-.07.53-.13,1.12-.26,1.77.07-.2.07-.46.13-.66-.07.46-.2.99-.33,1.45-.2.66-.46,1.38-.85,1.97-.33.59-.79.99-1.12,1.25-.53.46-1.18.85-1.91.92s-1.45-.26-1.97-.72c-1.05-.99-1.58-2.37-1.58-3.81v-.33.2c0,.99.2,2.04.72,2.89.26.46.59.85,1.05,1.12.39.33.92.53,1.45.53-.92-.07-1.64-.59-2.17-1.31-.53-.66-.85-1.51-.99-2.37,0-.2-.07-.46-.07-.66s0-.46.07-.66c.13-1.12.53-2.1,1.12-3.02s1.31-1.71,2.1-2.5c.66-.66,1.25-1.31,1.84-1.97l.79-.99.59-1.18c.46-1.18.79-2.37.99-3.61s.33-2.43.46-3.75c.07-.33.07-.66.13-.72,0-.07,0,.2-.07.53-.13,1.31-.26,2.69-.46,4.01s-.53,2.63-1.12,3.81c-.13.26-.26.59-.46.85s-.39.53-.59.79c-.46.53-.92.99-1.38,1.51-.99.99-1.97,1.97-2.76,3.15-.33.53-.59,1.05-.79,1.64,0,0,0,.07-.07.13.2-.66.53-1.31.92-1.84,1.05-1.64,2.56-2.89,3.88-4.34.92-.99,1.45-2.17,1.91-3.35.46-1.58.66-3.15.85-4.8v-.13.07c-.13,1.12-.26,2.3-.46,3.42.07-.2.07-.26.07-.26,0,0,0,.13-.07.39l.13-.79c0-.13.07-.26.07-.26,0,0,0,.13-.07.26-.13.53-.2,1.05-.33,1.58s-.33,1.05-.53,1.51c-.07.33-.26.59-.39.85l-.2.46c-.07.13-.2.26-.26.39-.39.53-.79.99-1.25,1.45l.26-.26.39-.46c.33-.33.59-.72.85-1.05.2-.39.46-.79.66-1.25.33-.85.59-1.77.79-2.69.39-1.84.46-3.75.72-5.59v-.13.13c-.13,1.12-.26,2.3-.39,3.42v.2c-.26,2.1-.66,4.21-1.77,5.98,1.05-1.64,1.45-3.55,1.71-5.45l.07-.66v-.13.26c0-.13.07-.33.07-.46v-.2s0,.33-.07.72c-.13.99-.26,2.04-.59,2.96l-.07.33-.07.33c.46-1.51.66-3.09.85-4.6,0-.13.07-.26.07-.26v.26c-.13,1.38-.33,2.76-.72,4.07l-.13.53-.2.53c-.13.33-.2.66-.39.99s-.33.66-.53.92-.39.59-.66.85c-.59.72-1.25,1.38-1.91,2.04l.26-.26c.53-.53,1.05-1.05,1.51-1.58s.92-1.12,1.18-1.77c.59-1.25.99-2.63,1.18-4.07v-.13.13c-.26,1.45-.53,2.69-1.18,4.01l-.39.79c-.2.26-.33.46-.53.72-.33.46-.72.85-1.12,1.25.39-.39.79-.79,1.12-1.25.2-.2.33-.46.53-.66.13-.26.26-.46.39-.72.26-.46.39-1.05.66-1.51.13-.53.33-1.05.39-1.64,0-.07,0-.13.07-.26v-.07c.07-.26.13-.59.13-.85v-.13c.2.13.2.2.2.26h0ZM213.7,90.47c.07,0,.07-.07,0,0v.39-.39ZM213.84,87.05v-.13.13ZM206.87,104.86c.46.39,1.12.66,1.71.66.66,0,1.25-.26,1.71-.66-.13.07-.26.13-.39.26l-.39.2c-.46.2-.92.2-1.38.13s-.85-.33-1.25-.59ZM213.9,88.17c0,.33,0,.53-.07.79,0,.2,0,.39-.07.66-.07.59-.07,1.12-.13,1.71v.33c.07-.59.07-1.18.13-1.77s.13-1.18.13-1.71h0ZM213.9,83.83v.07-.07ZM213.9,84.62v-.13.13ZM213.7,85.15l.07.33-.07-.33Z"/>
        </g>
        <path class="cls-5" d="M207.4,50.65c.53,0,.53-.85,0-.85s-.53.85,0,.85Z"/>
        <path class="cls-5" d="M201.88,60.05c.53,0,.53-.85,0-.85s-.53.85,0,.85Z"/>
        <path class="cls-5" d="M206.08,62.67c.53,0,.53-.85,0-.85s-.53.85,0,.85Z"/>
        <path class="cls-5" d="M199.51,60.67c0,.17-.11.17-.17.17.45,0,.45-.73,0-.73-.34,0-.51.23-.56.56,0,.17.17.34.34.34.28,0,.39-.17.39-.34Z"/>
        <path class="cls-5" d="M209.76,53.01c.53,0,.53-.85,0-.85-.53.07-.53.85,0,.85Z"/>
        <path class="cls-5" d="M203.85,45.59c.53,0,.53-.85,0-.85s-.53.85,0,.85Z"/>
        <path class="cls-5" d="M203.65,57.61c1.05,0,1.05-1.64,0-1.64s-1.05,1.64,0,1.64Z"/>
        <path class="cls-5" d="M201.88,65.5c1.05,0,1.05-1.64,0-1.64s-1.05,1.64,0,1.64Z"/>
        <path class="cls-5" d="M198.78,59.15c.9,0,.9-1.41,0-1.41s-.9,1.41,0,1.41Z"/>
        <path class="cls-5" d="M202.14,41.19c.59-.07.99-.39,1.05-1.05,0-.46-.39-.85-.85-.85s-.79.39-.85.85c0-.13.07-.39.26-.53.13-.07.26-.07.39-.13h-.07c-.46.07-.85.33-.85.85.07.39.46.92.92.85Z"/>
        <path class="cls-5" d="M202.53,36.39c1.05,0,1.05-1.64,0-1.64s-1.05,1.64,0,1.64Z"/>
        <path class="cls-5" d="M198.44,53.68c.9,0,.9-1.41,0-1.41s-.9,1.41,0,1.41Z"/>
        <path class="cls-5" d="M197.48,56.89c.9,0,.9-1.41,0-1.41s-.9,1.41,0,1.41Z"/>
        <path class="cls-5" d="M198.61,61.97c.9,0,.9-1.41,0-1.41s-.9,1.41,0,1.41Z"/>
        <path class="cls-5" d="M194.66,67.05c.9,0,.9-1.41,0-1.41s-.9,1.41,0,1.41Z"/>
        <path class="cls-5" d="M209.1,44.93c1.05,0,1.05-1.64,0-1.64s-1.05,1.64,0,1.64Z"/>
      </g>
    </g>
  </g>
</svg>